{
.appVersion = "1141";
DisplayStrings = (
A
);
copyright = "Copyright (c) 2018 by Cadson Demak Co.,Ltd.. All rights reserved.";
customParameters = (
{
name = vendorID;
value = CDK;
},
{
name = description;
value = "Copyright (c) 2018, Cadson Demak (info@cadsondemak.com)";
},
{
name = license;

glyphs = (
{
color = 4;
glyphname = A;
lastChange = "2018-07-19 10:59:36 +0000";
layers = (
{
anchors = (
{
name = bottom;
position = "{310, 0}";
},
{
name = ogonek;
position = "{605, 0}";
},
{
name = top;
position = "{310, 660}";
}
);
layerId = "5A4BD32C-A1D1-4EB1-A794-47BD06E3B809";
paths = (
{
closed = 1;
nodes = (
"89 0 LINE",
"147 266 OFFCURVE",
"216 459 OFFCURVE",
"323 651 CURVE",
"297 651 LINE",
"404 459 OFFCURVE",
"473 266 OFFCURVE",
"531 0 CURVE",
"605 0 LINE",
"536 287 OFFCURVE",
"459 497 OFFCURVE",
"348 700 CURVE",
"273 700 LINE",
"161 495 OFFCURVE",
"84 284 OFFCURVE",
"15 0 CURVE"
);
},
{
closed = 1;
nodes = (
"499 203 LINE",
"480 263 LINE",
"140 263 LINE",
"120 203 LINE"
);
}
);
width = 620;
},
{
anchors = (
{
name = bottom;
position = "{330, 0}";
},
{
name = ogonek;
position = "{645, 0}";
},
{
name = top;
position = "{330, 660}";
}
);
layerId = "FD6510A9-FDB4-489D-9A3E-85E488E95339";
paths = (
{
closed = 1;
nodes = (
"165 0 LINE",
"205 280 OFFCURVE",
"253 442 OFFCURVE",
"343 611 CURVE",
"317 611 LINE",
"407 442 OFFCURVE",
"455 280 OFFCURVE",
"495 0 CURVE",
"645 0 LINE",
"620 241 OFFCURVE",
"541 476 OFFCURVE",
"408 700 CURVE",
"253 700 LINE",
"119 474 OFFCURVE",
"40 239 OFFCURVE",
"15 0 CURVE"
);
},
{
closed = 1;
nodes = (
"519 173 LINE",
"500 283 LINE",
"160 283 LINE",
"140 173 LINE"
);
}
);
width = 660;
},
{
anchors = (
{
name = bottom;
position = "{310, 0}";
},
{
name = ogonek;
position = "{605, 0}";
},
{
name = top;
position = "{310, 660}";
}
);
layerId = "EB12C417-147C-44D3-ABF9-73FB32C0B9E2";
paths = (
{
closed = 1;
nodes = (
"59 0 LINE",
"106 255 OFFCURVE",
"206 508 OFFCURVE",
"323 671 CURVE",
"297 671 LINE",
"414 508 OFFCURVE",
"514 255 OFFCURVE",
"561 0 CURVE",
"605 0 LINE",
"554 268 OFFCURVE",
"467 487 OFFCURVE",
"328 700 CURVE",
"293 700 LINE",
"153 485 OFFCURVE",
"66 266 OFFCURVE",
"15 0 CURVE"
);
},
{
closed = 1;
nodes = (
"529 203 LINE",
"510 243 LINE",
"110 243 LINE",
"90 203 LINE"
);
}
);
width = 620;
},
{
anchors = (
{
name = bottom;
position = "{273, 0}";
},
{
name = ogonek;
position = "{588, 0}";
},
{
name = top;
position = "{365, 660}";
}
);
layerId = "CF2C6045-422A-4B78-B702-649D3D8A1FBA";
paths = (
{
closed = 1;
nodes = (
"108 0 LINE",
"186 293 OFFCURVE",
"253 448 OFFCURVE",
"372 611 CURVE",
"346 611 LINE",
"412 441 OFFCURVE",
"437 277 OFFCURVE",
"438 0 CURVE",
"588 0 LINE",
"597 241 OFFCURVE",
"550 476 OFFCURVE",
"449 700 CURVE",
"294 700 LINE",
"128 499 OFFCURVE",
"18 269 OFFCURVE",
"-42 0 CURVE"
);
},
{
closed = 1;
nodes = (
"486 173 LINE",
"482 283 LINE",
"142 283 LINE",
"107 173 LINE"
);
}
);
width = 660;
},
{
anchors = (
{
name = bottom;
position = "{253, 0}";
},
{
name = ogonek;
position = "{548, 0}";
},
{
name = top;
position = "{345, 660}";
}
);
layerId = "821A3B53-E0A3-4F70-87DD-68DD21D0650F";
paths = (
{
closed = 1;
nodes = (
"32 0 LINE",
"126 264 OFFCURVE",
"222 457 OFFCURVE",
"357 651 CURVE",
"331 651 LINE",
"411 461 OFFCURVE",
"453 269 OFFCURVE",
"474 0 CURVE",
"548 0 LINE",
"519 287 OFFCURVE",
"471 497 OFFCURVE",
"389 700 CURVE",
"314 700 LINE",
"173 495 OFFCURVE",
"66 284 OFFCURVE",
"-42 0 CURVE"
);
},
{
closed = 1;
nodes = (
"470 203 LINE",
"460 263 LINE",
"120 263 LINE",
"91 203 LINE"
);
}
);
width = 620;
},
{
anchors = (
{
name = bottom;
position = "{253, 0}";
},
{
name = ogonek;
position = "{548, 0}";
},
{
name = top;
position = "{345, 660}";
}
);
layerId = "3E05E8D4-50BE-428E-AA2A-790990B7EE87";
paths = (
{
closed = 1;
nodes = (
"2 0 LINE",
"85 254 OFFCURVE",
"220 507 OFFCURVE",
"360 671 CURVE",
"334 671 LINE",
"429 508 OFFCURVE",
"493 255 OFFCURVE",
"504 0 CURVE",
"548 0 LINE",
"534 268 OFFCURVE",
"478 487 OFFCURVE",
"369 700 CURVE",
"334 700 LINE",
"164 485 OFFCURVE",
"46 266 OFFCURVE",
"-42 0 CURVE"
);
},
{
closed = 1;
nodes = (
"500 203 LINE",
"487 243 LINE",
"87 243 LINE",
"61 203 LINE"
);
}
);
width = 620;
}
);
note = A;
unicode = 0041;
},
{
color = 4;
glyphname = B;
lastChange = "2018-07-18 10:11:34 +0000";
layers = (
{
anchors = (
{
name = bottom;
position = "{308, 0}";
},
{
name = top;
position = "{308, 660}";
}
);
layerId = "5A4BD32C-A1D1-4EB1-A794-47BD06E3B809";
paths = (
{
closed = 1;
nodes = (
"326 0 LINE SMOOTH",
"483 0 OFFCURVE",
"572 70 OFFCURVE",
"572 194 CURVE SMOOTH",
"572 290 OFFCURVE",
"499 365 OFFCURVE",
"404 367 CURVE",
"404 350 LINE",
"481 357 OFFCURVE",
"540 428 OFFCURVE",
"540 516 CURVE SMOOTH",
"540 630 OFFCURVE",
"454 700 OFFCURVE",
"316 700 CURVE SMOOTH",
"86 700 LINE",
"86 0 LINE"
);
},
{
closed = 1;
nodes = (
"158 680 LINE",
"113 640 LINE",
"316 640 LINE SMOOTH",
"411 640 OFFCURVE",
"468 594 OFFCURVE",
"468 516 CURVE SMOOTH",
"468 429 OFFCURVE",
"416 385 OFFCURVE",
"313 385 CURVE SMOOTH",
"134 385 LINE",
"134 328 LINE",
"314 328 LINE SMOOTH",
"443 328 OFFCURVE",
"500 287 OFFCURVE",
"500 194 CURVE SMOOTH",
"500 99 OFFCURVE",
"447 60 OFFCURVE",
"316 60 CURVE SMOOTH",
"113 60 LINE",
"158 15 LINE"
);
}
);
width = 615;
},
{
anchors = (
{
name = bottom;
position = "{308, 0}";
},
{
name = top;
position = "{308, 660}";
}
);
layerId = "FD6510A9-FDB4-489D-9A3E-85E488E95339";
paths = (
{
closed = 1;
nodes = (
"336 0 LINE SMOOTH",
"499 0 OFFCURVE",
"592 74 OFFCURVE",
"592 204 CURVE SMOOTH",
"592 294 OFFCURVE",
"520 367 OFFCURVE",
"429 369 CURVE",
"429 352 LINE",
"508 359 OFFCURVE",
"560 420 OFFCURVE",
"560 506 CURVE SMOOTH",
"560 625 OFFCURVE",
"470 700 OFFCURVE",
"326 700 CURVE SMOOTH",
"76 700 LINE",
"76 0 LINE"
);
},
{
closed = 1;
nodes = (
"230 660 LINE",
"163 594 LINE",
"286 594 LINE SMOOTH",
"367 594 OFFCURVE",
"404 567 OFFCURVE",
"404 506 CURVE SMOOTH",
"404 439 OFFCURVE",
"367 410 OFFCURVE",
"283 410 CURVE SMOOTH",
"174 410 LINE",
"174 304 LINE",
"304 304 LINE SMOOTH",
"401 304 OFFCURVE",
"436 278 OFFCURVE",
"436 204 CURVE SMOOTH",
"436 128 OFFCURVE",
"407 106 OFFCURVE",
"306 106 CURVE SMOOTH",
"163 106 LINE",
"230 35 LINE"
);
}
);
width = 625;
},
{
anchors = (
{
name = bottom;
position = "{308, 0}";
},
{
name = top;
position = "{308, 660}";
}
);
layerId = "EB12C417-147C-44D3-ABF9-73FB32C0B9E2";
paths = (
{
closed = 1;
nodes = (
"335 0 LINE SMOOTH",
"488 0 OFFCURVE",
"570 64 OFFCURVE",
"570 184 CURVE SMOOTH",
"570 296 OFFCURVE",
"508 356 OFFCURVE",
"390 358 CURVE",
"390 343 LINE",
"487 349 OFFCURVE",
"545 413 OFFCURVE",
"545 516 CURVE SMOOTH",
"545 633 OFFCURVE",
"465 700 OFFCURVE",
"326 700 CURVE SMOOTH",
"86 700 LINE",
"86 0 LINE"
);
},
{
closed = 1;
nodes = (
"128 680 LINE",
"103 660 LINE",
"326 660 LINE SMOOTH",
"439 660 OFFCURVE",
"501 609 OFFCURVE",
"501 516 CURVE SMOOTH",
"501 422 OFFCURVE",
"435 366 OFFCURVE",
"324 366 CURVE SMOOTH",
"104 366 LINE",
"104 328 LINE",
"325 328 LINE SMOOTH",
"472 328 OFFCURVE",
"526 289 OFFCURVE",
"526 184 CURVE SMOOTH",
"526 85 OFFCURVE",
"467 40 OFFCURVE",
"334 40 CURVE SMOOTH",
"103 40 LINE",
"128 15 LINE"
);
}
);
width = 615;
},
{
anchors = (
{
name = bottom;
position = "{251, 0}";
},
{
name = top;
position = "{343, 660}";
}
);
layerId = "CF2C6045-422A-4B78-B702-649D3D8A1FBA";
paths = (
{
closed = 1;
nodes = (
"289 0 LINE SMOOTH",
"463 0 OFFCURVE",
"565 81 OFFCURVE",
"565 219 CURVE SMOOTH",
"565 300 OFFCURVE",
"502 367 OFFCURVE",
"424 369 CURVE",
"421 352 LINE",
"510 350 OFFCURVE",
"576 424 OFFCURVE",
"576 526 CURVE SMOOTH",
"576 630 OFFCURVE",
"487 700 OFFCURVE",
"357 700 CURVE SMOOTH",
"117 700 LINE",
"19 0 LINE"
);
},
{
closed = 1;
nodes = (
"265 660 LINE",
"189 594 LINE",
"312 594 LINE SMOOTH",
"385 594 OFFCURVE",
"419 572 OFFCURVE",
"419 523 CURVE SMOOTH",
"419 445 OFFCURVE",
"380 410 OFFCURVE",
"293 410 CURVE SMOOTH",
"174 410 LINE",
"159 304 LINE",
"289 304 LINE SMOOTH",
"375 304 OFFCURVE",
"409 283 OFFCURVE",
"409 229 CURVE SMOOTH",
"409 137 OFFCURVE",
"372 106 OFFCURVE",
"264 106 CURVE SMOOTH",
"121 106 LINE",
"178 35 LINE"
);
}
);
width = 625;
},
{
anchors = (
{
name = bottom;
position = "{251, 0}";
},
{
name = top;
position = "{343, 660}";
}
);
layerId = "821A3B53-E0A3-4F70-87DD-68DD21D0650F";
paths = (
{
closed = 1;
nodes = (
"279 0 LINE SMOOTH",
"448 0 OFFCURVE",
"544 76 OFFCURVE",
"544 209 CURVE SMOOTH",
"544 297 OFFCURVE",
"481 365 OFFCURVE",
"398 367 CURVE",
"396 350 LINE",
"482 347 OFFCURVE",
"557 433 OFFCURVE",
"557 535 CURVE SMOOTH",
"557 640 OFFCURVE",
"484 700 OFFCURVE",
"357 700 CURVE SMOOTH",
"127 700 LINE",
"29 0 LINE"
);
},
{
closed = 1;
nodes = (
"196 680 LINE",
"146 640 LINE",
"349 640 LINE SMOOTH",
"442 640 OFFCURVE",
"484 607 OFFCURVE",
"484 536 CURVE SMOOTH",
"484 434 OFFCURVE",
"429 385 OFFCURVE",
"315 385 CURVE SMOOTH",
"131 385 LINE",
"123 328 LINE",
"313 328 LINE SMOOTH",
"424 328 OFFCURVE",
"472 293 OFFCURVE",
"472 211 CURVE SMOOTH",
"472 103 OFFCURVE",
"416 60 OFFCURVE",
"277 60 CURVE SMOOTH",
"64 60 LINE",
"103 15 LINE"
);
}
);
width = 615;
},
{
anchors = (
{
name = bottom;
position = "{251, 0}";
},
{
name = top;
position = "{343, 660}";
}
);
layerId = "3E05E8D4-50BE-428E-AA2A-790990B7EE87";
paths = (
{
closed = 1;
nodes = (
"269 0 LINE SMOOTH",
"453 0 OFFCURVE",
"544 70 OFFCURVE",
"544 213 CURVE SMOOTH",
"544 302 OFFCURVE",
"482 354 OFFCURVE",
"374 356 CURVE",
"373 339 LINE",
"483 341 OFFCURVE",
"557 422 OFFCURVE",
"557 540 CURVE SMOOTH",
"557 639 OFFCURVE",
"481 700 OFFCURVE",
"357 700 CURVE SMOOTH",
"127 700 LINE",
"29 0 LINE"
);
},
{
closed = 1;
nodes = (
"166 680 LINE",
"138 660 LINE",
"351 660 LINE SMOOTH",
"454 660 OFFCURVE",
"514 614 OFFCURVE",
"514 537 CURVE SMOOTH",
"514 421 OFFCURVE",
"452 366 OFFCURVE",
"322 366 CURVE SMOOTH",
"98 366 LINE",
"93 328 LINE",
"318 328 LINE SMOOTH",
"447 328 OFFCURVE",
"502 293 OFFCURVE",
"502 210 CURVE SMOOTH",
"502 94 OFFCURVE",
"426 40 OFFCURVE",
"264 40 CURVE SMOOTH",
"51 40 LINE",
"73 15 LINE"
);
}
);
width = 615;
}
);
note = B;
unicode = 0042;
},
{
color = 4;
glyphname = C;
lastChange = "2018-07-18 10:11:34 +0000";
layers = (
{
anchors = (
{
name = bottom;
position = "{352, 0}";
},
{
name = top;
position = "{352, 660}";
}
);
layerId = "5A4BD32C-A1D1-4EB1-A794-47BD06E3B809";
paths = (
{
closed = 1;
nodes = (
"450 -10 OFFCURVE",
"540 32 OFFCURVE",
"540 78 CURVE SMOOTH",
"540 96 OFFCURVE",
"527 111 OFFCURVE",
"509 112 CURVE",
"459 72 OFFCURVE",
"413 56 OFFCURVE",
"350 56 CURVE SMOOTH",
"204 56 OFFCURVE",
"126 158 OFFCURVE",
"126 350 CURVE SMOOTH",
"126 544 OFFCURVE",
"203 645 OFFCURVE",
"350 645 CURVE SMOOTH",
"400 645 OFFCURVE",
"441 632 OFFCURVE",
"478 603 CURVE SMOOTH",
"486 597 OFFCURVE",
"495 594 OFFCURVE",
"504 594 CURVE SMOOTH",
"523 594 OFFCURVE",
"538 608 OFFCURVE",
"546 633 CURVE",
"498 683 OFFCURVE",
"430 710 OFFCURVE",
"352 710 CURVE SMOOTH",
"160 710 OFFCURVE",
"52 580 OFFCURVE",
"52 350 CURVE SMOOTH",
"52 120 OFFCURVE",
"161 -10 OFFCURVE",
"352 -10 CURVE SMOOTH"
);
}
);
width = 596;
},
{
anchors = (
{
name = bottom;
position = "{372, 0}";
},
{
name = top;
position = "{372, 660}";
}
);
layerId = "FD6510A9-FDB4-489D-9A3E-85E488E95339";
paths = (
{
closed = 1;
nodes = (
"494 -10 OFFCURVE",
"590 40 OFFCURVE",
"590 99 CURVE SMOOTH",
"590 127 OFFCURVE",
"569 156 OFFCURVE",
"539 170 CURVE",
"498 125 OFFCURVE",
"440 100 OFFCURVE",
"380 100 CURVE SMOOTH",
"267 100 OFFCURVE",
"210 184 OFFCURVE",
"210 349 CURVE SMOOTH",
"210 516 OFFCURVE",
"267 600 OFFCURVE",
"380 600 CURVE SMOOTH",
"427 600 OFFCURVE",
"463 586 OFFCURVE",
"508 552 CURVE SMOOTH",
"516 546 OFFCURVE",
"524 543 OFFCURVE",
"534 543 CURVE SMOOTH",
"557 543 OFFCURVE",
"589 589 OFFCURVE",
"596 631 CURVE",
"550 679 OFFCURVE",
"466 710 OFFCURVE",
"382 710 CURVE SMOOTH",
"175 710 OFFCURVE",
"52 576 OFFCURVE",
"52 349 CURVE SMOOTH",
"52 118 OFFCURVE",
"170 -10 OFFCURVE",
"382 -10 CURVE SMOOTH"
);
}
);
width = 636;
},
{
anchors = (
{
name = bottom;
position = "{352, 0}";
},
{
name = top;
position = "{352, 660}";
}
);
layerId = "EB12C417-147C-44D3-ABF9-73FB32C0B9E2";
paths = (
{
closed = 1;
nodes = (
"445 -10 OFFCURVE",
"540 34 OFFCURVE",
"540 78 CURVE SMOOTH",
"540 88 OFFCURVE",
"533 95 OFFCURVE",
"519 96 CURVE",
"484 51 OFFCURVE",
"431 30 OFFCURVE",
"350 30 CURVE SMOOTH",
"192 30 OFFCURVE",
"96 151 OFFCURVE",
"96 350 CURVE SMOOTH",
"96 550 OFFCURVE",
"191 670 OFFCURVE",
"350 670 CURVE SMOOTH",
"408 670 OFFCURVE",
"451 655 OFFCURVE",
"499 618 CURVE SMOOTH",
"508 611 OFFCURVE",
"513 609 OFFCURVE",
"521 609 CURVE SMOOTH",
"531 609 OFFCURVE",
"542 620 OFFCURVE",
"546 633 CURVE",
"498 683 OFFCURVE",
"430 710 OFFCURVE",
"352 710 CURVE SMOOTH",
"160 710 OFFCURVE",
"52 580 OFFCURVE",
"52 350 CURVE SMOOTH",
"52 120 OFFCURVE",
"161 -10 OFFCURVE",
"352 -10 CURVE SMOOTH"
);
}
);
width = 596;
},
{
anchors = (
{
name = bottom;
position = "{315, 0}";
},
{
name = top;
position = "{407, 660}";
}
);
layerId = "CF2C6045-422A-4B78-B702-649D3D8A1FBA";
paths = (
{
closed = 1;
nodes = (
"440 -10 OFFCURVE",
"544 41 OFFCURVE",
"544 98 CURVE SMOOTH",
"544 131 OFFCURVE",
"523 155 OFFCURVE",
"493 156 CURVE",
"450 116 OFFCURVE",
"404 100 OFFCURVE",
"337 100 CURVE SMOOTH",
"243 100 OFFCURVE",
"196 162 OFFCURVE",
"196 287 CURVE SMOOTH",
"196 481 OFFCURVE",
"271 600 OFFCURVE",
"394 600 CURVE SMOOTH",
"434 600 OFFCURVE",
"463 588 OFFCURVE",
"521 547 CURVE SMOOTH",
"533 539 OFFCURVE",
"540 536 OFFCURVE",
"551 536 CURVE SMOOTH",
"573 536 OFFCURVE",
"615 584 OFFCURVE",
"627 622 CURVE",
"572 679 OFFCURVE",
"492 710 OFFCURVE",
"402 710 CURVE SMOOTH",
"174 710 OFFCURVE",
"38 552 OFFCURVE",
"38 287 CURVE SMOOTH",
"38 97 OFFCURVE",
"141 -10 OFFCURVE",
"323 -10 CURVE SMOOTH"
);
}
);
width = 636;
},
{
anchors = (
{
name = bottom;
position = "{295, 0}";
},
{
name = top;
position = "{387, 660}";
}
);
layerId = "821A3B53-E0A3-4F70-87DD-68DD21D0650F";
paths = (
{
closed = 1;
nodes = (
"398 -10 OFFCURVE",
"487 31 OFFCURVE",
"494 78 CURVE SMOOTH",
"496 97 OFFCURVE",
"484 111 OFFCURVE",
"467 112 CURVE",
"414 73 OFFCURVE",
"367 56 OFFCURVE",
"311 56 CURVE SMOOTH",
"179 56 OFFCURVE",
"112 127 OFFCURVE",
"112 268 CURVE SMOOTH",
"112 503 OFFCURVE",
"212 645 OFFCURVE",
"378 645 CURVE SMOOTH",
"425 645 OFFCURVE",
"468 631 OFFCURVE",
"508 603 CURVE SMOOTH",
"518 596 OFFCURVE",
"524 594 OFFCURVE",
"533 594 CURVE SMOOTH",
"547 594 OFFCURVE",
"562 608 OFFCURVE",
"576 633 CURVE",
"538 680 OFFCURVE",
"461 710 OFFCURVE",
"378 710 CURVE SMOOTH",
"169 710 OFFCURVE",
"37 540 OFFCURVE",
"37 272 CURVE SMOOTH",
"37 92 OFFCURVE",
"134 -10 OFFCURVE",
"303 -10 CURVE SMOOTH"
);
}
);
width = 596;
},
{
anchors = (
{
name = bottom;
position = "{295, 0}";
},
{
name = top;
position = "{387, 660}";
}
);
layerId = "3E05E8D4-50BE-428E-AA2A-790990B7EE87";
paths = (
{
closed = 1;
nodes = (
"400 -10 OFFCURVE",
"504 39 OFFCURVE",
"504 88 CURVE SMOOTH",
"504 99 OFFCURVE",
"498 105 OFFCURVE",
"485 106 CURVE",
"448 56 OFFCURVE",
"384 30 OFFCURVE",
"297 30 CURVE SMOOTH",
"162 30 OFFCURVE",
"82 119 OFFCURVE",
"82 271 CURVE SMOOTH",
"82 509 OFFCURVE",
"203 670 OFFCURVE",
"381 670 CURVE SMOOTH",
"440 670 OFFCURVE",
"486 654 OFFCURVE",
"528 618 CURVE SMOOTH",
"536 611 OFFCURVE",
"541 609 OFFCURVE",
"549 609 CURVE SMOOTH",
"559 609 OFFCURVE",
"571 619 OFFCURVE",
"577 633 CURVE",
"531 683 OFFCURVE",
"464 710 OFFCURVE",
"385 710 CURVE SMOOTH",
"171 710 OFFCURVE",
"37 537 OFFCURVE",
"37 261 CURVE SMOOTH",
"37 88 OFFCURVE",
"131 -10 OFFCURVE",
"297 -10 CURVE SMOOTH"
);
}
);
width = 596;
}
);
note = C;
unicode = 0043;
},
{
color = 4;
glyphname = D;
lastChange = "2018-07-18 10:11:34 +0000";
layers = (
{
anchors = (
{
name = bottom;
position = "{336, 0}";
},
{
name = center;
position = "{336, 350}";
},
{
name = top;
position = "{336, 660}";
}
);
layerId = "5A4BD32C-A1D1-4EB1-A794-47BD06E3B809";
paths = (
{
closed = 1;
nodes = (
"293 0 LINE SMOOTH",
"494 0 OFFCURVE",
"615 132 OFFCURVE",
"615 350 CURVE SMOOTH",
"615 575 OFFCURVE",
"500 700 OFFCURVE",
"293 700 CURVE SMOOTH",
"86 700 LINE",
"86 0 LINE"
);
},
{
closed = 1;
nodes = (
"158 685 LINE",
"113 640 LINE",
"293 640 LINE SMOOTH",
"460 640 OFFCURVE",
"541 545 OFFCURVE",
"541 349 CURVE SMOOTH",
"541 160 OFFCURVE",
"455 60 OFFCURVE",
"293 60 CURVE SMOOTH",
"113 60 LINE",
"158 15 LINE"
);
}
);
width = 672;
},
{
anchors = (
{
name = bottom;
position = "{336, 0}";
},
{
name = center;
position = "{336, 350}";
},
{
name = top;
position = "{336, 660}";
}
);
layerId = "FD6510A9-FDB4-489D-9A3E-85E488E95339";
paths = (
{
closed = 1;
nodes = (
"303 0 LINE SMOOTH",
"510 0 OFFCURVE",
"645 138 OFFCURVE",
"645 350 CURVE SMOOTH",
"645 569 OFFCURVE",
"517 700 OFFCURVE",
"303 700 CURVE SMOOTH",
"66 700 LINE",
"66 0 LINE"
);
},
{
closed = 1;
nodes = (
"220 645 LINE",
"173 594 LINE",
"283 594 LINE SMOOTH",
"421 594 OFFCURVE",
"491 512 OFFCURVE",
"491 349 CURVE SMOOTH",
"491 194 OFFCURVE",
"416 106 OFFCURVE",
"283 106 CURVE SMOOTH",
"173 106 LINE",
"220 55 LINE"
);
}
);
width = 682;
},
{
anchors = (
{
name = bottom;
position = "{336, 0}";
},
{
name = center;
position = "{336, 350}";
},
{
name = top;
position = "{336, 660}";
}
);
layerId = "EB12C417-147C-44D3-ABF9-73FB32C0B9E2";
paths = (
{
closed = 1;
nodes = (
"293 0 LINE SMOOTH",
"494 0 OFFCURVE",
"615 132 OFFCURVE",
"615 350 CURVE SMOOTH",
"615 575 OFFCURVE",
"500 700 OFFCURVE",
"293 700 CURVE SMOOTH",
"86 700 LINE",
"86 0 LINE"
);
},
{
closed = 1;
nodes = (
"128 685 LINE",
"103 660 LINE",
"293 660 LINE SMOOTH",
"474 660 OFFCURVE",
"571 551 OFFCURVE",
"571 349 CURVE SMOOTH",
"571 155 OFFCURVE",
"468 40 OFFCURVE",
"293 40 CURVE SMOOTH",
"103 40 LINE",
"128 15 LINE"
);
}
);
width = 672;
},
{
anchors = (
{
name = bottom;
position = "{279, 0}";
},
{
name = center;
position = "{328, 350}";
},
{
name = top;
position = "{370, 660}";
}
);
layerId = "CF2C6045-422A-4B78-B702-649D3D8A1FBA";
paths = (
{
closed = 1;
nodes = (
"256 0 LINE SMOOTH",
"487 0 OFFCURVE",
"642 165 OFFCURVE",
"642 410 CURVE SMOOTH",
"642 588 OFFCURVE",
"523 700 OFFCURVE",
"334 700 CURVE SMOOTH",
"107 700 LINE",
"9 0 LINE"
);
},
{
closed = 1;
nodes = (
"253 645 LINE",
"199 594 LINE",
"309 594 LINE SMOOTH",
"424 594 OFFCURVE",
"488 527 OFFCURVE",
"488 404 CURVE SMOOTH",
"488 220 OFFCURVE",
"394 106 OFFCURVE",
"241 106 CURVE SMOOTH",
"131 106 LINE",
"170 55 LINE"
);
}
);
width = 682;
},
{
anchors = (
{
name = bottom;
position = "{279, 0}";
},
{
name = center;
position = "{328, 350}";
},
{
name = top;
position = "{370, 650}";
}
);
layerId = "821A3B53-E0A3-4F70-87DD-68DD21D0650F";
paths = (
{
closed = 1;
nodes = (
"246 0 LINE SMOOTH",
"470 0 OFFCURVE",
"613 163 OFFCURVE",
"613 419 CURVE SMOOTH",
"613 597 OFFCURVE",
"511 700 OFFCURVE",
"334 700 CURVE SMOOTH",
"127 700 LINE",
"29 0 LINE"
);
},
{
closed = 1;
nodes = (
"197 685 LINE",
"146 640 LINE",
"326 640 LINE SMOOTH",
"466 640 OFFCURVE",
"539 564 OFFCURVE",
"539 418 CURVE SMOOTH",
"539 192 OFFCURVE",
"430 60 OFFCURVE",
"244 60 CURVE SMOOTH",
"64 60 LINE",
"103 15 LINE"
);
}
);
width = 672;
},
{
anchors = (
{
name = bottom;
position = "{279, 0}";
},
{
name = center;
position = "{328, 350}";
},
{
name = top;
position = "{370, 650}";
}
);
layerId = "3E05E8D4-50BE-428E-AA2A-790990B7EE87";
paths = (
{
closed = 1;
nodes = (
"246 0 LINE SMOOTH",
"470 0 OFFCURVE",
"613 162 OFFCURVE",
"613 414 CURVE SMOOTH",
"613 593 OFFCURVE",
"505 700 OFFCURVE",
"324 700 CURVE SMOOTH",
"127 700 LINE",
"29 0 LINE"
);
},
{
closed = 1;
nodes = (
"167 685 LINE",
"138 660 LINE",
"328 660 LINE SMOOTH",
"481 660 OFFCURVE",
"569 570 OFFCURVE",
"569 414 CURVE SMOOTH",
"569 185 OFFCURVE",
"441 40 OFFCURVE",
"241 40 CURVE SMOOTH",
"51 40 LINE",
"73 15 LINE"
);
}
);
width = 672;
}
);
note = D;
unicode = 0044;
},
{
color = 4;
glyphname = E;
lastChange = "2018-07-18 10:11:34 +0000";
layers = (
{
anchors = (
{
name = bottom;
position = "{280, 0}";
},
{
name = ogonek;
position = "{504, 10}";
},
{
name = top;
position = "{280, 660}";
},
{
name = topleft;
position = "{20, 700}";
}
);
layerId = "5A4BD32C-A1D1-4EB1-A794-47BD06E3B809";
paths = (
{
closed = 1;
nodes = (
"453 0 LINE SMOOTH",
"495 0 OFFCURVE",
"505 12 OFFCURVE",
"505 60 CURVE",
"113 60 LINE",
"158 15 LINE",
"158 685 LINE",
"113 640 LINE",
"504 640 LINE",
"504 700 LINE",
"86 700 LINE",
"86 0 LINE"
);
},
{
closed = 1;
nodes = (
"456 328 LINE",
"456 388 LINE",
"123 388 LINE",
"123 328 LINE"
);
}
);
width = 560;
},
{
anchors = (
{
name = bottom;
position = "{280, 0}";
},
{
name = ogonek;
position = "{504, 10}";
},
{
name = top;
position = "{280, 660}";
},
{
name = topleft;
position = "{20, 700}";
}
);
layerId = "FD6510A9-FDB4-489D-9A3E-85E488E95339";
paths = (
{
closed = 1;
nodes = (
"463 0 LINE SMOOTH",
"503 0 OFFCURVE",
"515 24 OFFCURVE",
"515 106 CURVE",
"163 106 LINE",
"220 45 LINE",
"220 655 LINE",
"163 594 LINE",
"504 594 LINE",
"504 700 LINE",
"66 700 LINE",
"66 0 LINE"
);
},
{
closed = 1;
nodes = (
"456 308 LINE",
"456 414 LINE",
"173 414 LINE",
"173 308 LINE"
);
}
);
width = 560;
},
{
anchors = (
{
name = bottom;
position = "{280, 0}";
},
{
name = ogonek;
position = "{504, 10}";
},
{
name = top;
position = "{295, 660}";
},
{
name = topleft;
position = "{20, 700}";
}
);
layerId = "EB12C417-147C-44D3-ABF9-73FB32C0B9E2";
paths = (
{
closed = 1;
nodes = (
"477 0 LINE SMOOTH",
"499 0 OFFCURVE",
"505 12 OFFCURVE",
"505 40 CURVE",
"103 40 LINE",
"128 15 LINE",
"128 685 LINE",
"103 660 LINE",
"504 660 LINE",
"504 700 LINE",
"86 700 LINE",
"86 0 LINE"
);
},
{
closed = 1;
nodes = (
"456 348 LINE",
"456 388 LINE",
"113 388 LINE",
"113 348 LINE"
);
}
);
width = 560;
},
{
anchors = (
{
name = bottom;
position = "{223, 0}";
},
{
name = ogonek;
position = "{448, 10}";
},
{
name = top;
position = "{317, 660}";
},
{
name = topleft;
position = "{61, 700}";
}
);
layerId = "CF2C6045-422A-4B78-B702-649D3D8A1FBA";
paths = (
{
closed = 1;
nodes = (
"406 0 LINE SMOOTH",
"448 0 OFFCURVE",
"462 28 OFFCURVE",
"473 106 CURVE",
"121 106 LINE",
"169 45 LINE",
"255 655 LINE",
"189 594 LINE",
"530 594 LINE",
"545 700 LINE",
"107 700 LINE",
"9 0 LINE"
);
},
{
closed = 1;
nodes = (
"442 308 LINE",
"457 414 LINE",
"174 414 LINE",
"159 308 LINE"
);
}
);
width = 560;
},
{
anchors = (
{
name = bottom;
position = "{223, 0}";
},
{
name = ogonek;
position = "{448, 10}";
},
{
name = top;
position = "{317, 670}";
},
{
name = topleft;
position = "{61, 700}";
}
);
layerId = "821A3B53-E0A3-4F70-87DD-68DD21D0650F";
paths = (
{
closed = 1;
nodes = (
"396 0 LINE SMOOTH",
"438 0 OFFCURVE",
"449 11 OFFCURVE",
"456 60 CURVE",
"64 60 LINE",
"103 15 LINE",
"197 685 LINE",
"146 640 LINE",
"537 640 LINE",
"545 700 LINE",
"127 700 LINE",
"29 0 LINE"
);
},
{
closed = 1;
nodes = (
"445 328 LINE",
"453 388 LINE",
"120 388 LINE",
"112 328 LINE"
);
}
);
width = 560;
},
{
anchors = (
{
name = bottom;
position = "{223, 0}";
},
{
name = ogonek;
position = "{448, 10}";
},
{
name = top;
position = "{317, 670}";
},
{
name = topleft;
position = "{61, 700}";
}
);
layerId = "3E05E8D4-50BE-428E-AA2A-790990B7EE87";
paths = (
{
closed = 1;
nodes = (
"420 0 LINE SMOOTH",
"442 0 OFFCURVE",
"449 12 OFFCURVE",
"453 40 CURVE",
"51 40 LINE",
"73 15 LINE",
"167 685 LINE",
"138 660 LINE",
"539 660 LINE",
"545 700 LINE",
"127 700 LINE",
"29 0 LINE"
);
},
{
closed = 1;
nodes = (
"448 348 LINE",
"453 388 LINE",
"110 388 LINE",
"105 348 LINE"
);
}
);
width = 560;
}
);
note = E;
unicode = 0045;
},
{
color = 4;
glyphname = F;
lastChange = "2018-07-18 10:11:34 +0000";
layers = (
{
anchors = (
{
name = bottom;
position = "{122, 0}";
},
{
name = top;
position = "{292, 660}";
}
);
layerId = "5A4BD32C-A1D1-4EB1-A794-47BD06E3B809";
paths = (
{
closed = 1;
nodes = (
"158 0 LINE",
"158 685 LINE",
"113 640 LINE",
"498 640 LINE",
"498 700 LINE",
"86 700 LINE",
"86 0 LINE"
);
},
{
closed = 1;
nodes = (
"455 333 LINE",
"455 393 LINE",
"133 393 LINE",
"133 333 LINE"
);
}
);
width = 530;
},
{
anchors = (
{
name = bottom;
position = "{122, 0}";
},
{
name = top;
position = "{292, 660}";
}
);
layerId = "FD6510A9-FDB4-489D-9A3E-85E488E95339";
paths = (
{
closed = 1;
nodes = (
"220 0 LINE",
"220 655 LINE",
"163 594 LINE",
"498 594 LINE",
"498 700 LINE",
"66 700 LINE",
"66 0 LINE"
);
},
{
closed = 1;
nodes = (
"455 303 LINE",
"455 409 LINE",
"133 409 LINE",
"133 303 LINE"
);
}
);
width = 530;
},
{
anchors = (
{
name = bottom;
position = "{122, 0}";
},
{
name = top;
position = "{292, 660}";
}
);
layerId = "EB12C417-147C-44D3-ABF9-73FB32C0B9E2";
paths = (
{
closed = 1;
nodes = (
"128 0 LINE",
"128 685 LINE",
"103 660 LINE",
"498 660 LINE",
"498 700 LINE",
"86 700 LINE",
"86 0 LINE"
);
},
{
closed = 1;
nodes = (
"455 333 LINE",
"455 373 LINE",
"103 373 LINE",
"103 333 LINE"
);
}
);
width = 530;
},
{
anchors = (
{
name = bottom;
position = "{65, 0}";
},
{
name = top;
position = "{327, 660}";
}
);
layerId = "CF2C6045-422A-4B78-B702-649D3D8A1FBA";
paths = (
{
closed = 1;
nodes = (
"163 0 LINE",
"255 655 LINE",
"189 594 LINE",
"524 594 LINE",
"539 700 LINE",
"107 700 LINE",
"9 0 LINE"
);
},
{
closed = 1;
nodes = (
"440 303 LINE",
"455 409 LINE",
"133 409 LINE",
"118 303 LINE"
);
}
);
width = 530;
},
{
anchors = (
{
name = bottom;
position = "{65, 0}";
},
{
name = top;
position = "{327, 660}";
}
);
layerId = "821A3B53-E0A3-4F70-87DD-68DD21D0650F";
paths = (
{
closed = 1;
nodes = (
"101 0 LINE",
"197 685 LINE",
"146 640 LINE",
"531 640 LINE",
"539 700 LINE",
"127 700 LINE",
"29 0 LINE"
);
},
{
closed = 1;
nodes = (
"445 333 LINE",
"453 393 LINE",
"131 393 LINE",
"123 333 LINE"
);
}
);
width = 530;
},
{
anchors = (
{
name = bottom;
position = "{65, 0}";
},
{
name = top;
position = "{327, 660}";
}
);
layerId = "3E05E8D4-50BE-428E-AA2A-790990B7EE87";
paths = (
{
closed = 1;
nodes = (
"71 0 LINE",
"167 685 LINE",
"138 660 LINE",
"533 660 LINE",
"539 700 LINE",
"127 700 LINE",
"29 0 LINE"
);
},
{
closed = 1;
nodes = (
"445 333 LINE",
"450 373 LINE",
"98 373 LINE",
"93 333 LINE"
);
}
);
width = 530;
}
);
note = F;
unicode = 0046;
},
{
color = 4;
glyphname = G;
lastChange = "2018-07-18 10:11:34 +0000";
layers = (
{
anchors = (
{
name = bottom;
position = "{377, 0}";
},
{
name = top;
position = "{377, 660}";
}
);
layerId = "5A4BD32C-A1D1-4EB1-A794-47BD06E3B809";
paths = (
{
closed = 1;
nodes = (
"466 -10 OFFCURVE",
"555 22 OFFCURVE",
"604 73 CURVE",
"604 373 LINE",
"354 373 LINE",
"354 328 OFFCURVE",
"364 311 OFFCURVE",
"391 311 CURVE SMOOTH",
"577 311 LINE",
"532 356 LINE",
"532 101 LINE",
"505 72 OFFCURVE",
"443 53 OFFCURVE",
"376 53 CURVE SMOOTH",
"215 53 OFFCURVE",
"136 150 OFFCURVE",
"136 350 CURVE SMOOTH",
"136 544 OFFCURVE",
"219 647 OFFCURVE",
"376 647 CURVE SMOOTH",
"434 647 OFFCURVE",
"478 631 OFFCURVE",
"524 592 CURVE SMOOTH",
"535 583 OFFCURVE",
"546 578 OFFCURVE",
"557 578 CURVE SMOOTH",
"573 578 OFFCURVE",
"588 590 OFFCURVE",
"601 613 CURVE",
"560 672 OFFCURVE",
"472 710 OFFCURVE",
"377 710 CURVE SMOOTH",
"175 710 OFFCURVE",
"62 581 OFFCURVE",
"62 350 CURVE SMOOTH",
"62 114 OFFCURVE",
"170 -10 OFFCURVE",
"377 -10 CURVE SMOOTH"
);
}
);
width = 666;
},
{
anchors = (
{
name = bottom;
position = "{377, 0}";
},
{
name = top;
position = "{377, 660}";
}
);
layerId = "FD6510A9-FDB4-489D-9A3E-85E488E95339";
paths = (
{
closed = 1;
nodes = (
"490 -10 OFFCURVE",
"573 17 OFFCURVE",
"634 73 CURVE",
"634 384 LINE",
"364 384 LINE",
"364 306 OFFCURVE",
"379 278 OFFCURVE",
"421 278 CURVE SMOOTH",
"587 278 LINE",
"482 367 LINE",
"482 122 LINE",
"463 108 OFFCURVE",
"426 100 OFFCURVE",
"380 100 CURVE SMOOTH",
"267 100 OFFCURVE",
"210 184 OFFCURVE",
"210 350 CURVE SMOOTH",
"210 513 OFFCURVE",
"273 600 OFFCURVE",
"390 600 CURVE SMOOTH",
"444 600 OFFCURVE",
"489 587 OFFCURVE",
"535 558 CURVE SMOOTH",
"548 550 OFFCURVE",
"553 548 OFFCURVE",
"563 548 CURVE SMOOTH",
"583 548 OFFCURVE",
"620 596 OFFCURVE",
"631 637 CURVE",
"576 685 OFFCURVE",
"493 710 OFFCURVE",
"392 710 CURVE SMOOTH",
"186 710 OFFCURVE",
"52 569 OFFCURVE",
"52 350 CURVE SMOOTH",
"52 113 OFFCURVE",
"165 -10 OFFCURVE",
"382 -10 CURVE SMOOTH"
);
}
);
width = 686;
},
{
anchors = (
{
name = bottom;
position = "{377, 0}";
},
{
name = top;
position = "{377, 660}";
}
);
layerId = "EB12C417-147C-44D3-ABF9-73FB32C0B9E2";
paths = (
{
closed = 1;
nodes = (
"466 -10 OFFCURVE",
"555 22 OFFCURVE",
"604 73 CURVE",
"604 363 LINE",
"354 363 LINE",
"354 333 OFFCURVE",
"362 323 OFFCURVE",
"385 323 CURVE SMOOTH",
"577 323 LINE",
"562 346 LINE",
"562 96 LINE",
"521 54 OFFCURVE",
"454 30 OFFCURVE",
"375 30 CURVE SMOOTH",
"203 30 OFFCURVE",
"106 145 OFFCURVE",
"106 350 CURVE SMOOTH",
"106 556 OFFCURVE",
"202 670 OFFCURVE",
"375 670 CURVE SMOOTH",
"450 670 OFFCURVE",
"508 653 OFFCURVE",
"554 618 CURVE SMOOTH",
"563 611 OFFCURVE",
"568 609 OFFCURVE",
"576 609 CURVE SMOOTH",
"586 609 OFFCURVE",
"597 620 OFFCURVE",
"601 633 CURVE",
"553 683 OFFCURVE",
"474 710 OFFCURVE",
"377 710 CURVE SMOOTH",
"180 710 OFFCURVE",
"62 575 OFFCURVE",
"62 350 CURVE SMOOTH",
"62 125 OFFCURVE",
"180 -10 OFFCURVE",
"377 -10 CURVE SMOOTH"
);
}
);
width = 666;
},
{
anchors = (
{
name = bottom;
position = "{320, 0}";
},
{
name = top;
position = "{412, 660}";
}
);
layerId = "CF2C6045-422A-4B78-B702-649D3D8A1FBA";
paths = (
{
closed = 1;
nodes = (
"439 -10 OFFCURVE",
"516 15 OFFCURVE",
"587 73 CURVE",
"631 384 LINE",
"361 384 LINE",
"358 367 OFFCURVE",
"357 351 OFFCURVE",
"357 335 CURVE SMOOTH",
"357 295 OFFCURVE",
"371 278 OFFCURVE",
"403 278 CURVE SMOOTH",
"569 278 LINE",
"476 367 LINE",
"442 122 LINE",
"421 108 OFFCURVE",
"383 100 OFFCURVE",
"337 100 CURVE SMOOTH",
"246 100 OFFCURVE",
"196 164 OFFCURVE",
"196 280 CURVE SMOOTH",
"196 483 OFFCURVE",
"273 600 OFFCURVE",
"407 600 CURVE SMOOTH",
"459 600 OFFCURVE",
"512 583 OFFCURVE",
"556 553 CURVE SMOOTH",
"568 545 OFFCURVE",
"572 543 OFFCURVE",
"582 543 CURVE SMOOTH",
"602 543 OFFCURVE",
"645 590 OFFCURVE",
"663 632 CURVE",
"615 679 OFFCURVE",
"516 710 OFFCURVE",
"414 710 CURVE SMOOTH",
"179 710 OFFCURVE",
"37 549 OFFCURVE",
"37 281 CURVE SMOOTH",
"37 104 OFFCURVE",
"153 -10 OFFCURVE",
"333 -10 CURVE SMOOTH"
);
}
);
width = 686;
},
{
anchors = (
{
name = bottom;
position = "{320, 0}";
},
{
name = top;
position = "{412, 660}";
}
);
layerId = "821A3B53-E0A3-4F70-87DD-68DD21D0650F";
paths = (
{
closed = 1;
nodes = (
"422 -10 OFFCURVE",
"505 20 OFFCURVE",
"557 73 CURVE",
"599 373 LINE",
"349 373 LINE",
"347 360 OFFCURVE",
"347 354 OFFCURVE",
"347 347 CURVE SMOOTH",
"347 321 OFFCURVE",
"355 311 OFFCURVE",
"377 311 CURVE SMOOTH",
"563 311 LINE",
"525 356 LINE",
"489 103 LINE",
"455 71 OFFCURVE",
"396 53 OFFCURVE",
"326 53 CURVE SMOOTH",
"191 53 OFFCURVE",
"121 131 OFFCURVE",
"121 279 CURVE SMOOTH",
"121 509 OFFCURVE",
"227 647 OFFCURVE",
"405 647 CURVE SMOOTH",
"465 647 OFFCURVE",
"511 629 OFFCURVE",
"554 590 CURVE SMOOTH",
"564 581 OFFCURVE",
"571 578 OFFCURVE",
"584 578 CURVE SMOOTH",
"597 578 OFFCURVE",
"610 588 OFFCURVE",
"629 613 CURVE",
"594 671 OFFCURVE",
"505 710 OFFCURVE",
"410 710 CURVE SMOOTH",
"184 710 OFFCURVE",
"47 548 OFFCURVE",
"47 279 CURVE SMOOTH",
"47 94 OFFCURVE",
"148 -10 OFFCURVE",
"328 -10 CURVE SMOOTH"
);
}
);
width = 666;
},
{
anchors = (
{
name = bottom;
position = "{320, 0}";
},
{
name = top;
position = "{412, 660}";
}
);
layerId = "3E05E8D4-50BE-428E-AA2A-790990B7EE87";
paths = (
{
closed = 1;
nodes = (
"426 -10 OFFCURVE",
"512 31 OFFCURVE",
"557 71 CURVE",
"598 363 LINE",
"348 363 LINE",
"347 357 OFFCURVE",
"347 352 OFFCURVE",
"347 348 CURVE SMOOTH",
"347 331 OFFCURVE",
"353 323 OFFCURVE",
"373 323 CURVE SMOOTH",
"565 323 LINE",
"553 346 LINE",
"518 94 LINE",
"480 60 OFFCURVE",
"417 30 OFFCURVE",
"322 30 CURVE SMOOTH",
"196 30 OFFCURVE",
"92 101 OFFCURVE",
"92 289 CURVE SMOOTH",
"92 496 OFFCURVE",
"193 670 OFFCURVE",
"411 670 CURVE SMOOTH",
"511 670 OFFCURVE",
"556 641 OFFCURVE",
"583 618 CURVE SMOOTH",
"590 612 OFFCURVE",
"595 609 OFFCURVE",
"604 609 CURVE SMOOTH",
"613 609 OFFCURVE",
"626 619 OFFCURVE",
"632 633 CURVE",
"590 680 OFFCURVE",
"513 710 OFFCURVE",
"412 710 CURVE SMOOTH",
"173 710 OFFCURVE",
"48 523 OFFCURVE",
"48 288 CURVE SMOOTH",
"48 83 OFFCURVE",
"166 -10 OFFCURVE",
"318 -10 CURVE SMOOTH"
);
}
);
width = 666;
}
);
note = G;
unicode = 0047;
},
{
color = 4;
glyphname = H;
lastChange = "2018-07-18 10:11:34 +0000";
layers = (
{
anchors = (
{
name = bottom;
position = "{340, 0}";
},
{
name = center;
position = "{340, 350}";
},
{
name = top;
position = "{340, 660}";
},
{
name = topleft;
position = "{20, 700}";
}
);
layerId = "5A4BD32C-A1D1-4EB1-A794-47BD06E3B809";
paths = (
{
closed = 1;
nodes = (
"594 0 LINE",
"594 700 LINE",
"522 700 LINE",
"522 0 LINE"
);
},
{
closed = 1;
nodes = (
"158 0 LINE",
"158 700 LINE",
"86 700 LINE",
"86 0 LINE"
);
},
{
closed = 1;
nodes = (
"547 330 LINE",
"547 390 LINE",
"133 390 LINE",
"133 330 LINE"
);
}
);
width = 680;
},
{
anchors = (
{
name = bottom;
position = "{350, 0}";
},
{
name = center;
position = "{350, 350}";
},
{
name = top;
position = "{350, 660}";
},
{
name = topleft;
position = "{30, 700}";
}
);
layerId = "FD6510A9-FDB4-489D-9A3E-85E488E95339";
paths = (
{
closed = 1;
nodes = (
"634 0 LINE",
"634 700 LINE",
"480 700 LINE",
"480 0 LINE"
);
},
{
closed = 1;
nodes = (
"220 0 LINE",
"220 700 LINE",
"66 700 LINE",
"66 0 LINE"
);
},
{
closed = 1;
nodes = (
"587 300 LINE",
"587 410 LINE",
"113 410 LINE",
"113 300 LINE"
);
}
);
width = 700;
},
{
anchors = (
{
name = bottom;
position = "{340, 0}";
},
{
name = center;
position = "{340, 350}";
},
{
name = top;
position = "{340, 660}";
},
{
name = topleft;
position = "{20, 700}";
}
);
layerId = "EB12C417-147C-44D3-ABF9-73FB32C0B9E2";
paths = (
{
closed = 1;
nodes = (
"594 0 LINE",
"594 700 LINE",
"550 700 LINE",
"550 0 LINE"
);
},
{
closed = 1;
nodes = (
"130 0 LINE",
"130 700 LINE",
"86 700 LINE",
"86 0 LINE"
);
},
{
closed = 1;
nodes = (
"577 350 LINE",
"577 388 LINE",
"103 388 LINE",
"103 350 LINE"
);
}
);
width = 680;
},
{
anchors = (
{
name = bottom;
position = "{293, 0}";
},
{
name = center;
position = "{342, 350}";
},
{
name = top;
position = "{385, 660}";
},
{
name = topleft;
position = "{71, 700}";
}
);
layerId = "CF2C6045-422A-4B78-B702-649D3D8A1FBA";
paths = (
{
closed = 1;
nodes = (
"577 0 LINE",
"675 700 LINE",
"521 700 LINE",
"423 0 LINE"
);
},
{
closed = 1;
nodes = (
"163 0 LINE",
"261 700 LINE",
"107 700 LINE",
"9 0 LINE"
);
},
{
closed = 1;
nodes = (
"572 300 LINE",
"587 410 LINE",
"113 410 LINE",
"98 300 LINE"
);
}
);
width = 700;
},
{
anchors = (
{
name = bottom;
position = "{283, 0}";
},
{
name = center;
position = "{332, 350}";
},
{
name = top;
position = "{374, 650}";
},
{
name = topleft;
position = "{61, 700}";
}
);
layerId = "821A3B53-E0A3-4F70-87DD-68DD21D0650F";
paths = (
{
closed = 1;
nodes = (
"537 0 LINE",
"635 700 LINE",
"563 700 LINE",
"465 0 LINE"
);
},
{
closed = 1;
nodes = (
"101 0 LINE",
"199 700 LINE",
"127 700 LINE",
"29 0 LINE"
);
},
{
closed = 1;
nodes = (
"536 330 LINE",
"545 390 LINE",
"131 390 LINE",
"122 330 LINE"
);
}
);
width = 680;
},
{
anchors = (
{
name = bottom;
position = "{283, 0}";
},
{
name = center;
position = "{332, 350}";
},
{
name = top;
position = "{374, 650}";
},
{
name = topleft;
position = "{61, 700}";
}
);
layerId = "3E05E8D4-50BE-428E-AA2A-790990B7EE87";
paths = (
{
closed = 1;
nodes = (
"537 0 LINE",
"635 700 LINE",
"591 700 LINE",
"493 0 LINE"
);
},
{
closed = 1;
nodes = (
"73 0 LINE",
"171 700 LINE",
"127 700 LINE",
"29 0 LINE"
);
},
{
closed = 1;
nodes = (
"569 350 LINE",
"574 388 LINE",
"100 388 LINE",
"95 350 LINE"
);
}
);
width = 680;
}
);
note = H;
unicode = 0048;
},
{
color = 4;
glyphname = I;
lastChange = "2018-07-18 10:11:34 +0000";
layers = (
{
anchors = (
{
name = bottom;
position = "{175, 0}";
},
{
name = ogonek;
position = "{246, 10}";
},
{
name = top;
position = "{175, 660}";
},
{
name = topleft;
position = "{0, 700}";
}
);
layerId = "5A4BD32C-A1D1-4EB1-A794-47BD06E3B809";
paths = (
{
closed = 1;
nodes = (
"211 0 LINE",
"211 700 LINE",
"139 700 LINE",
"139 0 LINE"
);
}
);
width = 350;
},
{
anchors = (
{
name = bottom;
position = "{175, 0}";
},
{
name = ogonek;
position = "{246, 10}";
},
{
name = top;
position = "{175, 660}";
},
{
name = topleft;
position = "{0, 700}";
}
);
layerId = "FD6510A9-FDB4-489D-9A3E-85E488E95339";
paths = (
{
closed = 1;
nodes = (
"252 0 LINE",
"252 700 LINE",
"98 700 LINE",
"98 0 LINE"
);
}
);
width = 350;
},
{
anchors = (
{
name = bottom;
position = "{175, 0}";
},
{
name = ogonek;
position = "{246, 10}";
},
{
name = top;
position = "{175, 660}";
},
{
name = topleft;
position = "{0, 700}";
}
);
layerId = "EB12C417-147C-44D3-ABF9-73FB32C0B9E2";
paths = (
{
closed = 1;
nodes = (
"196 0 LINE",
"196 700 LINE",
"154 700 LINE",
"154 0 LINE"
);
}
);
width = 350;
},
{
anchors = (
{
name = bottom;
position = "{118, 0}";
},
{
name = ogonek;
position = "{190, 10}";
},
{
name = top;
position = "{210, 660}";
},
{
name = topleft;
position = "{41, 700}";
}
);
layerId = "CF2C6045-422A-4B78-B702-649D3D8A1FBA";
paths = (
{
closed = 1;
nodes = (
"195 0 LINE",
"293 700 LINE",
"139 700 LINE",
"41 0 LINE"
);
}
);
width = 350;
},
{
anchors = (
{
name = bottom;
position = "{118, 0}";
},
{
name = ogonek;
position = "{190, 10}";
},
{
name = top;
position = "{210, 660}";
},
{
name = topleft;
position = "{41, 700}";
}
);
layerId = "821A3B53-E0A3-4F70-87DD-68DD21D0650F";
paths = (
{
closed = 1;
nodes = (
"154 0 LINE",
"252 700 LINE",
"180 700 LINE",
"82 0 LINE"
);
}
);
width = 350;
},
{
anchors = (
{
name = bottom;
position = "{118, 0}";
},
{
name = ogonek;
position = "{190, 10}";
},
{
name = top;
position = "{210, 660}";
},
{
name = topleft;
position = "{41, 700}";
}
);
layerId = "3E05E8D4-50BE-428E-AA2A-790990B7EE87";
paths = (
{
closed = 1;
nodes = (
"139 0 LINE",
"237 700 LINE",
"195 700 LINE",
"97 0 LINE"
);
}
);
width = 350;
}
);
note = I;
unicode = 0049;
},
{
color = 4;
glyphname = J;
lastChange = "2018-07-18 10:11:34 +0000";
layers = (
{
anchors = (
{
name = bottom;
position = "{214, 0}";
},
{
name = top;
position = "{303, 660}";
}
);
layerId = "5A4BD32C-A1D1-4EB1-A794-47BD06E3B809";
paths = (
{
closed = 1;
nodes = (
"266 -10 OFFCURVE",
"339 63 OFFCURVE",
"339 183 CURVE SMOOTH",
"339 700 LINE",
"267 700 LINE",
"267 183 LINE SMOOTH",
"267 96 OFFCURVE",
"227 52 OFFCURVE",
"149 52 CURVE SMOOTH",
"99 52 OFFCURVE",
"63 70 OFFCURVE",
"51 70 CURVE SMOOTH",
"37 70 OFFCURVE",
"24 55 OFFCURVE",
"24 17 CURVE",
"46 5 OFFCURVE",
"99 -10 OFFCURVE",
"147 -10 CURVE SMOOTH"
);
}
);
width = 427;
},
{
anchors = (
{
name = bottom;
position = "{224, 0}";
},
{
name = top;
position = "{310, 660}";
}
);
layerId = "FD6510A9-FDB4-489D-9A3E-85E488E95339";
paths = (
{
closed = 1;
nodes = (
"296 -10 OFFCURVE",
"387 74 OFFCURVE",
"387 193 CURVE SMOOTH",
"387 700 LINE",
"233 700 LINE",
"233 193 LINE SMOOTH",
"233 133 OFFCURVE",
"204 100 OFFCURVE",
"149 100 CURVE SMOOTH",
"99 100 OFFCURVE",
"78 114 OFFCURVE",
"51 114 CURVE SMOOTH",
"32 114 OFFCURVE",
"14 98 OFFCURVE",
"14 17 CURVE",
"36 5 OFFCURVE",
"109 -10 OFFCURVE",
"167 -10 CURVE SMOOTH"
);
}
);
width = 447;
},
{
anchors = (
{
name = bottom;
position = "{214, 0}";
},
{
name = top;
position = "{318, 660}";
}
);
layerId = "EB12C417-147C-44D3-ABF9-73FB32C0B9E2";
paths = (
{
closed = 1;
nodes = (
"271 -10 OFFCURVE",
"339 58 OFFCURVE",
"339 183 CURVE SMOOTH",
"339 700 LINE",
"297 700 LINE",
"297 183 LINE SMOOTH",
"297 78 OFFCURVE",
"249 28 OFFCURVE",
"149 28 CURVE SMOOTH",
"99 28 OFFCURVE",
"56 49 OFFCURVE",
"41 49 CURVE SMOOTH",
"27 49 OFFCURVE",
"24 31 OFFCURVE",
"24 17 CURVE",
"46 5 OFFCURVE",
"89 -10 OFFCURVE",
"147 -10 CURVE SMOOTH"
);
}
);
width = 427;
},
{
anchors = (
{
name = bottom;
position = "{167, 0}";
},
{
name = top;
position = "{345, 660}";
}
);
layerId = "CF2C6045-422A-4B78-B702-649D3D8A1FBA";
paths = (
{
closed = 1;
nodes = (
"237 -10 OFFCURVE",
"340 74 OFFCURVE",
"357 193 CURVE SMOOTH",
"428 700 LINE",
"274 700 LINE",
"203 193 LINE SMOOTH",
"195 133 OFFCURVE",
"161 100 OFFCURVE",
"106 100 CURVE SMOOTH",
"56 100 OFFCURVE",
"37 114 OFFCURVE",
"10 114 CURVE SMOOTH",
"-9 114 OFFCURVE",
"-30 98 OFFCURVE",
"-41 17 CURVE",
"-21 5 OFFCURVE",
"50 -10 OFFCURVE",
"108 -10 CURVE SMOOTH"
);
}
);
width = 447;
},
{
anchors = (
{
name = bottom;
position = "{157, 0}";
},
{
name = top;
position = "{338, 660}";
}
);
layerId = "821A3B53-E0A3-4F70-87DD-68DD21D0650F";
paths = (
{
closed = 1;
nodes = (
"208 -10 OFFCURVE",
"291 64 OFFCURVE",
"307 183 CURVE SMOOTH",
"380 700 LINE",
"308 700 LINE",
"235 183 LINE SMOOTH",
"224 96 OFFCURVE",
"178 52 OFFCURVE",
"99 52 CURVE SMOOTH",
"49 52 OFFCURVE",
"16 70 OFFCURVE",
"4 70 CURVE SMOOTH",
"-10 70 OFFCURVE",
"-26 55 OFFCURVE",
"-31 17 CURVE",
"-11 5 OFFCURVE",
"40 -10 OFFCURVE",
"88 -10 CURVE SMOOTH"
);
}
);
width = 427;
},
{
anchors = (
{
name = bottom;
position = "{157, 0}";
},
{
name = top;
position = "{338, 660}";
}
);
layerId = "3E05E8D4-50BE-428E-AA2A-790990B7EE87";
paths = (
{
closed = 1;
nodes = (
"218 -10 OFFCURVE",
"291 64 OFFCURVE",
"307 183 CURVE SMOOTH",
"380 700 LINE",
"338 700 LINE",
"265 183 LINE SMOOTH",
"251 80 OFFCURVE",
"198 28 OFFCURVE",
"96 28 CURVE SMOOTH",
"46 28 OFFCURVE",
"6 49 OFFCURVE",
"-9 49 CURVE SMOOTH",
"-23 49 OFFCURVE",
"-29 31 OFFCURVE",
"-31 17 CURVE",
"-11 5 OFFCURVE",
"30 -10 OFFCURVE",
"88 -10 CURVE SMOOTH"
);
}
);
width = 427;
}
);
note = J;
unicode = 004A;
},
{
color = 4;
glyphname = K;
lastChange = "2018-07-18 10:11:34 +0000";
layers = (
{
anchors = (
{
name = bottom;
position = "{305, 0}";
},
{
name = top;
position = "{323, 660}";
}
);
layerId = "5A4BD32C-A1D1-4EB1-A794-47BD06E3B809";
paths = (
{
closed = 1;
nodes = (
"557 -8 OFFCURVE",
"572 -4 OFFCURVE",
"585 3 CURVE",
"402 289 LINE SMOOTH",
"354 363 OFFCURVE",
"307 392 OFFCURVE",
"231 392 CURVE SMOOTH",
"131 392 LINE",
"131 330 LINE",
"211 330 LINE SMOOTH",
"284 330 OFFCURVE",
"310 317 OFFCURVE",
"340 268 CURVE SMOOTH",
"492 22 LINE SMOOTH",
"506 0 OFFCURVE",
"518 -8 OFFCURVE",
"542 -8 CURVE SMOOTH"
);
},
{
closed = 1;
nodes = (
"172 0 LINE",
"172 700 LINE",
"100 700 LINE",
"100 0 LINE"
);
},
{
closed = 1;
nodes = (
"577 700 LINE",
"494 700 LINE",
"239 366 LINE",
"301 344 LINE"
);
}
);
width = 610;
},
{
anchors = (
{
name = bottom;
position = "{305, 0}";
},
{
name = top;
position = "{348, 660}";
}
);
layerId = "FD6510A9-FDB4-489D-9A3E-85E488E95339";
paths = (
{
closed = 1;
nodes = (
"601 -10 OFFCURVE",
"637 -5 OFFCURVE",
"655 5 CURVE",
"492 279 LINE SMOOTH",
"442 365 OFFCURVE",
"381 402 OFFCURVE",
"291 402 CURVE SMOOTH",
"131 402 LINE",
"131 300 LINE",
"251 300 LINE SMOOTH",
"304 300 OFFCURVE",
"314 294 OFFCURVE",
"348 238 CURVE SMOOTH",
"480 22 LINE SMOOTH",
"493 0 OFFCURVE",
"517 -10 OFFCURVE",
"555 -10 CURVE SMOOTH"
);
},
{
closed = 1;
nodes = (
"244 0 LINE",
"244 700 LINE",
"90 700 LINE",
"90 0 LINE"
);
},
{
closed = 1;
nodes = (
"647 700 LINE",
"484 700 LINE",
"259 356 LINE",
"383 314 LINE"
);
}
);
width = 670;
},
{
anchors = (
{
name = bottom;
position = "{305, 0}";
},
{
name = top;
position = "{305, 660}";
}
);
layerId = "EB12C417-147C-44D3-ABF9-73FB32C0B9E2";
paths = (
{
closed = 1;
nodes = (
"567 -8 OFFCURVE",
"579 -3 OFFCURVE",
"585 3 CURVE",
"397 286 LINE SMOOTH",
"353 353 OFFCURVE",
"311 377 OFFCURVE",
"242 377 CURVE SMOOTH",
"126 377 LINE",
"126 339 LINE",
"227 339 LINE SMOOTH",
"302 339 OFFCURVE",
"322 329 OFFCURVE",
"361 269 CURVE SMOOTH",
"522 22 LINE SMOOTH",
"539 -4 OFFCURVE",
"544 -8 OFFCURVE",
"557 -8 CURVE SMOOTH"
);
},
{
closed = 1;
nodes = (
"142 0 LINE",
"142 700 LINE",
"100 700 LINE",
"100 0 LINE"
);
},
{
closed = 1;
nodes = (
"577 700 LINE",
"524 700 LINE",
"269 366 LINE",
"301 344 LINE"
);
}
);
width = 610;
},
{
anchors = (
{
name = bottom;
position = "{248, 0}";
},
{
name = top;
position = "{360, 660}";
}
);
layerId = "CF2C6045-422A-4B78-B702-649D3D8A1FBA";
paths = (
{
closed = 1;
nodes = (
"542 -10 OFFCURVE",
"579 -5 OFFCURVE",
"598 5 CURVE",
"474 279 LINE SMOOTH",
"435 365 OFFCURVE",
"380 402 OFFCURVE",
"290 402 CURVE SMOOTH",
"130 402 LINE",
"116 300 LINE",
"236 300 LINE SMOOTH",
"289 300 OFFCURVE",
"298 293 OFFCURVE",
"324 238 CURVE SMOOTH",
"426 22 LINE SMOOTH",
"436 0 OFFCURVE",
"458 -10 OFFCURVE",
"496 -10 CURVE SMOOTH"
);
},
{
closed = 1;
nodes = (
"187 0 LINE",
"285 700 LINE",
"131 700 LINE",
"33 0 LINE"
);
},
{
closed = 1;
nodes = (
"688 700 LINE",
"525 700 LINE",
"252 356 LINE",
"370 314 LINE"
);
}
);
width = 670;
},
{
anchors = (
{
name = bottom;
position = "{248, 0}";
},
{
name = top;
position = "{340, 660}";
}
);
layerId = "821A3B53-E0A3-4F70-87DD-68DD21D0650F";
paths = (
{
closed = 1;
nodes = (
"499 -8 OFFCURVE",
"513 -4 OFFCURVE",
"528 3 CURVE",
"385 289 LINE SMOOTH",
"348 363 OFFCURVE",
"304 392 OFFCURVE",
"229 392 CURVE SMOOTH",
"129 392 LINE",
"120 330 LINE",
"200 330 LINE SMOOTH",
"273 330 OFFCURVE",
"297 317 OFFCURVE",
"320 268 CURVE SMOOTH",
"438 22 LINE SMOOTH",
"448 0 OFFCURVE",
"460 -8 OFFCURVE",
"484 -8 CURVE SMOOTH"
);
},
{
closed = 1;
nodes = (
"115 0 LINE",
"213 700 LINE",
"141 700 LINE",
"43 0 LINE"
);
},
{
closed = 1;
nodes = (
"618 700 LINE",
"535 700 LINE",
"233 366 LINE",
"292 344 LINE"
);
}
);
width = 610;
},
{
anchors = (
{
name = bottom;
position = "{248, 0}";
},
{
name = top;
position = "{340, 660}";
}
);
layerId = "3E05E8D4-50BE-428E-AA2A-790990B7EE87";
paths = (
{
closed = 1;
nodes = (
"509 -8 OFFCURVE",
"521 -4 OFFCURVE",
"528 3 CURVE",
"380 286 LINE SMOOTH",
"345 353 OFFCURVE",
"307 377 OFFCURVE",
"238 377 CURVE SMOOTH",
"122 377 LINE",
"116 339 LINE",
"217 339 LINE SMOOTH",
"292 339 OFFCURVE",
"311 328 OFFCURVE",
"342 269 CURVE SMOOTH",
"468 22 LINE SMOOTH",
"480 -2 OFFCURVE",
"485 -8 OFFCURVE",
"499 -8 CURVE SMOOTH"
);
},
{
closed = 1;
nodes = (
"85 0 LINE",
"183 700 LINE",
"141 700 LINE",
"43 0 LINE"
);
},
{
closed = 1;
nodes = (
"618 700 LINE",
"565 700 LINE",
"263 366 LINE",
"292 344 LINE"
);
}
);
width = 610;
}
);
note = K;
unicode = 004B;
},
{
color = 4;
glyphname = L;
lastChange = "2018-07-18 10:11:34 +0000";
layers = (
{
anchors = (
{
name = bottom;
position = "{292, 0}";
},
{
name = center;
position = "{257, 350}";
},
{
name = top;
position = "{122, 660}";
},
{
name = topright;
position = "{443, 660}";
}
);
layerId = "5A4BD32C-A1D1-4EB1-A794-47BD06E3B809";
paths = (
{
closed = 1;
nodes = (
"498 0 LINE",
"498 60 LINE",
"113 60 LINE",
"158 15 LINE",
"158 700 LINE",
"86 700 LINE",
"86 0 LINE"
);
}
);
width = 513;
},
{
anchors = (
{
name = bottom;
position = "{292, 0}";
},
{
name = center;
position = "{257, 350}";
},
{
name = top;
position = "{163, 660}";
},
{
name = topright;
position = "{493, 700}";
}
);
layerId = "FD6510A9-FDB4-489D-9A3E-85E488E95339";
paths = (
{
closed = 1;
nodes = (
"498 0 LINE",
"498 106 LINE",
"173 106 LINE",
"240 35 LINE",
"240 700 LINE",
"86 700 LINE",
"86 0 LINE"
);
}
);
width = 513;
},
{
anchors = (
{
name = bottom;
position = "{292, 0}";
},
{
name = center;
position = "{257, 350}";
},
{
name = top;
position = "{107, 660}";
},
{
name = topright;
position = "{443, 660}";
}
);
layerId = "EB12C417-147C-44D3-ABF9-73FB32C0B9E2";
paths = (
{
closed = 1;
nodes = (
"498 0 LINE",
"498 38 LINE",
"107 38 LINE",
"128 15 LINE",
"128 700 LINE",
"86 700 LINE",
"86 0 LINE"
);
}
);
width = 513;
},
{
anchors = (
{
name = bottom;
position = "{235, 0}";
},
{
name = center;
position = "{249, 350}";
},
{
name = top;
position = "{198, 660}";
},
{
name = topright;
position = "{534, 700}";
}
);
layerId = "CF2C6045-422A-4B78-B702-649D3D8A1FBA";
paths = (
{
closed = 1;
nodes = (
"441 0 LINE",
"456 106 LINE",
"131 106 LINE",
"188 35 LINE",
"281 700 LINE",
"127 700 LINE",
"29 0 LINE"
);
}
);
width = 513;
},
{
anchors = (
{
name = bottom;
position = "{235, 0}";
},
{
name = center;
position = "{249, 350}";
},
{
name = top;
position = "{163, 700}";
},
{
name = topright;
position = "{534, 700}";
}
);
layerId = "821A3B53-E0A3-4F70-87DD-68DD21D0650F";
paths = (
{
closed = 1;
nodes = (
"441 0 LINE",
"449 60 LINE",
"64 60 LINE",
"103 15 LINE",
"199 700 LINE",
"127 700 LINE",
"29 0 LINE"
);
}
);
width = 513;
},
{
anchors = (
{
name = bottom;
position = "{235, 0}";
},
{
name = center;
position = "{249, 350}";
},
{
name = top;
position = "{163, 700}";
},
{
name = topright;
position = "{534, 700}";
}
);
layerId = "3E05E8D4-50BE-428E-AA2A-790990B7EE87";
paths = (
{
closed = 1;
nodes = (
"441 0 LINE",
"446 38 LINE",
"55 38 LINE",
"73 15 LINE",
"169 700 LINE",
"127 700 LINE",
"29 0 LINE"
);
}
);
width = 513;
}
);
note = L;
unicode = 004C;
},
{
color = 4;
glyphname = M;
lastChange = "2018-07-18 10:11:34 +0000";
layers = (
{
anchors = (
{
name = bottom;
position = "{415, 0}";
},
{
name = top;
position = "{415, 660}";
}
);
layerId = "5A4BD32C-A1D1-4EB1-A794-47BD06E3B809";
paths = (
{
closed = 1;
nodes = (
"148 0 LINE",
"154 222 OFFCURVE",
"177 448 OFFCURVE",
"213 644 CURVE",
"191 627 LINE",
"252 491 OFFCURVE",
"294 372 OFFCURVE",
"389 70 CURVE",
"441 70 LINE",
"555 432 OFFCURVE",
"581 505 OFFCURVE",
"636 626 CURVE",
"616 644 LINE",
"652 448 OFFCURVE",
"675 222 OFFCURVE",
"681 0 CURVE",
"753 0 LINE",
"746 251 OFFCURVE",
"719 503 OFFCURVE",
"678 700 CURVE",
"598 700 LINE",
"515 519 OFFCURVE",
"466 390 OFFCURVE",
"404 182 CURVE",
"426 183 LINE",
"365 386 OFFCURVE",
"317 515 OFFCURVE",
"231 700 CURVE",
"151 700 LINE",
"110 503 OFFCURVE",
"83 251 OFFCURVE",
"76 0 CURVE"
);
}
);
width = 829;
},
{
anchors = (
{
name = bottom;
position = "{425, 0}";
},
{
name = top;
position = "{423, 660}";
}
);
layerId = "FD6510A9-FDB4-489D-9A3E-85E488E95339";
paths = (
{
closed = 1;
nodes = (
"202 0 LINE",
"206 284 OFFCURVE",
"217 409 OFFCURVE",
"251 581 CURVE",
"228 580 LINE",
"294 397 OFFCURVE",
"319 308 OFFCURVE",
"359 110 CURVE",
"481 110 LINE",
"525 309 OFFCURVE",
"551 398 OFFCURVE",
"618 580 CURVE",
"595 581 LINE",
"631 408 OFFCURVE",
"641 280 OFFCURVE",
"640 0 CURVE",
"796 0 LINE",
"797 291 OFFCURVE",
"771 483 OFFCURVE",
"701 700 CURVE",
"529 700 LINE",
"457 512 OFFCURVE",
"438 453 OFFCURVE",
"410 322 CURVE",
"426 322 LINE",
"404 453 OFFCURVE",
"387 512 OFFCURVE",
"317 700 CURVE",
"145 700 LINE",
"80 487 OFFCURVE",
"54 297 OFFCURVE",
"50 0 CURVE"
);
}
);
width = 846;
},
{
anchors = (
{
name = bottom;
position = "{415, 0}";
},
{
name = top;
position = "{415, 660}";
}
);
layerId = "EB12C417-147C-44D3-ABF9-73FB32C0B9E2";
paths = (
{
closed = 1;
nodes = (
"118 0 LINE",
"132 276 OFFCURVE",
"156 524 OFFCURVE",
"185 672 CURVE",
"163 667 LINE",
"280 421 OFFCURVE",
"343 264 OFFCURVE",
"399 80 CURVE",
"431 80 LINE",
"491 278 OFFCURVE",
"562 456 OFFCURVE",
"664 666 CURVE",
"644 672 LINE",
"673 528 OFFCURVE",
"697 286 OFFCURVE",
"711 0 CURVE",
"753 0 LINE",
"737 315 OFFCURVE",
"713 543 OFFCURVE",
"678 700 CURVE",
"638 700 LINE",
"520 460 OFFCURVE",
"454 296 OFFCURVE",
"404 122 CURVE",
"426 123 LINE",
"377 294 OFFCURVE",
"312 454 OFFCURVE",
"191 700 CURVE",
"151 700 LINE",
"116 540 OFFCURVE",
"91 306 OFFCURVE",
"76 0 CURVE"
);
}
);
width = 829;
},
{
anchors = (
{
name = bottom;
position = "{368, 0}";
},
{
name = top;
position = "{440, 660}";
}
);
layerId = "CF2C6045-422A-4B78-B702-649D3D8A1FBA";
paths = (
{
closed = 1;
nodes = (
"145 0 LINE",
"183 269 OFFCURVE",
"210 392 OFFCURVE",
"275 581 CURVE",
"252 580 LINE",
"293 400 OFFCURVE",
"305 311 OFFCURVE",
"317 110 CURVE",
"439 110 LINE",
"508 300 OFFCURVE",
"546 389 OFFCURVE",
"639 580 CURVE",
"616 581 LINE",
"620 397 OFFCURVE",
"613 268 OFFCURVE",
"583 0 CURVE",
"739 0 LINE",
"771 277 OFFCURVE",
"771 463 OFFCURVE",
"738 700 CURVE",
"565 700 LINE",
"501 585 OFFCURVE",
"462 497 OFFCURVE",
"398 322 CURVE",
"414 322 LINE",
"407 446 OFFCURVE",
"397 512 OFFCURVE",
"357 700 CURVE",
"186 700 LINE",
"90 484 OFFCURVE",
"38 293 OFFCURVE",
"-7 0 CURVE"
);
}
);
width = 846;
},
{
anchors = (
{
name = bottom;
position = "{358, 0}";
},
{
name = top;
position = "{450, 660}";
}
);
layerId = "821A3B53-E0A3-4F70-87DD-68DD21D0650F";
paths = (
{
closed = 1;
nodes = (
"91 0 LINE",
"127 217 OFFCURVE",
"182 443 OFFCURVE",
"246 644 CURVE",
"222 627 LINE",
"271 446 OFFCURVE",
"305 292 OFFCURVE",
"344 70 CURVE",
"396 70 LINE",
"524 352 OFFCURVE",
"590 485 OFFCURVE",
"670 626 CURVE",
"649 644 LINE",
"657 477 OFFCURVE",
"648 260 OFFCURVE",
"624 0 CURVE",
"696 0 LINE",
"722 280 OFFCURVE",
"729 519 OFFCURVE",
"717 700 CURVE",
"637 700 LINE",
"502 463 OFFCURVE",
"447 355 OFFCURVE",
"372 182 CURVE",
"394 183 LINE",
"365 355 OFFCURVE",
"340 463 OFFCURVE",
"270 700 CURVE",
"190 700 LINE",
"124 507 OFFCURVE",
"62 257 OFFCURVE",
"19 0 CURVE"
);
}
);
width = 829;
},
{
anchors = (
{
name = bottom;
position = "{358, 0}";
},
{
name = top;
position = "{450, 660}";
}
);
layerId = "3E05E8D4-50BE-428E-AA2A-790990B7EE87";
paths = (
{
closed = 1;
nodes = (
"61 0 LINE",
"99 222 OFFCURVE",
"163 486 OFFCURVE",
"223 671 CURVE",
"201 667 LINE",
"268 462 OFFCURVE",
"314 282 OFFCURVE",
"353 80 CURVE",
"385 80 LINE",
"473 280 OFFCURVE",
"569 460 OFFCURVE",
"696 666 CURVE",
"677 672 LINE",
"686 523 OFFCURVE",
"677 271 OFFCURVE",
"654 0 CURVE",
"696 0 LINE",
"721 285 OFFCURVE",
"727 533 OFFCURVE",
"713 700 CURVE",
"673 700 LINE",
"531 472 OFFCURVE",
"440 300 OFFCURVE",
"364 122 CURVE",
"386 123 LINE",
"353 304 OFFCURVE",
"307 479 OFFCURVE",
"232 700 CURVE",
"192 700 LINE",
"128 522 OFFCURVE",
"65 265 OFFCURVE",
"19 0 CURVE"
);
}
);
width = 829;
}
);
note = M;
unicode = 004D;
},
{
color = 4;
glyphname = N;
lastChange = "2018-07-18 10:11:34 +0000";
layers = (
{
anchors = (
{
name = bottom;
position = "{344, 0}";
},
{
name = top;
position = "{344, 660}";
}
);
layerId = "5A4BD32C-A1D1-4EB1-A794-47BD06E3B809";
paths = (
{
closed = 1;
nodes = (
"158 0 LINE",
"158 648 LINE",
"130 638 LINE",
"489 165 LINE SMOOTH",
"514 131 OFFCURVE",
"528 92 OFFCURVE",
"528 54 CURVE SMOOTH",
"528 0 LINE",
"578 0 LINE SMOOTH",
"595 0 OFFCURVE",
"604 10 OFFCURVE",
"604 27 CURVE SMOOTH",
"604 51 OFFCURVE",
"600 90 OFFCURVE",
"600 137 CURVE SMOOTH",
"600 700 LINE",
"528 700 LINE",
"528 178 LINE",
"556 188 LINE",
"182 680 LINE SMOOTH",
"168 698 OFFCURVE",
"160 700 OFFCURVE",
"144 700 CURVE SMOOTH",
"86 700 LINE",
"86 0 LINE"
);
}
);
width = 690;
},
{
anchors = (
{
name = bottom;
position = "{349, 0}";
},
{
name = top;
position = "{349, 660}";
}
);
layerId = "FD6510A9-FDB4-489D-9A3E-85E488E95339";
paths = (
{
closed = 1;
nodes = (
"218 0 LINE",
"218 538 LINE",
"190 528 LINE",
"439 145 LINE SMOOTH",
"465 104 OFFCURVE",
"478 68 OFFCURVE",
"478 34 CURVE SMOOTH",
"478 0 LINE",
"608 0 LINE SMOOTH",
"625 0 OFFCURVE",
"634 10 OFFCURVE",
"634 27 CURVE SMOOTH",
"634 51 OFFCURVE",
"630 90 OFFCURVE",
"630 137 CURVE SMOOTH",
"630 700 LINE",
"478 700 LINE",
"478 268 LINE",
"506 278 LINE",
"242 680 LINE SMOOTH",
"230 698 OFFCURVE",
"220 700 OFFCURVE",
"204 700 CURVE SMOOTH",
"66 700 LINE",
"66 0 LINE"
);
}
);
width = 700;
},
{
anchors = (
{
name = bottom;
position = "{343, 0}";
},
{
name = top;
position = "{343, 660}";
}
);
layerId = "EB12C417-147C-44D3-ABF9-73FB32C0B9E2";
paths = (
{
closed = 1;
nodes = (
"128 0 LINE",
"128 688 LINE",
"100 676 LINE",
"528 153 LINE SMOOTH",
"553 122 OFFCURVE",
"557 112 OFFCURVE",
"557 74 CURVE SMOOTH",
"557 0 LINE",
"577 0 LINE SMOOTH",
"594 0 OFFCURVE",
"603 10 OFFCURVE",
"603 27 CURVE SMOOTH",
"603 51 OFFCURVE",
"599 90 OFFCURVE",
"599 137 CURVE SMOOTH",
"599 700 LINE",
"557 700 LINE",
"557 138 LINE",
"585 148 LINE",
"143 688 LINE SMOOTH",
"135 697 OFFCURVE",
"132 700 OFFCURVE",
"121 700 CURVE SMOOTH",
"86 700 LINE",
"86 0 LINE"
);
}
);
width = 689;
},
{
anchors = (
{
name = bottom;
position = "{292, 0}";
},
{
name = top;
position = "{384, 660}";
}
);
layerId = "CF2C6045-422A-4B78-B702-649D3D8A1FBA";
paths = (
{
closed = 1;
nodes = (
"161 0 LINE",
"236 538 LINE",
"207 528 LINE",
"403 146 LINE SMOOTH",
"424 105 OFFCURVE",
"430 68 OFFCURVE",
"426 35 CURVE SMOOTH",
"421 0 LINE",
"551 0 LINE SMOOTH",
"568 0 OFFCURVE",
"578 10 OFFCURVE",
"580 27 CURVE SMOOTH",
"583 51 OFFCURVE",
"585 90 OFFCURVE",
"592 137 CURVE SMOOTH",
"671 700 LINE",
"519 700 LINE",
"459 269 LINE",
"489 279 LINE",
"280 680 LINE SMOOTH",
"270 700 OFFCURVE",
"259 700 OFFCURVE",
"245 700 CURVE SMOOTH",
"107 700 LINE",
"9 0 LINE"
);
}
);
width = 700;
},
{
anchors = (
{
name = bottom;
position = "{287, 0}";
},
{
name = top;
position = "{379, 660}";
}
);
layerId = "821A3B53-E0A3-4F70-87DD-68DD21D0650F";
paths = (
{
closed = 1;
nodes = (
"101 0 LINE",
"192 648 LINE",
"162 638 LINE",
"455 165 LINE SMOOTH",
"479 126 OFFCURVE",
"482 86 OFFCURVE",
"478 54 CURVE SMOOTH",
"471 0 LINE",
"521 0 LINE SMOOTH",
"536 0 OFFCURVE",
"550 9 OFFCURVE",
"550 27 CURVE SMOOTH",
"550 60 OFFCURVE",
"557 100 OFFCURVE",
"562 137 CURVE SMOOTH",
"641 700 LINE",
"569 700 LINE",
"496 178 LINE",
"525 188 LINE",
"220 680 LINE SMOOTH",
"210 696 OFFCURVE",
"204 700 OFFCURVE",
"185 700 CURVE SMOOTH",
"127 700 LINE",
"29 0 LINE"
);
}
);
width = 690;
},
{
anchors = (
{
name = bottom;
position = "{286, 0}";
},
{
name = top;
position = "{378, 660}";
}
);
layerId = "3E05E8D4-50BE-428E-AA2A-790990B7EE87";
paths = (
{
closed = 1;
nodes = (
"71 0 LINE",
"167 688 LINE",
"138 676 LINE",
"492 153 LINE SMOOTH",
"513 122 OFFCURVE",
"515 113 OFFCURVE",
"510 74 CURVE SMOOTH",
"500 0 LINE",
"520 0 LINE SMOOTH",
"537 0 OFFCURVE",
"549 10 OFFCURVE",
"549 27 CURVE SMOOTH",
"549 40 OFFCURVE",
"555 96 OFFCURVE",
"561 137 CURVE SMOOTH",
"640 700 LINE",
"598 700 LINE",
"519 138 LINE",
"549 148 LINE",
"182 688 LINE SMOOTH",
"175 698 OFFCURVE",
"172 700 OFFCURVE",
"162 700 CURVE SMOOTH",
"127 700 LINE",
"29 0 LINE"
);
}
);
width = 689;
}
);
note = N;
unicode = 004E;
},
{
color = 4;
glyphname = O;
lastChange = "2018-07-18 10:11:34 +0000";
layers = (
{
anchors = (
{
name = bottom;
position = "{340, 0}";
},
{
name = center;
position = "{340, 350}";
},
{
name = ogonek;
position = "{439, 31}";
},
{
name = top;
position = "{340, 660}";
},
{
name = topright;
position = "{482, 639}";
}
);
layerId = "5A4BD32C-A1D1-4EB1-A794-47BD06E3B809";
paths = (
{
closed = 1;
nodes = (
"528 -10 OFFCURVE",
"632 120 OFFCURVE",
"632 354 CURVE SMOOTH",
"632 583 OFFCURVE",
"528 710 OFFCURVE",
"340 710 CURVE SMOOTH",
"152 710 OFFCURVE",
"48 583 OFFCURVE",
"48 354 CURVE SMOOTH",
"48 120 OFFCURVE",
"152 -10 OFFCURVE",
"340 -10 CURVE SMOOTH"
);
},
{
closed = 1;
nodes = (
"196 54 OFFCURVE",
"122 156 OFFCURVE",
"122 354 CURVE SMOOTH",
"122 548 OFFCURVE",
"195 646 OFFCURVE",
"340 646 CURVE SMOOTH",
"485 646 OFFCURVE",
"558 548 OFFCURVE",
"558 354 CURVE SMOOTH",
"558 156 OFFCURVE",
"484 54 OFFCURVE",
"340 54 CURVE SMOOTH"
);
}
);
width = 680;
},
{
anchors = (
{
name = bottom;
position = "{340, 0}";
},
{
name = center;
position = "{340, 350}";
},
{
name = ogonek;
position = "{439, 31}";
},
{
name = top;
position = "{340, 660}";
},
{
name = topright;
position = "{482, 639}";
}
);
layerId = "FD6510A9-FDB4-489D-9A3E-85E488E95339";
paths = (
{
closed = 1;
nodes = (
"531 -10 OFFCURVE",
"642 124 OFFCURVE",
"642 354 CURVE SMOOTH",
"642 579 OFFCURVE",
"531 710 OFFCURVE",
"340 710 CURVE SMOOTH",
"149 710 OFFCURVE",
"38 579 OFFCURVE",
"38 354 CURVE SMOOTH",
"38 124 OFFCURVE",
"149 -10 OFFCURVE",
"340 -10 CURVE SMOOTH"
);
},
{
closed = 1;
nodes = (
"240 100 OFFCURVE",
"196 177 OFFCURVE",
"196 354 CURVE SMOOTH",
"196 527 OFFCURVE",
"239 600 OFFCURVE",
"340 600 CURVE SMOOTH",
"441 600 OFFCURVE",
"484 527 OFFCURVE",
"484 354 CURVE SMOOTH",
"484 177 OFFCURVE",
"440 100 OFFCURVE",
"340 100 CURVE SMOOTH"
);
}
);
width = 680;
},
{
anchors = (
{
name = bottom;
position = "{340, 0}";
},
{
name = center;
position = "{340, 350}";
},
{
name = ogonek;
position = "{439, 31}";
},
{
name = top;
position = "{340, 660}";
},
{
name = topright;
position = "{482, 639}";
}
);
layerId = "EB12C417-147C-44D3-ABF9-73FB32C0B9E2";
paths = (
{
closed = 1;
nodes = (
"530 -10 OFFCURVE",
"632 117 OFFCURVE",
"632 354 CURVE SMOOTH",
"632 586 OFFCURVE",
"530 710 OFFCURVE",
"340 710 CURVE SMOOTH",
"150 710 OFFCURVE",
"48 586 OFFCURVE",
"48 354 CURVE SMOOTH",
"48 117 OFFCURVE",
"150 -10 OFFCURVE",
"340 -10 CURVE SMOOTH"
);
},
{
closed = 1;
nodes = (
"175 30 OFFCURVE",
"92 139 OFFCURVE",
"92 354 CURVE SMOOTH",
"92 566 OFFCURVE",
"174 670 OFFCURVE",
"340 670 CURVE SMOOTH",
"506 670 OFFCURVE",
"588 566 OFFCURVE",
"588 354 CURVE SMOOTH",
"588 139 OFFCURVE",
"505 30 OFFCURVE",
"340 30 CURVE SMOOTH"
);
}
);
width = 680;
},
{
anchors = (
{
name = bottom;
position = "{293, 0}";
},
{
name = center;
position = "{342, 350}";
},
{
name = ogonek;
position = "{396, 31}";
},
{
name = top;
position = "{377, 660}";
},
{
name = topright;
position = "{525, 639}";
}
);
layerId = "CF2C6045-422A-4B78-B702-649D3D8A1FBA";
paths = (
{
closed = 1;
nodes = (
"523 -10 OFFCURVE",
"660 163 OFFCURVE",
"660 433 CURVE SMOOTH",
"660 612 OFFCURVE",
"560 710 OFFCURVE",
"375 710 CURVE SMOOTH",
"160 710 OFFCURVE",
"23 540 OFFCURVE",
"23 273 CURVE SMOOTH",
"23 93 OFFCURVE",
"127 -10 OFFCURVE",
"310 -10 CURVE SMOOTH"
);
},
{
closed = 1;
nodes = (
"223 100 OFFCURVE",
"179 159 OFFCURVE",
"179 272 CURVE SMOOTH",
"179 489 OFFCURVE",
"245 600 OFFCURVE",
"373 600 CURVE SMOOTH",
"459 600 OFFCURVE",
"504 543 OFFCURVE",
"504 433 CURVE SMOOTH",
"504 218 OFFCURVE",
"434 100 OFFCURVE",
"308 100 CURVE SMOOTH"
);
}
);
width = 700;
},
{
anchors = (
{
name = bottom;
position = "{283, 0}";
},
{
name = center;
position = "{332, 350}";
},
{
name = ogonek;
position = "{386, 31}";
},
{
name = top;
position = "{375, 660}";
},
{
name = topright;
position = "{515, 639}";
}
);
layerId = "821A3B53-E0A3-4F70-87DD-68DD21D0650F";
paths = (
{
closed = 1;
nodes = (
"506 -10 OFFCURVE",
"631 150 OFFCURVE",
"631 428 CURVE SMOOTH",
"631 604 OFFCURVE",
"535 710 OFFCURVE",
"377 710 CURVE SMOOTH",
"166 710 OFFCURVE",
"33 544 OFFCURVE",
"33 283 CURVE SMOOTH",
"33 102 OFFCURVE",
"131 -10 OFFCURVE",
"289 -10 CURVE SMOOTH"
);
},
{
closed = 1;
nodes = (
"177 54 OFFCURVE",
"107 140 OFFCURVE",
"107 284 CURVE SMOOTH",
"107 505 OFFCURVE",
"210 646 OFFCURVE",
"372 646 CURVE SMOOTH",
"491 646 OFFCURVE",
"557 566 OFFCURVE",
"557 424 CURVE SMOOTH",
"557 189 OFFCURVE",
"461 54 OFFCURVE",
"294 54 CURVE SMOOTH"
);
}
);
width = 680;
},
{
anchors = (
{
name = bottom;
position = "{283, 0}";
},
{
name = center;
position = "{332, 350}";
},
{
name = ogonek;
position = "{386, 31}";
},
{
name = top;
position = "{375, 660}";
},
{
name = topright;
position = "{515, 639}";
}
);
layerId = "3E05E8D4-50BE-428E-AA2A-790990B7EE87";
paths = (
{
closed = 1;
nodes = (
"498 -10 OFFCURVE",
"631 160 OFFCURVE",
"631 431 CURVE SMOOTH",
"631 607 OFFCURVE",
"538 710 OFFCURVE",
"380 710 CURVE SMOOTH",
"167 710 OFFCURVE",
"33 540 OFFCURVE",
"33 271 CURVE SMOOTH",
"33 91 OFFCURVE",
"123 -10 OFFCURVE",
"285 -10 CURVE SMOOTH"
);
},
{
closed = 1;
nodes = (
"153 30 OFFCURVE",
"77 118 OFFCURVE",
"77 274 CURVE SMOOTH",
"77 519 OFFCURVE",
"191 670 OFFCURVE",
"374 670 CURVE SMOOTH",
"509 670 OFFCURVE",
"587 581 OFFCURVE",
"587 428 CURVE SMOOTH",
"587 182 OFFCURVE",
"472 30 OFFCURVE",
"287 30 CURVE SMOOTH"
);
}
);
width = 680;
}
);
note = O;
unicode = 004F;
},
{
color = 4;
glyphname = P;
lastChange = "2018-07-18 10:11:34 +0000";
layers = (
{
anchors = (
{
name = bottom;
position = "{308, 0}";
},
{
name = top;
position = "{308, 660}";
}
);
layerId = "5A4BD32C-A1D1-4EB1-A794-47BD06E3B809";
paths = (
{
closed = 1;
nodes = (
"158 0 LINE",
"158 684 LINE",
"113 638 LINE",
"294 638 LINE SMOOTH",
"437 638 OFFCURVE",
"500 589 OFFCURVE",
"500 477 CURVE SMOOTH",
"500 363 OFFCURVE",
"437 313 OFFCURVE",
"294 313 CURVE SMOOTH",
"123 313 LINE",
"123 251 LINE",
"294 251 LINE SMOOTH",
"477 251 OFFCURVE",
"572 328 OFFCURVE",
"572 477 CURVE SMOOTH",
"572 624 OFFCURVE",
"477 700 OFFCURVE",
"294 700 CURVE SMOOTH",
"86 700 LINE",
"86 0 LINE"
);
}
);
width = 615;
},
{
anchors = (
{
name = bottom;
position = "{308, 0}";
},
{
name = top;
position = "{308, 660}";
}
);
layerId = "FD6510A9-FDB4-489D-9A3E-85E488E95339";
paths = (
{
closed = 1;
nodes = (
"230 0 LINE",
"230 644 LINE",
"183 596 LINE",
"284 596 LINE SMOOTH",
"377 596 OFFCURVE",
"416 560 OFFCURVE",
"416 472 CURVE SMOOTH",
"416 382 OFFCURVE",
"377 345 OFFCURVE",
"284 345 CURVE SMOOTH",
"193 345 LINE",
"193 231 LINE",
"294 231 LINE SMOOTH",
"471 231 OFFCURVE",
"572 318 OFFCURVE",
"572 472 CURVE SMOOTH",
"572 621 OFFCURVE",
"475 700 OFFCURVE",
"294 700 CURVE SMOOTH",
"76 700 LINE",
"76 0 LINE"
);
}
);
width = 615;
},
{
anchors = (
{
name = bottom;
position = "{308, 0}";
},
{
name = top;
position = "{308, 660}";
}
);
layerId = "EB12C417-147C-44D3-ABF9-73FB32C0B9E2";
paths = (
{
closed = 1;
nodes = (
"128 0 LINE",
"128 684 LINE",
"103 660 LINE",
"294 660 LINE SMOOTH",
"448 660 OFFCURVE",
"530 596 OFFCURVE",
"530 477 CURVE SMOOTH",
"530 356 OFFCURVE",
"448 291 OFFCURVE",
"294 291 CURVE SMOOTH",
"113 291 LINE",
"113 251 LINE",
"294 251 LINE SMOOTH",
"477 251 OFFCURVE",
"572 328 OFFCURVE",
"572 477 CURVE SMOOTH",
"572 624 OFFCURVE",
"477 700 OFFCURVE",
"294 700 CURVE SMOOTH",
"86 700 LINE",
"86 0 LINE"
);
}
);
width = 615;
},
{
anchors = (
{
name = bottom;
position = "{251, 0}";
},
{
name = top;
position = "{343, 660}";
}
);
layerId = "CF2C6045-422A-4B78-B702-649D3D8A1FBA";
paths = (
{
closed = 1;
nodes = (
"173 0 LINE",
"263 644 LINE",
"209 596 LINE",
"310 596 LINE SMOOTH",
"390 596 OFFCURVE",
"427 565 OFFCURVE",
"427 499 CURVE SMOOTH",
"427 391 OFFCURVE",
"383 345 OFFCURVE",
"280 345 CURVE SMOOTH",
"184 345 LINE",
"168 231 LINE",
"274 231 LINE SMOOTH",
"466 231 OFFCURVE",
"584 333 OFFCURVE",
"584 499 CURVE SMOOTH",
"584 631 OFFCURVE",
"498 700 OFFCURVE",
"335 700 CURVE SMOOTH",
"117 700 LINE",
"19 0 LINE"
);
}
);
width = 615;
},
{
anchors = (
{
name = bottom;
position = "{251, 0}";
},
{
name = top;
position = "{343, 660}";
}
);
layerId = "821A3B53-E0A3-4F70-87DD-68DD21D0650F";
paths = (
{
closed = 1;
nodes = (
"101 0 LINE",
"197 684 LINE",
"145 638 LINE",
"326 638 LINE SMOOTH",
"452 638 OFFCURVE",
"512 595 OFFCURVE",
"512 505 CURVE SMOOTH",
"512 373 OFFCURVE",
"439 313 OFFCURVE",
"281 313 CURVE SMOOTH",
"110 313 LINE",
"101 251 LINE",
"292 251 LINE SMOOTH",
"484 251 OFFCURVE",
"585 338 OFFCURVE",
"585 505 CURVE SMOOTH",
"585 633 OFFCURVE",
"500 700 OFFCURVE",
"335 700 CURVE SMOOTH",
"127 700 LINE",
"29 0 LINE"
);
}
);
width = 615;
},
{
anchors = (
{
name = bottom;
position = "{251, 0}";
},
{
name = top;
position = "{343, 660}";
}
);
layerId = "3E05E8D4-50BE-428E-AA2A-790990B7EE87";
paths = (
{
closed = 1;
nodes = (
"71 0 LINE",
"167 684 LINE",
"138 660 LINE",
"339 660 LINE SMOOTH",
"480 660 OFFCURVE",
"541 611 OFFCURVE",
"541 498 CURVE SMOOTH",
"541 365 OFFCURVE",
"452 291 OFFCURVE",
"293 291 CURVE SMOOTH",
"97 291 LINE",
"91 251 LINE",
"297 251 LINE SMOOTH",
"480 251 OFFCURVE",
"585 341 OFFCURVE",
"585 498 CURVE SMOOTH",
"585 634 OFFCURVE",
"507 700 OFFCURVE",
"345 700 CURVE SMOOTH",
"127 700 LINE",
"29 0 LINE"
);
}
);
width = 615;
}
);
note = P;
unicode = 0050;
},
{
color = 4;
glyphname = Q;
lastChange = "2018-07-18 10:11:34 +0000";
layers = (
{
anchors = (
{
name = bottom;
position = "{340, 0}";
},
{
name = top;
position = "{340, 660}";
}
);
components = (
{
name = O;
}
);
layerId = "5A4BD32C-A1D1-4EB1-A794-47BD06E3B809";
paths = (
{
closed = 1;
nodes = (
"507 -82 OFFCURVE",
"527 -71 OFFCURVE",
"540 -57 CURVE",
"491 1 OFFCURVE",
"430 83 OFFCURVE",
"390 149 CURVE",
"314 149 LINE",
"363 68 OFFCURVE",
"409 -5 OFFCURVE",
"440 -53 CURVE SMOOTH",
"451 -70 OFFCURVE",
"467 -82 OFFCURVE",
"485 -82 CURVE SMOOTH"
);
}
);
width = 680;
},
{
anchors = (
{
name = bottom;
position = "{340, 0}";
},
{
name = top;
position = "{340, 660}";
}
);
components = (
{
name = O;
}
);
layerId = "FD6510A9-FDB4-489D-9A3E-85E488E95339";
paths = (
{
closed = 1;
nodes = (
"542 -92 OFFCURVE",
"569 -77 OFFCURVE",
"584 -51 CURVE",
"515 16 OFFCURVE",
"434 103 OFFCURVE",
"394 179 CURVE",
"274 179 LINE",
"323 88 OFFCURVE",
"373 -10 OFFCURVE",
"410 -53 CURVE SMOOTH",
"432 -79 OFFCURVE",
"457 -92 OFFCURVE",
"500 -92 CURVE SMOOTH"
);
}
);
width = 680;
},
{
anchors = (
{
name = bottom;
position = "{340, 0}";
},
{
name = top;
position = "{340, 660}";
}
);
components = (
{
name = O;
}
);
layerId = "EB12C417-147C-44D3-ABF9-73FB32C0B9E2";
paths = (
{
closed = 1;
nodes = (
"503 -82 OFFCURVE",
"509 -78 OFFCURVE",
"520 -67 CURVE",
"466 2 OFFCURVE",
"415 78 OFFCURVE",
"370 149 CURVE",
"324 149 LINE",
"382 66 OFFCURVE",
"430 -10 OFFCURVE",
"461 -58 CURVE SMOOTH",
"472 -75 OFFCURVE",
"478 -82 OFFCURVE",
"491 -82 CURVE SMOOTH"
);
}
);
width = 680;
},
{
anchors = (
{
name = bottom;
position = "{301, 0}";
},
{
name = top;
position = "{380, 660}";
}
);
components = (
{
name = O;
}
);
layerId = "CF2C6045-422A-4B78-B702-649D3D8A1FBA";
paths = (
{
closed = 1;
nodes = (
"472 -92 OFFCURVE",
"501 -76 OFFCURVE",
"520 -50 CURVE",
"460 17 OFFCURVE",
"391 103 OFFCURVE",
"362 179 CURVE",
"242 179 LINE",
"278 88 OFFCURVE",
"314 -9 OFFCURVE",
"345 -52 CURVE SMOOTH",
"364 -78 OFFCURVE",
"387 -92 OFFCURVE",
"430 -92 CURVE SMOOTH"
);
}
);
width = 680;
},
{
anchors = (
{
name = bottom;
position = "{301, 0}";
},
{
name = top;
position = "{390, 660}";
}
);
components = (
{
name = O;
}
);
layerId = "821A3B53-E0A3-4F70-87DD-68DD21D0650F";
paths = (
{
closed = 1;
nodes = (
"438 -82 OFFCURVE",
"460 -71 OFFCURVE",
"475 -57 CURVE",
"434 1 OFFCURVE",
"385 83 OFFCURVE",
"354 149 CURVE",
"278 149 LINE",
"315 68 OFFCURVE",
"351 -5 OFFCURVE",
"375 -53 CURVE SMOOTH",
"384 -70 OFFCURVE",
"398 -82 OFFCURVE",
"416 -82 CURVE SMOOTH"
);
}
);
width = 680;
},
{
anchors = (
{
name = bottom;
position = "{301, 0}";
},
{
name = top;
position = "{390, 660}";
}
);
components = (
{
name = O;
}
);
layerId = "3E05E8D4-50BE-428E-AA2A-790990B7EE87";
paths = (
{
closed = 1;
nodes = (
"440 -82 OFFCURVE",
"449 -76 OFFCURVE",
"453 -67 CURVE",
"410 -1 OFFCURVE",
"366 76 OFFCURVE",
"328 149 CURVE",
"284 149 LINE",
"327 66 OFFCURVE",
"368 -10 OFFCURVE",
"396 -58 CURVE SMOOTH",
"406 -75 OFFCURVE",
"415 -82 OFFCURVE",
"428 -82 CURVE SMOOTH"
);
}
);
width = 680;
}
);
note = Q;
unicode = 0051;
},
{
color = 4;
glyphname = R;
lastChange = "2018-07-18 10:11:34 +0000";
layers = (
{
anchors = (
{
name = bottom;
position = "{315, 0}";
},
{
name = top;
position = "{313, 660}";
}
);
layerId = "5A4BD32C-A1D1-4EB1-A794-47BD06E3B809";
paths = (
{
closed = 1;
nodes = (
"158 0 LINE",
"158 684 LINE",
"113 638 LINE",
"313 638 LINE SMOOTH",
"434 638 OFFCURVE",
"497 590 OFFCURVE",
"497 498 CURVE SMOOTH",
"497 409 OFFCURVE",
"428 357 OFFCURVE",
"308 357 CURVE SMOOTH",
"231 357 LINE",
"286 297 LINE",
"347 297 LINE SMOOTH",
"476 297 OFFCURVE",
"572 383 OFFCURVE",
"572 498 CURVE SMOOTH",
"572 624 OFFCURVE",
"475 700 OFFCURVE",
"313 700 CURVE SMOOTH",
"86 700 LINE",
"86 0 LINE"
);
},
{
closed = 1;
nodes = (
"557 -8 OFFCURVE",
"572 -4 OFFCURVE",
"585 3 CURVE",
"444 240 LINE SMOOTH",
"401 313 OFFCURVE",
"320 357 OFFCURVE",
"231 357 CURVE SMOOTH",
"136 357 LINE",
"136 295 LINE",
"226 295 LINE SMOOTH",
"305 295 OFFCURVE",
"346 274 OFFCURVE",
"378 218 CURVE SMOOTH",
"492 22 LINE SMOOTH",
"504 0 OFFCURVE",
"518 -8 OFFCURVE",
"542 -8 CURVE SMOOTH"
);
}
);
width = 629;
},
{
anchors = (
{
name = bottom;
position = "{315, 0}";
},
{
name = top;
position = "{313, 660}";
}
);
layerId = "FD6510A9-FDB4-489D-9A3E-85E488E95339";
paths = (
{
closed = 1;
nodes = (
"230 0 LINE",
"230 644 LINE",
"183 592 LINE",
"304 592 LINE SMOOTH",
"397 592 OFFCURVE",
"436 559 OFFCURVE",
"436 480 CURVE SMOOTH",
"436 401 OFFCURVE",
"398 369 OFFCURVE",
"304 369 CURVE SMOOTH",
"246 369 LINE",
"290 271 LINE",
"314 271 LINE SMOOTH",
"491 271 OFFCURVE",
"592 347 OFFCURVE",
"592 480 CURVE SMOOTH",
"592 621 OFFCURVE",
"492 700 OFFCURVE",
"314 700 CURVE SMOOTH",
"76 700 LINE",
"76 0 LINE"
);
},
{
closed = 1;
nodes = (
"564 -8 OFFCURVE",
"602 1 OFFCURVE",
"615 13 CURVE",
"514 230 LINE SMOOTH",
"471 322 OFFCURVE",
"395 369 OFFCURVE",
"291 369 CURVE SMOOTH",
"176 369 LINE",
"176 261 LINE",
"282 261 LINE SMOOTH",
"332 261 OFFCURVE",
"352 247 OFFCURVE",
"374 198 CURVE SMOOTH",
"448 32 LINE SMOOTH",
"461 3 OFFCURVE",
"482 -8 OFFCURVE",
"528 -8 CURVE SMOOTH"
);
}
);
width = 640;
},
{
anchors = (
{
name = bottom;
position = "{315, 0}";
},
{
name = top;
position = "{313, 660}";
}
);
layerId = "EB12C417-147C-44D3-ABF9-73FB32C0B9E2";
paths = (
{
closed = 1;
nodes = (
"128 0 LINE",
"128 684 LINE",
"103 660 LINE",
"313 660 LINE SMOOTH",
"457 660 OFFCURVE",
"527 607 OFFCURVE",
"527 498 CURVE SMOOTH",
"527 392 OFFCURVE",
"452 337 OFFCURVE",
"308 337 CURVE SMOOTH",
"242 337 LINE",
"286 297 LINE",
"347 297 LINE SMOOTH",
"482 297 OFFCURVE",
"572 377 OFFCURVE",
"572 498 CURVE SMOOTH",
"572 630 OFFCURVE",
"483 700 OFFCURVE",
"313 700 CURVE SMOOTH",
"86 700 LINE",
"86 0 LINE"
);
},
{
closed = 1;
nodes = (
"567 -8 OFFCURVE",
"579 -3 OFFCURVE",
"585 3 CURVE",
"437 236 LINE SMOOTH",
"395 302 OFFCURVE",
"328 337 OFFCURVE",
"242 337 CURVE SMOOTH",
"106 337 LINE",
"106 299 LINE",
"237 299 LINE SMOOTH",
"322 299 OFFCURVE",
"356 281 OFFCURVE",
"398 216 CURVE SMOOTH",
"522 22 LINE SMOOTH",
"539 -4 OFFCURVE",
"544 -8 OFFCURVE",
"557 -8 CURVE SMOOTH"
);
}
);
width = 629;
},
{
anchors = (
{
name = bottom;
position = "{258, 0}";
},
{
name = top;
position = "{348, 660}";
}
);
layerId = "CF2C6045-422A-4B78-B702-649D3D8A1FBA";
paths = (
{
closed = 1;
nodes = (
"173 0 LINE",
"263 644 LINE",
"209 592 LINE",
"330 592 LINE SMOOTH",
"413 592 OFFCURVE",
"448 566 OFFCURVE",
"448 507 CURVE SMOOTH",
"448 412 OFFCURVE",
"402 369 OFFCURVE",
"299 369 CURVE SMOOTH",
"228 369 LINE",
"271 271 LINE",
"295 271 LINE SMOOTH",
"488 271 OFFCURVE",
"605 364 OFFCURVE",
"605 517 CURVE SMOOTH",
"605 635 OFFCURVE",
"517 700 OFFCURVE",
"355 700 CURVE SMOOTH",
"117 700 LINE",
"19 0 LINE"
);
},
{
closed = 1;
nodes = (
"506 -8 OFFCURVE",
"545 1 OFFCURVE",
"560 13 CURVE",
"489 230 LINE SMOOTH",
"459 322 OFFCURVE",
"390 369 OFFCURVE",
"286 369 CURVE SMOOTH",
"171 369 LINE",
"155 261 LINE",
"261 261 LINE SMOOTH",
"311 261 OFFCURVE",
"329 247 OFFCURVE",
"345 198 CURVE SMOOTH",
"395 32 LINE SMOOTH",
"403 3 OFFCURVE",
"424 -8 OFFCURVE",
"470 -8 CURVE SMOOTH"
);
}
);
width = 640;
},
{
anchors = (
{
name = bottom;
position = "{258, 0}";
},
{
name = top;
position = "{348, 660}";
}
);
layerId = "821A3B53-E0A3-4F70-87DD-68DD21D0650F";
paths = (
{
closed = 1;
nodes = (
"101 0 LINE",
"197 684 LINE",
"145 638 LINE",
"345 638 LINE SMOOTH",
"455 638 OFFCURVE",
"512 599 OFFCURVE",
"512 523 CURVE SMOOTH",
"512 419 OFFCURVE",
"433 357 OFFCURVE",
"301 357 CURVE SMOOTH",
"224 357 LINE",
"270 297 LINE",
"331 297 LINE SMOOTH",
"473 297 OFFCURVE",
"587 400 OFFCURVE",
"587 528 CURVE SMOOTH",
"587 638 OFFCURVE",
"502 700 OFFCURVE",
"354 700 CURVE SMOOTH",
"127 700 LINE",
"29 0 LINE"
);
},
{
closed = 1;
nodes = (
"499 -8 OFFCURVE",
"513 -4 OFFCURVE",
"528 3 CURVE",
"420 240 LINE SMOOTH",
"387 313 OFFCURVE",
"313 357 OFFCURVE",
"224 357 CURVE SMOOTH",
"129 357 LINE",
"120 295 LINE",
"210 295 LINE SMOOTH",
"289 295 OFFCURVE",
"327 274 OFFCURVE",
"351 218 CURVE SMOOTH",
"438 22 LINE SMOOTH",
"446 1 OFFCURVE",
"460 -8 OFFCURVE",
"484 -8 CURVE SMOOTH"
);
}
);
width = 629;
},
{
anchors = (
{
name = bottom;
position = "{258, 0}";
},
{
name = top;
position = "{348, 660}";
}
);
layerId = "3E05E8D4-50BE-428E-AA2A-790990B7EE87";
paths = (
{
closed = 1;
nodes = (
"71 0 LINE",
"167 684 LINE",
"138 660 LINE",
"348 660 LINE SMOOTH",
"479 660 OFFCURVE",
"542 617 OFFCURVE",
"542 528 CURVE SMOOTH",
"542 404 OFFCURVE",
"456 337 OFFCURVE",
"298 337 CURVE SMOOTH",
"232 337 LINE",
"270 297 LINE",
"331 297 LINE SMOOTH",
"480 297 OFFCURVE",
"588 386 OFFCURVE",
"588 533 CURVE SMOOTH",
"588 642 OFFCURVE",
"507 700 OFFCURVE",
"354 700 CURVE SMOOTH",
"127 700 LINE",
"29 0 LINE"
);
},
{
closed = 1;
nodes = (
"509 -8 OFFCURVE",
"521 -4 OFFCURVE",
"528 3 CURVE",
"413 236 LINE SMOOTH",
"381 302 OFFCURVE",
"318 337 OFFCURVE",
"232 337 CURVE SMOOTH",
"96 337 LINE",
"91 299 LINE",
"222 299 LINE SMOOTH",
"307 299 OFFCURVE",
"338 282 OFFCURVE",
"371 216 CURVE SMOOTH",
"468 22 LINE SMOOTH",
"480 -2 OFFCURVE",
"485 -8 OFFCURVE",
"499 -8 CURVE SMOOTH"
);
}
);
width = 629;
}
);
note = R;
unicode = 0052;
},
{
color = 4;
glyphname = S;
lastChange = "2018-07-18 10:11:34 +0000";
layers = (
{
anchors = (
{
name = bottom;
position = "{321, 0}";
},
{
name = top;
position = "{321, 660}";
}
);
layerId = "5A4BD32C-A1D1-4EB1-A794-47BD06E3B809";
paths = (
{
closed = 1;
nodes = (
"483 -10 OFFCURVE",
"585 71 OFFCURVE",
"585 199 CURVE SMOOTH",
"585 306 OFFCURVE",
"533 347 OFFCURVE",
"325 406 CURVE SMOOTH",
"199 442 OFFCURVE",
"161 470 OFFCURVE",
"161 529 CURVE SMOOTH",
"161 608 OFFCURVE",
"217 650 OFFCURVE",
"322 650 CURVE SMOOTH",
"392 650 OFFCURVE",
"456 612 OFFCURVE",
"485 554 CURVE SMOOTH",
"494 535 OFFCURVE",
"507 527 OFFCURVE",
"526 527 CURVE SMOOTH",
"543 527 OFFCURVE",
"558 532 OFFCURVE",
"566 540 CURVE",
"537 648 OFFCURVE",
"449 710 OFFCURVE",
"322 710 CURVE SMOOTH",
"177 710 OFFCURVE",
"89 641 OFFCURVE",
"89 529 CURVE SMOOTH",
"89 435 OFFCURVE",
"146 388 OFFCURVE",
"316 342 CURVE SMOOTH",
"461 304 OFFCURVE",
"511 266 OFFCURVE",
"511 193 CURVE SMOOTH",
"511 109 OFFCURVE",
"436 52 OFFCURVE",
"324 52 CURVE SMOOTH",
"214 52 OFFCURVE",
"143 103 OFFCURVE",
"122 197 CURVE",
"90 196 OFFCURVE",
"69 178 OFFCURVE",
"69 151 CURVE SMOOTH",
"69 61 OFFCURVE",
"181 -10 OFFCURVE",
"322 -10 CURVE SMOOTH"
);
}
);
width = 642;
},
{
anchors = (
{
name = bottom;
position = "{331, 0}";
},
{
name = top;
position = "{321, 660}";
}
);
layerId = "FD6510A9-FDB4-489D-9A3E-85E488E95339";
paths = (
{
closed = 1;
nodes = (
"502 -10 OFFCURVE",
"615 83 OFFCURVE",
"615 220 CURVE SMOOTH",
"615 312 OFFCURVE",
"562 355 OFFCURVE",
"366 419 CURVE SMOOTH",
"260 454 OFFCURVE",
"235 475 OFFCURVE",
"235 529 CURVE SMOOTH",
"235 577 OFFCURVE",
"270 600 OFFCURVE",
"342 600 CURVE SMOOTH",
"399 600 OFFCURVE",
"431 579 OFFCURVE",
"457 527 CURVE SMOOTH",
"471 500 OFFCURVE",
"482 491 OFFCURVE",
"506 491 CURVE SMOOTH",
"536 491 OFFCURVE",
"583 511 OFFCURVE",
"606 534 CURVE",
"571 645 OFFCURVE",
"473 710 OFFCURVE",
"342 710 CURVE SMOOTH",
"179 710 OFFCURVE",
"79 635 OFFCURVE",
"79 514 CURVE SMOOTH",
"79 405 OFFCURVE",
"151 341 OFFCURVE",
"307 297 CURVE SMOOTH",
"416 266 OFFCURVE",
"457 240 OFFCURVE",
"457 191 CURVE SMOOTH",
"457 130 OFFCURVE",
"417 100 OFFCURVE",
"334 100 CURVE SMOOTH",
"245 100 OFFCURVE",
"190 145 OFFCURVE",
"182 223 CURVE",
"110 222 OFFCURVE",
"69 194 OFFCURVE",
"69 147 CURVE SMOOTH",
"69 49 OFFCURVE",
"168 -10 OFFCURVE",
"332 -10 CURVE SMOOTH"
);
}
);
width = 642;
},
{
anchors = (
{
name = bottom;
position = "{321, 0}";
},
{
name = top;
position = "{321, 660}";
}
);
layerId = "EB12C417-147C-44D3-ABF9-73FB32C0B9E2";
paths = (
{
closed = 1;
nodes = (
"488 -10 OFFCURVE",
"585 63 OFFCURVE",
"585 183 CURVE SMOOTH",
"585 286 OFFCURVE",
"519 336 OFFCURVE",
"332 378 CURVE SMOOTH",
"187 411 OFFCURVE",
"133 452 OFFCURVE",
"133 529 CURVE SMOOTH",
"133 625 OFFCURVE",
"197 674 OFFCURVE",
"320 674 CURVE SMOOTH",
"419 674 OFFCURVE",
"482 640 OFFCURVE",
"517 567 CURVE SMOOTH",
"526 547 OFFCURVE",
"535 540 OFFCURVE",
"548 540 CURVE SMOOTH",
"557 540 OFFCURVE",
"563 543 OFFCURVE",
"567 550 CURVE",
"538 649 OFFCURVE",
"443 710 OFFCURVE",
"320 710 CURVE SMOOTH",
"177 710 OFFCURVE",
"89 641 OFFCURVE",
"89 529 CURVE SMOOTH",
"89 430 OFFCURVE",
"164 369 OFFCURVE",
"323 338 CURVE SMOOTH",
"486 307 OFFCURVE",
"541 266 OFFCURVE",
"541 177 CURVE SMOOTH",
"541 86 OFFCURVE",
"459 28 OFFCURVE",
"330 28 CURVE SMOOTH",
"201 28 OFFCURVE",
"110 86 OFFCURVE",
"96 175 CURVE",
"78 174 OFFCURVE",
"69 165 OFFCURVE",
"69 149 CURVE SMOOTH",
"69 63 OFFCURVE",
"188 -10 OFFCURVE",
"328 -10 CURVE SMOOTH"
);
}
);
width = 642;
},
{
anchors = (
{
name = bottom;
position = "{274, 0}";
},
{
name = top;
position = "{356, 660}";
}
);
layerId = "CF2C6045-422A-4B78-B702-649D3D8A1FBA";
paths = (
{
closed = 1;
nodes = (
"475 -10 OFFCURVE",
"591 84 OFFCURVE",
"591 231 CURVE SMOOTH",
"591 323 OFFCURVE",
"546 363 OFFCURVE",
"379 424 CURVE SMOOTH",
"275 462 OFFCURVE",
"251 481 OFFCURVE",
"251 528 CURVE SMOOTH",
"251 575 OFFCURVE",
"285 600 OFFCURVE",
"349 600 CURVE SMOOTH",
"407 600 OFFCURVE",
"456 576 OFFCURVE",
"485 534 CURVE SMOOTH",
"504 507 OFFCURVE",
"512 502 OFFCURVE",
"533 502 CURVE SMOOTH",
"555 502 OFFCURVE",
"596 526 OFFCURVE",
"624 555 CURVE",
"598 651 OFFCURVE",
"500 710 OFFCURVE",
"364 710 CURVE SMOOTH",
"200 710 OFFCURVE",
"92 630 OFFCURVE",
"92 508 CURVE SMOOTH",
"92 411 OFFCURVE",
"144 359 OFFCURVE",
"292 306 CURVE SMOOTH",
"403 267 OFFCURVE",
"428 247 OFFCURVE",
"428 199 CURVE SMOOTH",
"428 135 OFFCURVE",
"380 100 OFFCURVE",
"293 100 CURVE SMOOTH",
"204 100 OFFCURVE",
"153 145 OFFCURVE",
"156 223 CURVE",
"74 222 OFFCURVE",
"32 189 OFFCURVE",
"32 128 CURVE SMOOTH",
"32 44 OFFCURVE",
"135 -10 OFFCURVE",
"293 -10 CURVE SMOOTH"
);
}
);
width = 642;
},
{
anchors = (
{
name = bottom;
position = "{264, 0}";
},
{
name = top;
position = "{356, 660}";
}
);
layerId = "821A3B53-E0A3-4F70-87DD-68DD21D0650F";
paths = (
{
closed = 1;
nodes = (
"456 -10 OFFCURVE",
"558 74 OFFCURVE",
"558 219 CURVE SMOOTH",
"558 311 OFFCURVE",
"501 357 OFFCURVE",
"325 407 CURVE SMOOTH",
"210 439 OFFCURVE",
"177 467 OFFCURVE",
"177 532 CURVE SMOOTH",
"177 604 OFFCURVE",
"242 650 OFFCURVE",
"344 650 CURVE SMOOTH",
"428 650 OFFCURVE",
"485 619 OFFCURVE",
"510 559 CURVE SMOOTH",
"518 539 OFFCURVE",
"528 532 OFFCURVE",
"545 532 CURVE SMOOTH",
"560 532 OFFCURVE",
"578 538 OFFCURVE",
"589 547 CURVE",
"575 646 OFFCURVE",
"481 710 OFFCURVE",
"349 710 CURVE SMOOTH",
"204 710 OFFCURVE",
"104 637 OFFCURVE",
"104 530 CURVE SMOOTH",
"104 434 OFFCURVE",
"163 379 OFFCURVE",
"307 343 CURVE SMOOTH",
"444 308 OFFCURVE",
"482 278 OFFCURVE",
"482 202 CURVE SMOOTH",
"482 107 OFFCURVE",
"408 52 OFFCURVE",
"279 52 CURVE SMOOTH",
"167 52 OFFCURVE",
"101 104 OFFCURVE",
"93 197 CURVE",
"55 196 OFFCURVE",
"32 173 OFFCURVE",
"32 138 CURVE SMOOTH",
"32 53 OFFCURVE",
"137 -10 OFFCURVE",
"278 -10 CURVE SMOOTH"
);
}
);
width = 642;
},
{
anchors = (
{
name = bottom;
position = "{264, 0}";
},
{
name = top;
position = "{356, 660}";
}
);
layerId = "3E05E8D4-50BE-428E-AA2A-790990B7EE87";
paths = (
{
closed = 1;
nodes = (
"453 -10 OFFCURVE",
"556 67 OFFCURVE",
"556 193 CURVE SMOOTH",
"556 300 OFFCURVE",
"504 345 OFFCURVE",
"328 388 CURVE SMOOTH",
"198 420 OFFCURVE",
"148 458 OFFCURVE",
"148 527 CURVE SMOOTH",
"148 624 OFFCURVE",
"217 674 OFFCURVE",
"353 674 CURVE SMOOTH",
"448 674 OFFCURVE",
"514 636 OFFCURVE",
"539 567 CURVE SMOOTH",
"546 547 OFFCURVE",
"554 540 OFFCURVE",
"567 540 CURVE SMOOTH",
"576 540 OFFCURVE",
"581 543 OFFCURVE",
"587 550 CURVE",
"571 648 OFFCURVE",
"481 710 OFFCURVE",
"354 710 CURVE SMOOTH",
"196 710 OFFCURVE",
"104 642 OFFCURVE",
"104 527 CURVE SMOOTH",
"104 437 OFFCURVE",
"170 384 OFFCURVE",
"313 349 CURVE SMOOTH",
"466 312 OFFCURVE",
"512 279 OFFCURVE",
"512 193 CURVE SMOOTH",
"512 93 OFFCURVE",
"422 28 OFFCURVE",
"282 28 CURVE SMOOTH",
"157 28 OFFCURVE",
"66 89 OFFCURVE",
"65 175 CURVE",
"44 173 OFFCURVE",
"32 160 OFFCURVE",
"32 138 CURVE SMOOTH",
"32 54 OFFCURVE",
"139 -10 OFFCURVE",
"281 -10 CURVE SMOOTH"
);
}
);
width = 642;
}
);
note = S;
unicode = 0053;
},
{
color = 4;
glyphname = T;
lastChange = "2018-07-18 10:11:34 +0000";
layers = (
{
anchors = (
{
name = bottom;
position = "{268, 0}";
},
{
name = center;
position = "{268, 350}";
},
{
name = top;
position = "{268, 660}";
}
);
layerId = "5A4BD32C-A1D1-4EB1-A794-47BD06E3B809";
paths = (
{
closed = 1;
nodes = (
"303 0 LINE",
"303 666 LINE",
"231 666 LINE",
"231 0 LINE"
);
},
{
closed = 1;
nodes = (
"487 640 LINE SMOOTH",
"511 640 OFFCURVE",
"523 654 OFFCURVE",
"523 676 CURVE SMOOTH",
"523 683 OFFCURVE",
"521 691 OFFCURVE",
"519 700 CURVE",
"15 700 LINE",
"15 640 LINE"
);
}
);
width = 534;
},
{
anchors = (
{
name = bottom;
position = "{268, 0}";
},
{
name = center;
position = "{268, 350}";
},
{
name = top;
position = "{268, 660}";
}
);
layerId = "FD6510A9-FDB4-489D-9A3E-85E488E95339";
paths = (
{
closed = 1;
nodes = (
"343 0 LINE",
"343 666 LINE",
"191 666 LINE",
"191 0 LINE"
);
},
{
closed = 1;
nodes = (
"477 590 LINE SMOOTH",
"509 590 OFFCURVE",
"523 611 OFFCURVE",
"523 656 CURVE SMOOTH",
"523 670 OFFCURVE",
"521 688 OFFCURVE",
"519 700 CURVE",
"15 700 LINE",
"15 590 LINE"
);
}
);
width = 534;
},
{
anchors = (
{
name = bottom;
position = "{269, 0}";
},
{
name = center;
position = "{268, 350}";
},
{
name = top;
position = "{270, 660}";
}
);
layerId = "EB12C417-147C-44D3-ABF9-73FB32C0B9E2";
paths = (
{
closed = 1;
nodes = (
"292 0 LINE",
"292 666 LINE",
"250 666 LINE",
"250 0 LINE"
);
},
{
closed = 1;
nodes = (
"497 660 LINE SMOOTH",
"515 660 OFFCURVE",
"523 668 OFFCURVE",
"523 681 CURVE SMOOTH",
"523 688 OFFCURVE",
"521 694 OFFCURVE",
"519 700 CURVE",
"15 700 LINE",
"15 660 LINE"
);
}
);
width = 534;
},
{
anchors = (
{
name = bottom;
position = "{211, 0}";
},
{
name = center;
position = "{260, 350}";
},
{
name = top;
position = "{303, 660}";
}
);
layerId = "CF2C6045-422A-4B78-B702-649D3D8A1FBA";
paths = (
{
closed = 1;
nodes = (
"286 0 LINE",
"379 666 LINE",
"227 666 LINE",
"134 0 LINE"
);
},
{
closed = 1;
nodes = (
"503 590 LINE SMOOTH",
"537 590 OFFCURVE",
"552 614 OFFCURVE",
"558 656 CURVE SMOOTH",
"560 672 OFFCURVE",
"561 690 OFFCURVE",
"560 700 CURVE",
"56 700 LINE",
"41 590 LINE"
);
}
);
width = 534;
},
{
anchors = (
{
name = bottom;
position = "{211, 0}";
},
{
name = center;
position = "{260, 350}";
},
{
name = top;
position = "{303, 660}";
}
);
layerId = "821A3B53-E0A3-4F70-87DD-68DD21D0650F";
paths = (
{
closed = 1;
nodes = (
"246 0 LINE",
"339 666 LINE",
"267 666 LINE",
"174 0 LINE"
);
},
{
closed = 1;
nodes = (
"520 640 LINE SMOOTH",
"544 640 OFFCURVE",
"558 654 OFFCURVE",
"561 676 CURVE SMOOTH",
"562 683 OFFCURVE",
"561 691 OFFCURVE",
"560 700 CURVE",
"56 700 LINE",
"48 640 LINE"
);
}
);
width = 534;
},
{
anchors = (
{
name = bottom;
position = "{211, 0}";
},
{
name = center;
position = "{260, 350}";
},
{
name = top;
position = "{303, 660}";
}
);
layerId = "3E05E8D4-50BE-428E-AA2A-790990B7EE87";
paths = (
{
closed = 1;
nodes = (
"235 0 LINE",
"328 666 LINE",
"286 666 LINE",
"193 0 LINE"
);
},
{
closed = 1;
nodes = (
"532 660 LINE SMOOTH",
"549 660 OFFCURVE",
"560 668 OFFCURVE",
"561 681 CURVE SMOOTH",
"562 686 OFFCURVE",
"562 691 OFFCURVE",
"560 700 CURVE",
"56 700 LINE",
"50 660 LINE"
);
}
);
width = 534;
}
);
note = T;
unicode = 0054;
},
{
color = 4;
glyphname = U;
lastChange = "2018-07-18 10:11:34 +0000";
layers = (
{
anchors = (
{
name = bottom;
position = "{354, 0}";
},
{
name = ogonek;
position = "{445, 10}";
},
{
name = top;
position = "{354, 660}";
},
{
name = topright;
position = "{625, 673}";
}
);
layerId = "5A4BD32C-A1D1-4EB1-A794-47BD06E3B809";
paths = (
{
closed = 1;
nodes = (
"541 -10 OFFCURVE",
"625 72 OFFCURVE",
"625 251 CURVE SMOOTH",
"625 700 LINE",
"553 700 LINE",
"553 241 LINE SMOOTH",
"553 110 OFFCURVE",
"493 52 OFFCURVE",
"356 52 CURVE SMOOTH",
"220 52 OFFCURVE",
"158 112 OFFCURVE",
"158 241 CURVE SMOOTH",
"158 700 LINE",
"86 700 LINE",
"86 251 LINE SMOOTH",
"86 75 OFFCURVE",
"174 -10 OFFCURVE",
"356 -10 CURVE SMOOTH"
);
}
);
width = 708;
},
{
anchors = (
{
name = bottom;
position = "{356, 0}";
},
{
name = ogonek;
position = "{445, 10}";
},
{
name = top;
position = "{354, 660}";
},
{
name = topright;
position = "{625, 673}";
}
);
layerId = "FD6510A9-FDB4-489D-9A3E-85E488E95339";
paths = (
{
closed = 1;
nodes = (
"544 -10 OFFCURVE",
"635 75 OFFCURVE",
"635 251 CURVE SMOOTH",
"635 700 LINE",
"481 700 LINE",
"481 229 LINE SMOOTH",
"481 144 OFFCURVE",
"439 100 OFFCURVE",
"356 100 CURVE SMOOTH",
"275 100 OFFCURVE",
"230 146 OFFCURVE",
"230 229 CURVE SMOOTH",
"230 700 LINE",
"76 700 LINE",
"76 251 LINE SMOOTH",
"76 78 OFFCURVE",
"171 -10 OFFCURVE",
"356 -10 CURVE SMOOTH"
);
}
);
width = 711;
},
{
anchors = (
{
name = bottom;
position = "{354, 0}";
},
{
name = ogonek;
position = "{445, 10}";
},
{
name = top;
position = "{354, 660}";
},
{
name = topright;
position = "{625, 673}";
}
);
layerId = "EB12C417-147C-44D3-ABF9-73FB32C0B9E2";
paths = (
{
closed = 1;
nodes = (
"541 -10 OFFCURVE",
"625 72 OFFCURVE",
"625 251 CURVE SMOOTH",
"625 700 LINE",
"583 700 LINE",
"583 251 LINE SMOOTH",
"583 98 OFFCURVE",
"511 28 OFFCURVE",
"356 28 CURVE SMOOTH",
"202 28 OFFCURVE",
"128 100 OFFCURVE",
"128 251 CURVE SMOOTH",
"128 700 LINE",
"86 700 LINE",
"86 251 LINE SMOOTH",
"86 75 OFFCURVE",
"174 -10 OFFCURVE",
"356 -10 CURVE SMOOTH"
);
}
);
width = 708;
},
{
anchors = (
{
name = bottom;
position = "{299, 0}";
},
{
name = ogonek;
position = "{389, 10}";
},
{
name = top;
position = "{391, 670}";
},
{
name = topright;
position = "{662, 673}";
}
);
layerId = "CF2C6045-422A-4B78-B702-649D3D8A1FBA";
paths = (
{
closed = 1;
nodes = (
"485 -9 OFFCURVE",
"589 76 OFFCURVE",
"613 252 CURVE SMOOTH",
"676 700 LINE",
"522 700 LINE",
"456 230 LINE SMOOTH",
"444 145 OFFCURVE",
"396 101 OFFCURVE",
"313 101 CURVE SMOOTH",
"232 101 OFFCURVE",
"194 146 OFFCURVE",
"205 230 CURVE SMOOTH",
"271 700 LINE",
"117 700 LINE",
"54 252 LINE SMOOTH",
"29 79 OFFCURVE",
"112 -9 OFFCURVE",
"297 -9 CURVE SMOOTH"
);
}
);
width = 711;
},
{
anchors = (
{
name = bottom;
position = "{297, 0}";
},
{
name = ogonek;
position = "{389, 10}";
},
{
name = top;
position = "{388, 650}";
},
{
name = topright;
position = "{662, 673}";
}
);
layerId = "821A3B53-E0A3-4F70-87DD-68DD21D0650F";
paths = (
{
closed = 1;
nodes = (
"482 -10 OFFCURVE",
"578 72 OFFCURVE",
"603 251 CURVE SMOOTH",
"666 700 LINE",
"594 700 LINE",
"530 241 LINE SMOOTH",
"512 110 OFFCURVE",
"443 52 OFFCURVE",
"306 52 CURVE SMOOTH",
"171 52 OFFCURVE",
"117 111 OFFCURVE",
"135 241 CURVE SMOOTH",
"199 700 LINE",
"127 700 LINE",
"64 251 LINE SMOOTH",
"39 75 OFFCURVE",
"115 -10 OFFCURVE",
"297 -10 CURVE SMOOTH"
);
}
);
width = 708;
},
{
anchors = (
{
name = bottom;
position = "{297, 0}";
},
{
name = ogonek;
position = "{389, 10}";
},
{
name = top;
position = "{388, 650}";
},
{
name = topright;
position = "{662, 673}";
}
);
layerId = "3E05E8D4-50BE-428E-AA2A-790990B7EE87";
paths = (
{
closed = 1;
nodes = (
"482 -10 OFFCURVE",
"578 72 OFFCURVE",
"603 251 CURVE SMOOTH",
"666 700 LINE",
"624 700 LINE",
"561 251 LINE SMOOTH",
"540 98 OFFCURVE",
"459 28 OFFCURVE",
"303 28 CURVE SMOOTH",
"149 28 OFFCURVE",
"85 100 OFFCURVE",
"106 251 CURVE SMOOTH",
"169 700 LINE",
"127 700 LINE",
"64 251 LINE SMOOTH",
"39 75 OFFCURVE",
"115 -10 OFFCURVE",
"297 -10 CURVE SMOOTH"
);
}
);
width = 708;
}
);
note = U;
unicode = 0055;
},
{
color = 4;
glyphname = V;
lastChange = "2018-07-18 10:11:34 +0000";
layers = (
{
anchors = (
{
name = bottom;
position = "{319, 0}";
},
{
name = top;
position = "{319, 660}";
}
);
layerId = "5A4BD32C-A1D1-4EB1-A794-47BD06E3B809";
paths = (
{
closed = 1;
nodes = (
"357 0 LINE",
"485 230 OFFCURVE",
"565 454 OFFCURVE",
"608 700 CURVE",
"532 700 LINE",
"496 474 OFFCURVE",
"420 258 OFFCURVE",
"304 52 CURVE",
"334 52 LINE",
"218 258 OFFCURVE",
"142 474 OFFCURVE",
"106 700 CURVE",
"30 700 LINE",
"72 456 OFFCURVE",
"153 232 OFFCURVE",
"282 0 CURVE"
);
}
);
width = 638;
},
{
anchors = (
{
name = bottom;
position = "{319, 0}";
},
{
name = top;
position = "{319, 660}";
}
);
layerId = "FD6510A9-FDB4-489D-9A3E-85E488E95339";
paths = (
{
closed = 1;
nodes = (
"387 0 LINE",
"517 198 OFFCURVE",
"592 424 OFFCURVE",
"618 700 CURVE",
"460 700 LINE",
"434 457 OFFCURVE",
"380 259 OFFCURVE",
"304 132 CURVE",
"334 132 LINE",
"258 259 OFFCURVE",
"204 457 OFFCURVE",
"178 700 CURVE",
"20 700 LINE",
"48 421 OFFCURVE",
"122 196 OFFCURVE",
"252 0 CURVE"
);
}
);
width = 638;
},
{
anchors = (
{
name = bottom;
position = "{319, 0}";
},
{
name = top;
position = "{319, 660}";
}
);
layerId = "EB12C417-147C-44D3-ABF9-73FB32C0B9E2";
paths = (
{
closed = 1;
nodes = (
"342 0 LINE",
"471 184 OFFCURVE",
"562 423 OFFCURVE",
"608 700 CURVE",
"560 700 LINE",
"517 429 OFFCURVE",
"430 199 OFFCURVE",
"305 22 CURVE",
"335 22 LINE",
"209 200 OFFCURVE",
"121 432 OFFCURVE",
"78 700 CURVE",
"30 700 LINE",
"76 425 OFFCURVE",
"168 185 OFFCURVE",
"297 0 CURVE"
);
}
);
width = 638;
},
{
anchors = (
{
name = bottom;
position = "{262, 0}";
},
{
name = top;
position = "{354, 660}";
}
);
layerId = "CF2C6045-422A-4B78-B702-649D3D8A1FBA";
paths = (
{
closed = 1;
nodes = (
"330 0 LINE",
"487 197 OFFCURVE",
"593 423 OFFCURVE",
"659 700 CURVE",
"501 700 LINE",
"441 456 OFFCURVE",
"358 258 OFFCURVE",
"265 132 CURVE",
"295 132 LINE",
"237 259 OFFCURVE",
"211 459 OFFCURVE",
"219 700 CURVE",
"61 700 LINE",
"49 422 OFFCURVE",
"92 196 OFFCURVE",
"195 0 CURVE"
);
}
);
width = 638;
},
{
anchors = (
{
name = bottom;
position = "{262, 0}";
},
{
name = top;
position = "{354, 660}";
}
);
layerId = "821A3B53-E0A3-4F70-87DD-68DD21D0650F";
paths = (
{
closed = 1;
nodes = (
"300 0 LINE",
"461 231 OFFCURVE",
"573 456 OFFCURVE",
"649 700 CURVE",
"573 700 LINE",
"505 473 OFFCURVE",
"398 257 OFFCURVE",
"254 52 CURVE",
"284 52 LINE",
"197 259 OFFCURVE",
"151 475 OFFCURVE",
"147 700 CURVE",
"71 700 LINE",
"80 454 OFFCURVE",
"129 230 OFFCURVE",
"225 0 CURVE"
);
}
);
width = 638;
},
{
anchors = (
{
name = bottom;
position = "{262, 0}";
},
{
name = top;
position = "{354, 660}";
}
);
layerId = "3E05E8D4-50BE-428E-AA2A-790990B7EE87";
paths = (
{
closed = 1;
nodes = (
"285 0 LINE",
"439 183 OFFCURVE",
"563 422 OFFCURVE",
"649 700 CURVE",
"601 700 LINE",
"519 428 OFFCURVE",
"401 198 OFFCURVE",
"251 22 CURVE",
"281 22 LINE",
"179 201 OFFCURVE",
"124 434 OFFCURVE",
"119 700 CURVE",
"71 700 LINE",
"78 427 OFFCURVE",
"136 186 OFFCURVE",
"240 0 CURVE"
);
}
);
width = 638;
}
);
note = V;
unicode = 0056;
},
{
color = 4;
glyphname = W;
lastChange = "2018-07-18 10:11:34 +0000";
layers = (
{
anchors = (
{
name = bottom;
position = "{433, 0}";
},
{
name = top;
position = "{433, 660}";
}
);
layerId = "5A4BD32C-A1D1-4EB1-A794-47BD06E3B809";
paths = (
{
closed = 1;
nodes = (
"282 0 LINE",
"370 291 OFFCURVE",
"407 430 OFFCURVE",
"441 588 CURVE",
"425 588 LINE",
"455 444 OFFCURVE",
"484 336 OFFCURVE",
"584 0 CURVE",
"666 0 LINE",
"770 341 OFFCURVE",
"813 512 OFFCURVE",
"841 700 CURVE",
"773 700 LINE",
"748 525 OFFCURVE",
"709 367 OFFCURVE",
"614 59 CURVE",
"637 60 LINE",
"589 208 OFFCURVE",
"578 245 OFFCURVE",
"452 700 CURVE",
"410 700 LINE",
"326 371 OFFCURVE",
"289 240 OFFCURVE",
"229 60 CURVE",
"252 59 LINE",
"154 367 OFFCURVE",
"113 525 OFFCURVE",
"87 700 CURVE",
"15 700 LINE",
"47 507 OFFCURVE",
"95 324 OFFCURVE",
"200 0 CURVE"
);
}
);
width = 856;
},
{
anchors = (
{
name = bottom;
position = "{453, 0}";
},
{
name = top;
position = "{453, 660}";
}
);
layerId = "FD6510A9-FDB4-489D-9A3E-85E488E95339";
paths = (
{
closed = 1;
nodes = (
"342 0 LINE",
"407 189 OFFCURVE",
"432 289 OFFCURVE",
"461 468 CURVE",
"445 468 LINE",
"471 299 OFFCURVE",
"496 201 OFFCURVE",
"564 0 CURVE",
"726 0 LINE",
"804 199 OFFCURVE",
"849 401 OFFCURVE",
"881 700 CURVE",
"733 700 LINE",
"705 404 OFFCURVE",
"688 301 OFFCURVE",
"634 119 CURVE",
"657 120 LINE",
"598 301 OFFCURVE",
"580 373 OFFCURVE",
"512 700 CURVE",
"390 700 LINE",
"333 396 OFFCURVE",
"313 313 OFFCURVE",
"249 120 CURVE",
"272 119 LINE",
"216 304 OFFCURVE",
"197 410 OFFCURVE",
"167 700 CURVE",
"15 700 LINE",
"52 396 OFFCURVE",
"99 196 OFFCURVE",
"180 0 CURVE"
);
}
);
width = 896;
},
{
anchors = (
{
name = bottom;
position = "{428, 0}";
},
{
name = top;
position = "{428, 660}";
}
);
layerId = "EB12C417-147C-44D3-ABF9-73FB32C0B9E2";
paths = (
{
closed = 1;
nodes = (
"262 0 LINE",
"370 344 OFFCURVE",
"411 489 OFFCURVE",
"441 628 CURVE",
"425 628 LINE",
"456 490 OFFCURVE",
"495 353 OFFCURVE",
"604 0 CURVE",
"646 0 LINE",
"754 282 OFFCURVE",
"811 487 OFFCURVE",
"841 700 CURVE",
"803 700 LINE",
"774 510 OFFCURVE",
"698 240 OFFCURVE",
"614 29 CURVE",
"637 30 LINE",
"577 205 OFFCURVE",
"510 435 OFFCURVE",
"442 700 CURVE",
"420 700 LINE",
"357 435 OFFCURVE",
"297 225 OFFCURVE",
"229 30 CURVE",
"252 29 LINE",
"167 237 OFFCURVE",
"88 508 OFFCURVE",
"57 700 CURVE",
"15 700 LINE",
"48 482 OFFCURVE",
"110 272 OFFCURVE",
"220 0 CURVE"
);
}
);
width = 856;
},
{
anchors = (
{
name = bottom;
position = "{396, 0}";
},
{
name = top;
position = "{490, 670}";
}
);
layerId = "CF2C6045-422A-4B78-B702-649D3D8A1FBA";
paths = (
{
closed = 1;
nodes = (
"285 0 LINE",
"377 190 OFFCURVE",
"416 290 OFFCURVE",
"469 468 CURVE",
"453 468 LINE",
"456 298 OFFCURVE",
"467 201 OFFCURVE",
"507 0 CURVE",
"669 0 LINE",
"775 199 OFFCURVE",
"848 400 OFFCURVE",
"922 700 CURVE",
"774 700 LINE",
"705 403 OFFCURVE",
"673 300 OFFCURVE",
"593 119 CURVE",
"617 120 LINE",
"582 304 OFFCURVE",
"574 379 OFFCURVE",
"553 700 CURVE",
"431 700 LINE",
"330 392 OFFCURVE",
"298 310 OFFCURVE",
"209 120 CURVE",
"231 119 LINE",
"202 304 OFFCURVE",
"197 411 OFFCURVE",
"208 700 CURVE",
"56 700 LINE",
"50 396 OFFCURVE",
"69 196 OFFCURVE",
"123 0 CURVE"
);
}
);
width = 896;
},
{
anchors = (
{
name = bottom;
position = "{376, 0}";
},
{
name = top;
position = "{468, 660}";
}
);
layerId = "821A3B53-E0A3-4F70-87DD-68DD21D0650F";
paths = (
{
closed = 1;
nodes = (
"225 0 LINE",
"359 305 OFFCURVE",
"412 435 OFFCURVE",
"466 588 CURVE",
"450 588 LINE",
"461 440 OFFCURVE",
"476 319 OFFCURVE",
"527 0 CURVE",
"609 0 LINE",
"764 349 OFFCURVE",
"828 514 OFFCURVE",
"882 700 CURVE",
"814 700 LINE",
"764 523 OFFCURVE",
"701 360 OFFCURVE",
"565 59 CURVE",
"588 60 LINE",
"559 217 OFFCURVE",
"548 295 OFFCURVE",
"493 700 CURVE",
"451 700 LINE",
"312 350 OFFCURVE",
"262 232 OFFCURVE",
"180 60 CURVE",
"203 59 LINE",
"147 374 OFFCURVE",
"129 527 OFFCURVE",
"128 700 CURVE",
"56 700 LINE",
"61 505 OFFCURVE",
"85 317 OFFCURVE",
"143 0 CURVE"
);
}
);
width = 856;
},
{
anchors = (
{
name = bottom;
position = "{371, 0}";
},
{
name = top;
position = "{463, 660}";
}
);
layerId = "3E05E8D4-50BE-428E-AA2A-790990B7EE87";
paths = (
{
closed = 1;
nodes = (
"205 0 LINE",
"358 337 OFFCURVE",
"422 488 OFFCURVE",
"472 628 CURVE",
"456 628 LINE",
"464 500 OFFCURVE",
"477 410 OFFCURVE",
"547 0 CURVE",
"589 0 LINE",
"738 286 OFFCURVE",
"823 488 OFFCURVE",
"882 700 CURVE",
"844 700 LINE",
"788 509 OFFCURVE",
"674 238 OFFCURVE",
"561 29 CURVE",
"584 30 LINE",
"548 208 OFFCURVE",
"518 407 OFFCURVE",
"483 700 CURVE",
"461 700 LINE",
"359 432 OFFCURVE",
"270 223 OFFCURVE",
"176 30 CURVE",
"199 29 LINE",
"143 239 OFFCURVE",
"102 509 OFFCURVE",
"98 700 CURVE",
"56 700 LINE",
"59 480 OFFCURVE",
"92 268 OFFCURVE",
"163 0 CURVE"
);
}
);
width = 856;
}
);
note = W;
unicode = 0057;
},
{
color = 4;
glyphname = X;
lastChange = "2018-07-18 10:11:34 +0000";
layers = (
{
anchors = (
{
name = bottom;
position = "{301, 0}";
},
{
name = top;
position = "{301, 660}";
}
);
layerId = "5A4BD32C-A1D1-4EB1-A794-47BD06E3B809";
paths = (
{
closed = 1;
nodes = (
"558 0 LINE",
"495 353 OFFCURVE",
"177 407 OFFCURVE",
"114 700 CURVE",
"39 700 LINE",
"101 387 OFFCURVE",
"429 313 OFFCURVE",
"481 0 CURVE"
);
},
{
closed = 1;
nodes = (
"101 0 LINE",
"153 313 OFFCURVE",
"481 387 OFFCURVE",
"543 700 CURVE",
"468 700 LINE",
"405 407 OFFCURVE",
"87 353 OFFCURVE",
"24 0 CURVE"
);
}
);
width = 582;
},
{
anchors = (
{
name = bottom;
position = "{291, 0}";
},
{
name = top;
position = "{291, 660}";
}
);
layerId = "FD6510A9-FDB4-489D-9A3E-85E488E95339";
paths = (
{
closed = 1;
nodes = (
"598 0 LINE",
"535 353 OFFCURVE",
"237 407 OFFCURVE",
"174 700 CURVE",
"19 700 LINE",
"81 387 OFFCURVE",
"389 313 OFFCURVE",
"441 0 CURVE"
);
},
{
closed = 1;
nodes = (
"161 0 LINE",
"213 313 OFFCURVE",
"521 387 OFFCURVE",
"583 700 CURVE",
"428 700 LINE",
"365 407 OFFCURVE",
"67 353 OFFCURVE",
"4 0 CURVE"
);
}
);
width = 602;
},
{
anchors = (
{
name = bottom;
position = "{301, 0}";
},
{
name = top;
position = "{301, 660}";
}
);
layerId = "EB12C417-147C-44D3-ABF9-73FB32C0B9E2";
paths = (
{
closed = 1;
nodes = (
"558 0 LINE",
"495 353 OFFCURVE",
"147 397 OFFCURVE",
"84 700 CURVE",
"39 700 LINE",
"101 387 OFFCURVE",
"459 323 OFFCURVE",
"511 0 CURVE"
);
},
{
closed = 1;
nodes = (
"71 0 LINE",
"123 323 OFFCURVE",
"481 387 OFFCURVE",
"543 700 CURVE",
"498 700 LINE",
"435 397 OFFCURVE",
"87 353 OFFCURVE",
"24 0 CURVE"
);
}
);
width = 582;
},
{
anchors = (
{
name = bottom;
position = "{234, 0}";
},
{
name = top;
position = "{326, 660}";
}
);
layerId = "CF2C6045-422A-4B78-B702-649D3D8A1FBA";
paths = (
{
closed = 1;
nodes = (
"104 0 LINE",
"200 313 OFFCURVE",
"518 387 OFFCURVE",
"624 700 CURVE",
"469 700 LINE",
"365 407 OFFCURVE",
"59 353 OFFCURVE",
"-53 0 CURVE"
);
},
{
closed = 1;
nodes = (
"541 0 LINE",
"527 353 OFFCURVE",
"237 407 OFFCURVE",
"215 700 CURVE",
"60 700 LINE",
"78 387 OFFCURVE",
"376 313 OFFCURVE",
"384 0 CURVE"
);
}
);
width = 602;
},
{
anchors = (
{
name = bottom;
position = "{244, 0}";
},
{
name = top;
position = "{336, 660}";
}
);
layerId = "821A3B53-E0A3-4F70-87DD-68DD21D0650F";
paths = (
{
closed = 1;
nodes = (
"44 0 LINE",
"140 313 OFFCURVE",
"478 387 OFFCURVE",
"584 700 CURVE",
"509 700 LINE",
"405 407 OFFCURVE",
"79 353 OFFCURVE",
"-33 0 CURVE"
);
},
{
closed = 1;
nodes = (
"501 0 LINE",
"487 353 OFFCURVE",
"177 407 OFFCURVE",
"155 700 CURVE",
"80 700 LINE",
"98 387 OFFCURVE",
"416 313 OFFCURVE",
"424 0 CURVE"
);
}
);
width = 582;
},
{
anchors = (
{
name = bottom;
position = "{244, 0}";
},
{
name = top;
position = "{336, 660}";
}
);
layerId = "3E05E8D4-50BE-428E-AA2A-790990B7EE87";
paths = (
{
closed = 1;
nodes = (
"14 0 LINE",
"111 323 OFFCURVE",
"478 387 OFFCURVE",
"584 700 CURVE",
"539 700 LINE",
"433 397 OFFCURVE",
"79 353 OFFCURVE",
"-33 0 CURVE"
);
},
{
closed = 1;
nodes = (
"501 0 LINE",
"487 353 OFFCURVE",
"145 397 OFFCURVE",
"125 700 CURVE",
"80 700 LINE",
"98 387 OFFCURVE",
"447 323 OFFCURVE",
"454 0 CURVE"
);
}
);
width = 582;
}
);
note = X;
unicode = 0058;
},
{
color = 4;
glyphname = Y;
lastChange = "2018-07-18 10:11:34 +0000";
layers = (
{
anchors = (
{
name = bottom;
position = "{295, 0}";
},
{
name = top;
position = "{295, 660}";
},
{
name = topleft;
position = "{20, 700}";
}
);
layerId = "5A4BD32C-A1D1-4EB1-A794-47BD06E3B809";
paths = (
{
closed = 1;
nodes = (
"331 0 LINE",
"331 294 LINE",
"570 700 LINE",
"493 700 LINE",
"275 325 LINE",
"317 325 LINE",
"98 700 LINE",
"20 700 LINE",
"259 294 LINE",
"259 0 LINE"
);
}
);
width = 590;
},
{
anchors = (
{
name = bottom;
position = "{295, 0}";
},
{
name = top;
position = "{295, 660}";
},
{
name = topleft;
position = "{20, 700}";
}
);
layerId = "FD6510A9-FDB4-489D-9A3E-85E488E95339";
paths = (
{
closed = 1;
nodes = (
"371 0 LINE",
"371 294 LINE",
"580 700 LINE",
"423 700 LINE",
"275 385 LINE",
"317 385 LINE",
"168 700 LINE",
"10 700 LINE",
"219 294 LINE",
"219 0 LINE"
);
}
);
width = 590;
},
{
anchors = (
{
name = bottom;
position = "{295, 0}";
},
{
name = top;
position = "{295, 660}";
},
{
name = topleft;
position = "{20, 700}";
}
);
layerId = "EB12C417-147C-44D3-ABF9-73FB32C0B9E2";
paths = (
{
closed = 1;
nodes = (
"316 0 LINE",
"316 294 LINE",
"570 700 LINE",
"523 700 LINE",
"285 305 LINE",
"307 305 LINE",
"68 700 LINE",
"20 700 LINE",
"274 294 LINE",
"274 0 LINE"
);
}
);
width = 590;
},
{
anchors = (
{
name = bottom;
position = "{238, 0}";
},
{
name = top;
position = "{330, 660}";
},
{
name = topleft;
position = "{61, 700}";
}
);
layerId = "CF2C6045-422A-4B78-B702-649D3D8A1FBA";
paths = (
{
closed = 1;
nodes = (
"314 0 LINE",
"355 294 LINE",
"621 700 LINE",
"464 700 LINE",
"272 385 LINE",
"314 385 LINE",
"209 700 LINE",
"51 700 LINE",
"203 294 LINE",
"162 0 LINE"
);
}
);
width = 590;
},
{
anchors = (
{
name = bottom;
position = "{238, 0}";
},
{
name = top;
position = "{330, 660}";
},
{
name = topleft;
position = "{61, 700}";
}
);
layerId = "821A3B53-E0A3-4F70-87DD-68DD21D0650F";
paths = (
{
closed = 1;
nodes = (
"274 0 LINE",
"315 294 LINE",
"611 700 LINE",
"534 700 LINE",
"263 325 LINE",
"305 325 LINE",
"139 700 LINE",
"61 700 LINE",
"243 294 LINE",
"202 0 LINE"
);
}
);
width = 590;
},
{
anchors = (
{
name = bottom;
position = "{238, 0}";
},
{
name = top;
position = "{330, 660}";
},
{
name = topleft;
position = "{61, 700}";
}
);
layerId = "3E05E8D4-50BE-428E-AA2A-790990B7EE87";
paths = (
{
closed = 1;
nodes = (
"259 0 LINE",
"300 294 LINE",
"611 700 LINE",
"564 700 LINE",
"271 305 LINE",
"293 305 LINE",
"109 700 LINE",
"61 700 LINE",
"258 294 LINE",
"217 0 LINE"
);
}
);
width = 590;
}
);
note = Y;
unicode = 0059;
},
{
color = 4;
glyphname = Z;
lastChange = "2018-07-18 10:11:34 +0000";
layers = (
{
anchors = (
{
name = bottom;
position = "{290, 0}";
},
{
name = top;
position = "{290, 660}";
}
);
layerId = "5A4BD32C-A1D1-4EB1-A794-47BD06E3B809";
paths = (
{
closed = 1;
nodes = (
"528 0 LINE",
"528 60 LINE",
"93 60 LINE",
"113 22 LINE",
"520 636 LINE",
"520 700 LINE",
"52 700 LINE",
"52 640 LINE",
"486 640 LINE",
"466 677 LINE",
"54 60 LINE",
"54 0 LINE"
);
}
);
width = 580;
},
{
anchors = (
{
name = bottom;
position = "{280, 0}";
},
{
name = top;
position = "{280, 660}";
}
);
layerId = "FD6510A9-FDB4-489D-9A3E-85E488E95339";
paths = (
{
closed = 1;
nodes = (
"538 0 LINE",
"538 100 LINE",
"163 100 LINE",
"183 52 LINE",
"530 596 LINE",
"530 700 LINE",
"42 700 LINE",
"42 600 LINE",
"416 600 LINE",
"396 647 LINE",
"44 100 LINE",
"44 0 LINE"
);
}
);
width = 580;
},
{
anchors = (
{
name = bottom;
position = "{290, 0}";
},
{
name = top;
position = "{290, 660}";
}
);
layerId = "EB12C417-147C-44D3-ABF9-73FB32C0B9E2";
paths = (
{
closed = 1;
nodes = (
"528 0 LINE",
"528 40 LINE",
"68 40 LINE",
"88 12 LINE",
"520 666 LINE",
"520 700 LINE",
"52 700 LINE",
"52 660 LINE",
"506 660 LINE",
"489 687 LINE",
"54 40 LINE",
"54 0 LINE"
);
}
);
width = 580;
},
{
anchors = (
{
name = bottom;
position = "{223, 0}";
},
{
name = top;
position = "{315, 660}";
}
);
layerId = "CF2C6045-422A-4B78-B702-649D3D8A1FBA";
paths = (
{
closed = 1;
nodes = (
"481 0 LINE",
"495 100 LINE",
"120 100 LINE",
"133 52 LINE",
"556 596 LINE",
"571 700 LINE",
"83 700 LINE",
"69 600 LINE",
"443 600 LINE",
"430 647 LINE",
"1 100 LINE",
"-13 0 LINE"
);
}
);
width = 580;
},
{
anchors = (
{
name = bottom;
position = "{233, 0}";
},
{
name = top;
position = "{325, 660}";
}
);
layerId = "821A3B53-E0A3-4F70-87DD-68DD21D0650F";
paths = (
{
closed = 1;
nodes = (
"471 0 LINE",
"479 60 LINE",
"44 60 LINE",
"59 22 LINE",
"552 636 LINE",
"561 700 LINE",
"93 700 LINE",
"85 640 LINE",
"519 640 LINE",
"504 677 LINE",
"5 60 LINE",
"-3 0 LINE"
);
}
);
width = 580;
},
{
anchors = (
{
name = bottom;
position = "{233, 0}";
},
{
name = top;
position = "{325, 660}";
}
);
layerId = "3E05E8D4-50BE-428E-AA2A-790990B7EE87";
paths = (
{
closed = 1;
nodes = (
"471 0 LINE",
"476 40 LINE",
"16 40 LINE",
"32 12 LINE",
"556 666 LINE",
"561 700 LINE",
"93 700 LINE",
"87 660 LINE",
"541 660 LINE",
"528 687 LINE",
"2 40 LINE",
"-3 0 LINE"
);
}
);
width = 580;
}
);
note = Z;
unicode = 005A;
},
{
color = 4;
glyphname = a;
lastChange = "2018-07-18 10:11:34 +0000";
layers = (
{
anchors = (
{
name = bottom;
position = "{279, 0}";
},
{
name = ogonek;
position = "{502, 10}";
},
{
name = top;
position = "{277, 550}";
}
);
layerId = "5A4BD32C-A1D1-4EB1-A794-47BD06E3B809";
paths = (
{
closed = 1;
nodes = (
"477 -5 OFFCURVE",
"497 4 OFFCURVE",
"510 17 CURVE",
"485 45 OFFCURVE",
"476 75 OFFCURVE",
"476 137 CURVE SMOOTH",
"476 373 LINE SMOOTH",
"476 489 OFFCURVE",
"400 560 OFFCURVE",
"276 560 CURVE SMOOTH",
"189 560 OFFCURVE",
"111 522 OFFCURVE",
"51 451 CURVE",
"72 421 OFFCURVE",
"97 410 OFFCURVE",
"111 424 CURVE SMOOTH",
"169 482 OFFCURVE",
"214 504 OFFCURVE",
"273 504 CURVE SMOOTH",
"364 504 OFFCURVE",
"408 461 OFFCURVE",
"408 373 CURVE SMOOTH",
"408 116 LINE SMOOTH",
"408 41 OFFCURVE",
"428 -5 OFFCURVE",
"461 -5 CURVE SMOOTH"
);
},
{
closed = 1;
nodes = (
"308 -10 OFFCURVE",
"392 38 OFFCURVE",
"427 109 CURVE",
"422 185 LINE",
"375 97 OFFCURVE",
"303 46 OFFCURVE",
"223 46 CURVE SMOOTH",
"154 46 OFFCURVE",
"120 75 OFFCURVE",
"120 134 CURVE SMOOTH",
"120 229 OFFCURVE",
"221 279 OFFCURVE",
"422 286 CURVE",
"422 342 LINE",
"180 333 OFFCURVE",
"50 260 OFFCURVE",
"50 133 CURVE SMOOTH",
"50 47 OFFCURVE",
"117 -10 OFFCURVE",
"218 -10 CURVE SMOOTH"
);
}
);
width = 558;
},
{
anchors = (
{
name = bottom;
position = "{279, 0}";
},
{
name = ogonek;
position = "{502, 10}";
},
{
name = top;
position = "{277, 550}";
}
);
layerId = "FD6510A9-FDB4-489D-9A3E-85E488E95339";
paths = (
{
closed = 1;
nodes = (
"461 -7 OFFCURVE",
"510 7 OFFCURVE",
"539 27 CURVE",
"513 61 OFFCURVE",
"506 98 OFFCURVE",
"506 207 CURVE SMOOTH",
"506 373 LINE SMOOTH",
"506 493 OFFCURVE",
"428 560 OFFCURVE",
"290 560 CURVE SMOOTH",
"198 560 OFFCURVE",
"93 527 OFFCURVE",
"41 481 CURVE",
"66 417 OFFCURVE",
"105 381 OFFCURVE",
"130 398 CURVE SMOOTH",
"192 440 OFFCURVE",
"228 454 OFFCURVE",
"271 454 CURVE SMOOTH",
"330 454 OFFCURVE",
"358 428 OFFCURVE",
"358 373 CURVE SMOOTH",
"358 146 LINE SMOOTH",
"358 38 OFFCURVE",
"378 -7 OFFCURVE",
"425 -7 CURVE SMOOTH"
);
},
{
closed = 1;
nodes = (
"294 -10 OFFCURVE",
"344 20 OFFCURVE",
"382 104 CURVE",
"372 202 LINE",
"339 123 OFFCURVE",
"301 86 OFFCURVE",
"255 86 CURVE SMOOTH",
"216 86 OFFCURVE",
"190 110 OFFCURVE",
"190 149 CURVE SMOOTH",
"190 213 OFFCURVE",
"256 246 OFFCURVE",
"382 246 CURVE",
"382 322 LINE",
"143 313 OFFCURVE",
"40 257 OFFCURVE",
"40 133 CURVE SMOOTH",
"40 48 OFFCURVE",
"106 -10 OFFCURVE",
"203 -10 CURVE SMOOTH"
);
}
);
width = 568;
},
{
anchors = (
{
name = bottom;
position = "{279, 0}";
},
{
name = ogonek;
position = "{502, 10}";
},
{
name = top;
position = "{277, 550}";
}
);
layerId = "EB12C417-147C-44D3-ABF9-73FB32C0B9E2";
paths = (
{
closed = 1;
nodes = (
"494 -5 OFFCURVE",
"509 7 OFFCURVE",
"510 17 CURVE",
"485 36 OFFCURVE",
"476 64 OFFCURVE",
"476 127 CURVE SMOOTH",
"476 373 LINE SMOOTH",
"476 492 OFFCURVE",
"407 560 OFFCURVE",
"286 560 CURVE SMOOTH",
"194 560 OFFCURVE",
"107 524 OFFCURVE",
"51 461 CURVE",
"61 441 OFFCURVE",
"81 433 OFFCURVE",
"92 444 CURVE SMOOTH",
"145 497 OFFCURVE",
"209 524 OFFCURVE",
"283 524 CURVE SMOOTH",
"383 524 OFFCURVE",
"434 473 OFFCURVE",
"434 373 CURVE SMOOTH",
"434 111 LINE SMOOTH",
"434 46 OFFCURVE",
"456 -5 OFFCURVE",
"484 -5 CURVE SMOOTH"
);
},
{
closed = 1;
nodes = (
"311 -10 OFFCURVE",
"406 45 OFFCURVE",
"451 130 CURVE",
"452 186 LINE",
"394 86 OFFCURVE",
"304 26 OFFCURVE",
"213 26 CURVE SMOOTH",
"141 26 OFFCURVE",
"92 72 OFFCURVE",
"92 138 CURVE SMOOTH",
"92 245 OFFCURVE",
"206 298 OFFCURVE",
"452 306 CURVE",
"452 342 LINE",
"184 333 OFFCURVE",
"50 264 OFFCURVE",
"50 137 CURVE SMOOTH",
"50 52 OFFCURVE",
"117 -10 OFFCURVE",
"208 -10 CURVE SMOOTH"
);
}
);
width = 558;
},
{
anchors = (
{
name = bottom;
position = "{222, 0}";
},
{
name = ogonek;
position = "{446, 10}";
},
{
name = top;
position = "{297, 550}";
}
);
layerId = "CF2C6045-422A-4B78-B702-649D3D8A1FBA";
paths = (
{
closed = 1;
nodes = (
"406 -7 OFFCURVE",
"456 9 OFFCURVE",
"485 27 CURVE",
"463 62 OFFCURVE",
"463 101 OFFCURVE",
"478 207 CURVE SMOOTH",
"501 373 LINE SMOOTH",
"517 488 OFFCURVE",
"454 560 OFFCURVE",
"311 560 CURVE SMOOTH",
"202 560 OFFCURVE",
"99 518 OFFCURVE",
"51 481 CURVE",
"67 417 OFFCURVE",
"101 381 OFFCURVE",
"129 398 CURVE SMOOTH",
"172 425 OFFCURVE",
"219 454 OFFCURVE",
"278 454 CURVE SMOOTH",
"341 454 OFFCURVE",
"360 425 OFFCURVE",
"353 373 CURVE SMOOTH",
"321 146 LINE SMOOTH",
"306 41 OFFCURVE",
"318 -7 OFFCURVE",
"367 -7 CURVE SMOOTH"
);
},
{
closed = 1;
nodes = (
"249 -10 OFFCURVE",
"296 32 OFFCURVE",
"339 104 CURVE",
"343 202 LINE",
"307 137 OFFCURVE",
"265 86 OFFCURVE",
"211 86 CURVE SMOOTH",
"172 86 OFFCURVE",
"155 111 OFFCURVE",
"155 150 CURVE SMOOTH",
"155 204 OFFCURVE",
"194 246 OFFCURVE",
"359 246 CURVE",
"370 322 LINE",
"137 314 OFFCURVE",
"2 266 OFFCURVE",
"2 134 CURVE SMOOTH",
"2 40 OFFCURVE",
"67 -10 OFFCURVE",
"145 -10 CURVE SMOOTH"
);
}
);
width = 568;
},
{
anchors = (
{
name = bottom;
position = "{222, 0}";
},
{
name = ogonek;
position = "{446, 10}";
},
{
name = top;
position = "{297, 550}";
}
);
layerId = "821A3B53-E0A3-4F70-87DD-68DD21D0650F";
paths = (
{
closed = 1;
nodes = (
"419 -5 OFFCURVE",
"440 4 OFFCURVE",
"455 17 CURVE",
"436 42 OFFCURVE",
"428 69 OFFCURVE",
"438 137 CURVE SMOOTH",
"471 373 LINE SMOOTH",
"487 489 OFFCURVE",
"420 560 OFFCURVE",
"297 560 CURVE SMOOTH",
"198 560 OFFCURVE",
"118 513 OFFCURVE",
"57 451 CURVE",
"72 424 OFFCURVE",
"95 408 OFFCURVE",
"113 424 CURVE SMOOTH",
"159 464 OFFCURVE",
"209 504 OFFCURVE",
"287 504 CURVE SMOOTH",
"380 504 OFFCURVE",
"415 459 OFFCURVE",
"403 373 CURVE SMOOTH",
"367 116 LINE SMOOTH",
"355 32 OFFCURVE",
"374 -5 OFFCURVE",
"403 -5 CURVE SMOOTH"
);
},
{
closed = 1;
nodes = (
"267 -10 OFFCURVE",
"346 48 OFFCURVE",
"385 109 CURVE",
"391 185 LINE",
"334 100 OFFCURVE",
"260 46 OFFCURVE",
"182 46 CURVE SMOOTH",
"114 46 OFFCURVE",
"81 75 OFFCURVE",
"81 134 CURVE SMOOTH",
"81 232 OFFCURVE",
"178 279 OFFCURVE",
"405 286 CURVE",
"413 342 LINE",
"159 334 OFFCURVE",
"11 270 OFFCURVE",
"11 133 CURVE SMOOTH",
"11 40 OFFCURVE",
"77 -10 OFFCURVE",
"169 -10 CURVE SMOOTH"
);
}
);
width = 558;
},
{
anchors = (
{
name = bottom;
position = "{222, 0}";
},
{
name = ogonek;
position = "{446, 10}";
},
{
name = top;
position = "{297, 550}";
}
);
layerId = "3E05E8D4-50BE-428E-AA2A-790990B7EE87";
paths = (
{
closed = 1;
nodes = (
"437 -5 OFFCURVE",
"453 8 OFFCURVE",
"455 17 CURVE",
"432 36 OFFCURVE",
"428 65 OFFCURVE",
"437 127 CURVE SMOOTH",
"471 373 LINE SMOOTH",
"488 490 OFFCURVE",
"424 560 OFFCURVE",
"302 560 CURVE SMOOTH",
"210 560 OFFCURVE",
"125 526 OFFCURVE",
"58 463 CURVE",
"66 442 OFFCURVE",
"85 433 OFFCURVE",
"97 444 CURVE SMOOTH",
"158 497 OFFCURVE",
"225 524 OFFCURVE",
"299 524 CURVE SMOOTH",
"393 524 OFFCURVE",
"442 467 OFFCURVE",
"429 373 CURVE SMOOTH",
"392 111 LINE SMOOTH",
"383 45 OFFCURVE",
"398 -5 OFFCURVE",
"426 -5 CURVE SMOOTH"
);
},
{
closed = 1;
nodes = (
"267 -10 OFFCURVE",
"352 39 OFFCURVE",
"412 130 CURVE",
"421 189 LINE",
"347 77 OFFCURVE",
"268 26 OFFCURVE",
"169 26 CURVE SMOOTH",
"102 26 OFFCURVE",
"54 73 OFFCURVE",
"54 138 CURVE SMOOTH",
"54 247 OFFCURVE",
"171 298 OFFCURVE",
"438 306 CURVE",
"443 342 LINE",
"147 334 OFFCURVE",
"12 269 OFFCURVE",
"12 137 CURVE SMOOTH",
"12 50 OFFCURVE",
"76 -10 OFFCURVE",
"169 -10 CURVE SMOOTH"
);
}
);
width = 558;
}
);
note = a;
unicode = 0061;
},
{
color = 4;
glyphname = b;
lastChange = "2018-07-18 10:11:34 +0000";
layers = (
{
layerId = "5A4BD32C-A1D1-4EB1-A794-47BD06E3B809";
paths = (
{
closed = 1;
nodes = (
"481 -10 OFFCURVE",
"570 100 OFFCURVE",
"570 284 CURVE SMOOTH",
"570 460 OFFCURVE",
"486 560 OFFCURVE",
"338 560 CURVE SMOOTH",
"266 560 OFFCURVE",
"202 537 OFFCURVE",
"148 491 CURVE",
"148 427 LINE",
"201 477 OFFCURVE",
"268 504 OFFCURVE",
"338 504 CURVE SMOOTH",
"442 504 OFFCURVE",
"500 425 OFFCURVE",
"500 284 CURVE SMOOTH",
"500 133 OFFCURVE",
"440 48 OFFCURVE",
"333 48 CURVE SMOOTH",
"252 48 OFFCURVE",
"188 85 OFFCURVE",
"149 155 CURVE",
"143 84 LINE",
"184 21 OFFCURVE",
"246 -10 OFFCURVE",
"333 -10 CURVE SMOOTH"
);
},
{
closed = 1;
nodes = (
"156 0 OFFCURVE",
"171 41 OFFCURVE",
"171 108 CURVE SMOOTH",
"171 791 LINE",
"101 791 LINE",
"101 132 LINE SMOOTH",
"101 79 OFFCURVE",
"95 41 OFFCURVE",
"82 12 CURVE",
"95 4 OFFCURVE",
"112 0 OFFCURVE",
"132 0 CURVE SMOOTH"
);
}
);
width = 610;
},
{
layerId = "FD6510A9-FDB4-489D-9A3E-85E488E95339";
paths = (
{
closed = 1;
nodes = (
"483 -10 OFFCURVE",
"570 101 OFFCURVE",
"570 274 CURVE SMOOTH",
"570 448 OFFCURVE",
"483 560 OFFCURVE",
"348 560 CURVE SMOOTH",
"284 560 OFFCURVE",
"240 539 OFFCURVE",
"195 488 CURVE",
"199 391 LINE",
"212 432 OFFCURVE",
"263 466 OFFCURVE",
"312 466 CURVE SMOOTH",
"384 466 OFFCURVE",
"420 402 OFFCURVE",
"420 274 CURVE SMOOTH",
"420 145 OFFCURVE",
"389 86 OFFCURVE",
"322 86 CURVE SMOOTH",
"266 86 OFFCURVE",
"226 121 OFFCURVE",
"196 196 CURVE",
"194 83 LINE",
"223 27 OFFCURVE",
"283 -10 OFFCURVE",
"347 -10 CURVE SMOOTH"
);
},
{
closed = 1;
nodes = (
"193 -7 OFFCURVE",
"211 38 OFFCURVE",
"211 146 CURVE SMOOTH",
"211 791 LINE",
"63 791 LINE",
"63 207 LINE SMOOTH",
"63 99 OFFCURVE",
"56 61 OFFCURVE",
"30 27 CURVE",
"67 6 OFFCURVE",
"112 -7 OFFCURVE",
"149 -7 CURVE SMOOTH"
);
}
);
width = 610;
},
{
layerId = "EB12C417-147C-44D3-ABF9-73FB32C0B9E2";
paths = (
{
closed = 1;
nodes = (
"470 -10 OFFCURVE",
"560 98 OFFCURVE",
"560 284 CURVE SMOOTH",
"560 456 OFFCURVE",
"469 560 OFFCURVE",
"318 560 CURVE SMOOTH",
"241 560 OFFCURVE",
"164 530 OFFCURVE",
"118 481 CURVE",
"118 437 LINE",
"173 494 OFFCURVE",
"241 524 OFFCURVE",
"318 524 CURVE SMOOTH",
"444 524 OFFCURVE",
"518 435 OFFCURVE",
"518 284 CURVE SMOOTH",
"518 124 OFFCURVE",
"441 28 OFFCURVE",
"313 28 CURVE SMOOTH",
"234 28 OFFCURVE",
"154 72 OFFCURVE",
"119 135 CURVE",
"113 94 LINE",
"143 32 OFFCURVE",
"224 -10 OFFCURVE",
"313 -10 CURVE SMOOTH"
);
},
{
closed = 1;
nodes = (
"129 -2 OFFCURVE",
"143 49 OFFCURVE",
"143 108 CURVE SMOOTH",
"143 791 LINE",
"101 791 LINE",
"101 132 LINE SMOOTH",
"101 79 OFFCURVE",
"95 41 OFFCURVE",
"82 12 CURVE",
"90 6 OFFCURVE",
"101 -2 OFFCURVE",
"112 -2 CURVE SMOOTH"
);
}
);
width = 610;
},
{
layerId = "CF2C6045-422A-4B78-B702-649D3D8A1FBA";
paths = (
{
closed = 1;
nodes = (
"451 -10 OFFCURVE",
"556 132 OFFCURVE",
"556 337 CURVE SMOOTH",
"556 472 OFFCURVE",
"478 560 OFFCURVE",
"359 560 CURVE SMOOTH",
"299 560 OFFCURVE",
"246 537 OFFCURVE",
"199 492 CURVE",
"190 395 LINE",
"222 438 OFFCURVE",
"273 466 OFFCURVE",
"320 466 CURVE SMOOTH",
"375 466 OFFCURVE",
"407 417 OFFCURVE",
"407 332 CURVE SMOOTH",
"407 183 OFFCURVE",
"356 86 OFFCURVE",
"279 86 CURVE SMOOTH",
"223 86 OFFCURVE",
"187 120 OFFCURVE",
"166 194 CURVE",
"148 81 LINE",
"170 28 OFFCURVE",
"233 -10 OFFCURVE",
"300 -10 CURVE SMOOTH"
);
},
{
closed = 1;
nodes = (
"134 -7 OFFCURVE",
"159 38 OFFCURVE",
"174 146 CURVE SMOOTH",
"265 791 LINE",
"117 791 LINE",
"35 207 LINE SMOOTH",
"20 99 OFFCURVE",
"7 61 OFFCURVE",
"-24 27 CURVE",
"10 6 OFFCURVE",
"54 -7 OFFCURVE",
"91 -7 CURVE SMOOTH"
);
}
);
width = 610;
},
{
layerId = "821A3B53-E0A3-4F70-87DD-68DD21D0650F";
paths = (
{
closed = 1;
nodes = (
"470 -10 OFFCURVE",
"557 146 OFFCURVE",
"557 337 CURVE SMOOTH",
"557 476 OFFCURVE",
"473 560 OFFCURVE",
"349 560 CURVE SMOOTH",
"264 560 OFFCURVE",
"207 531 OFFCURVE",
"160 496 CURVE",
"151 427 LINE",
"205 472 OFFCURVE",
"268 504 OFFCURVE",
"337 504 CURVE SMOOTH",
"420 504 OFFCURVE",
"487 450 OFFCURVE",
"487 337 CURVE SMOOTH",
"487 184 OFFCURVE",
"422 48 OFFCURVE",
"282 48 CURVE SMOOTH",
"199 48 OFFCURVE",
"142 89 OFFCURVE",
"113 157 CURVE",
"98 86 LINE",
"129 24 OFFCURVE",
"196 -10 OFFCURVE",
"284 -10 CURVE SMOOTH"
);
},
{
closed = 1;
nodes = (
"102 0 OFFCURVE",
"121 49 OFFCURVE",
"129 108 CURVE SMOOTH",
"225 791 LINE",
"155 791 LINE",
"62 132 LINE SMOOTH",
"52 62 OFFCURVE",
"38 32 OFFCURVE",
"26 12 CURVE",
"38 4 OFFCURVE",
"56 0 OFFCURVE",
"75 0 CURVE SMOOTH"
);
}
);
width = 610;
},
{
layerId = "3E05E8D4-50BE-428E-AA2A-790990B7EE87";
paths = (
{
closed = 1;
nodes = (
"438 -10 OFFCURVE",
"547 120 OFFCURVE",
"547 334 CURVE SMOOTH",
"547 475 OFFCURVE",
"468 560 OFFCURVE",
"335 560 CURVE SMOOTH",
"259 560 OFFCURVE",
"182 530 OFFCURVE",
"128 481 CURVE",
"122 437 LINE",
"186 495 OFFCURVE",
"255 524 OFFCURVE",
"331 524 CURVE SMOOTH",
"439 524 OFFCURVE",
"504 453 OFFCURVE",
"504 335 CURVE SMOOTH",
"504 148 OFFCURVE",
"408 28 OFFCURVE",
"259 28 CURVE SMOOTH",
"179 28 OFFCURVE",
"115 68 OFFCURVE",
"81 137 CURVE",
"69 96 LINE",
"97 30 OFFCURVE",
"168 -10 OFFCURVE",
"259 -10 CURVE SMOOTH"
);
},
{
closed = 1;
nodes = (
"72 0 OFFCURVE",
"93 49 OFFCURVE",
"101 108 CURVE SMOOTH",
"197 791 LINE",
"155 791 LINE",
"62 132 LINE SMOOTH",
"54 78 OFFCURVE",
"43 40 OFFCURVE",
"26 12 CURVE",
"34 5 OFFCURVE",
"42 0 OFFCURVE",
"55 0 CURVE SMOOTH"
);
}
);
width = 610;
}
);
note = b;
unicode = 0062;
},
{
color = 4;
glyphname = c;
lastChange = "2018-07-18 10:11:34 +0000";
layers = (
{
anchors = (
{
name = bottom;
position = "{287, 0}";
},
{
name = top;
position = "{287, 550}";
}
);
layerId = "5A4BD32C-A1D1-4EB1-A794-47BD06E3B809";
paths = (
{
closed = 1;
nodes = (
"409 -10 OFFCURVE",
"509 54 OFFCURVE",
"509 126 CURVE SMOOTH",
"509 148 OFFCURVE",
"494 166 OFFCURVE",
"476 166 CURVE",
"445 87 OFFCURVE",
"383 46 OFFCURVE",
"296 46 CURVE SMOOTH",
"183 46 OFFCURVE",
"110 137 OFFCURVE",
"110 278 CURVE SMOOTH",
"110 414 OFFCURVE",
"182 504 OFFCURVE",
"292 504 CURVE SMOOTH",
"370 504 OFFCURVE",
"424 467 OFFCURVE",
"439 404 CURVE SMOOTH",
"445 380 OFFCURVE",
"449 375 OFFCURVE",
"463 375 CURVE SMOOTH",
"476 375 OFFCURVE",
"501 381 OFFCURVE",
"513 387 CURVE",
"500 493 OFFCURVE",
"415 560 OFFCURVE",
"292 560 CURVE SMOOTH",
"137 560 OFFCURVE",
"40 451 OFFCURVE",
"40 278 CURVE SMOOTH",
"40 97 OFFCURVE",
"135 -10 OFFCURVE",
"296 -10 CURVE SMOOTH"
);
}
);
width = 551;
},
{
anchors = (
{
name = bottom;
position = "{307, 0}";
},
{
name = top;
position = "{307, 550}";
}
);
layerId = "FD6510A9-FDB4-489D-9A3E-85E488E95339";
paths = (
{
closed = 1;
nodes = (
"420 -10 OFFCURVE",
"519 56 OFFCURVE",
"519 133 CURVE SMOOTH",
"519 193 OFFCURVE",
"489 218 OFFCURVE",
"416 218 CURVE",
"399 128 OFFCURVE",
"366 90 OFFCURVE",
"306 90 CURVE SMOOTH",
"220 90 OFFCURVE",
"180 149 OFFCURVE",
"180 278 CURVE SMOOTH",
"180 398 OFFCURVE",
"222 464 OFFCURVE",
"297 464 CURVE SMOOTH",
"347 464 OFFCURVE",
"373 443 OFFCURVE",
"393 387 CURVE SMOOTH",
"403 357 OFFCURVE",
"416 345 OFFCURVE",
"437 345 CURVE SMOOTH",
"463 345 OFFCURVE",
"495 357 OFFCURVE",
"533 380 CURVE",
"518 491 OFFCURVE",
"428 560 OFFCURVE",
"297 560 CURVE SMOOTH",
"130 560 OFFCURVE",
"30 454 OFFCURVE",
"30 278 CURVE SMOOTH",
"30 86 OFFCURVE",
"122 -10 OFFCURVE",
"306 -10 CURVE SMOOTH"
);
}
);
width = 577;
},
{
anchors = (
{
name = bottom;
position = "{287, 0}";
},
{
name = top;
position = "{287, 550}";
}
);
layerId = "EB12C417-147C-44D3-ABF9-73FB32C0B9E2";
paths = (
{
closed = 1;
nodes = (
"390 -10 OFFCURVE",
"493 53 OFFCURVE",
"493 116 CURVE SMOOTH",
"493 130 OFFCURVE",
"484 139 OFFCURVE",
"472 139 CURVE",
"439 66 OFFCURVE",
"375 28 OFFCURVE",
"286 28 CURVE SMOOTH",
"162 28 OFFCURVE",
"82 126 OFFCURVE",
"82 278 CURVE SMOOTH",
"82 424 OFFCURVE",
"167 524 OFFCURVE",
"292 524 CURVE SMOOTH",
"377 524 OFFCURVE",
"440 479 OFFCURVE",
"457 405 CURVE SMOOTH",
"462 384 OFFCURVE",
"466 378 OFFCURVE",
"477 378 CURVE SMOOTH",
"483 378 OFFCURVE",
"493 381 OFFCURVE",
"503 387 CURVE",
"493 493 OFFCURVE",
"411 560 OFFCURVE",
"292 560 CURVE SMOOTH",
"140 560 OFFCURVE",
"40 448 OFFCURVE",
"40 278 CURVE SMOOTH",
"40 102 OFFCURVE",
"136 -10 OFFCURVE",
"286 -10 CURVE SMOOTH"
);
}
);
width = 547;
},
{
anchors = (
{
name = bottom;
position = "{250, 0}";
},
{
name = top;
position = "{327, 550}";
}
);
layerId = "CF2C6045-422A-4B78-B702-649D3D8A1FBA";
paths = (
{
closed = 1;
nodes = (
"391 -10 OFFCURVE",
"485 48 OFFCURVE",
"485 132 CURVE SMOOTH",
"485 186 OFFCURVE",
"454 213 OFFCURVE",
"392 213 CURVE",
"359 123 OFFCURVE",
"324 90 OFFCURVE",
"261 90 CURVE SMOOTH",
"193 90 OFFCURVE",
"157 139 OFFCURVE",
"157 231 CURVE SMOOTH",
"157 388 OFFCURVE",
"205 464 OFFCURVE",
"305 464 CURVE SMOOTH",
"355 464 OFFCURVE",
"384 437 OFFCURVE",
"395 381 CURVE SMOOTH",
"401 351 OFFCURVE",
"412 339 OFFCURVE",
"433 339 CURVE SMOOTH",
"457 339 OFFCURVE",
"478 346 OFFCURVE",
"528 370 CURVE",
"526 489 OFFCURVE",
"443 560 OFFCURVE",
"308 560 CURVE SMOOTH",
"117 560 OFFCURVE",
"7 438 OFFCURVE",
"7 225 CURVE SMOOTH",
"7 75 OFFCURVE",
"97 -10 OFFCURVE",
"257 -10 CURVE SMOOTH"
);
}
);
width = 577;
},
{
anchors = (
{
name = bottom;
position = "{230, 0}";
},
{
name = top;
position = "{307, 550}";
}
);
layerId = "821A3B53-E0A3-4F70-87DD-68DD21D0650F";
paths = (
{
closed = 1;
nodes = (
"365 -10 OFFCURVE",
"455 47 OFFCURVE",
"455 121 CURVE SMOOTH",
"455 143 OFFCURVE",
"441 157 OFFCURVE",
"419 157 CURVE",
"375 77 OFFCURVE",
"327 46 OFFCURVE",
"248 46 CURVE SMOOTH",
"152 46 OFFCURVE",
"88 120 OFFCURVE",
"88 232 CURVE SMOOTH",
"88 397 OFFCURVE",
"171 506 OFFCURVE",
"295 506 CURVE SMOOTH",
"382 506 OFFCURVE",
"433 469 OFFCURVE",
"433 404 CURVE SMOOTH",
"433 383 OFFCURVE",
"443 375 OFFCURVE",
"453 375 CURVE SMOOTH",
"465 375 OFFCURVE",
"485 380 OFFCURVE",
"500 387 CURVE",
"504 492 OFFCURVE",
"427 560 OFFCURVE",
"302 560 CURVE SMOOTH",
"132 560 OFFCURVE",
"17 426 OFFCURVE",
"17 227 CURVE SMOOTH",
"17 82 OFFCURVE",
"107 -10 OFFCURVE",
"249 -10 CURVE SMOOTH"
);
}
);
width = 547;
},
{
anchors = (
{
name = bottom;
position = "{230, 0}";
},
{
name = top;
position = "{307, 550}";
}
);
layerId = "3E05E8D4-50BE-428E-AA2A-790990B7EE87";
paths = (
{
closed = 1;
nodes = (
"352 -10 OFFCURVE",
"448 44 OFFCURVE",
"448 101 CURVE SMOOTH",
"448 113 OFFCURVE",
"439 120 OFFCURVE",
"426 120 CURVE",
"381 53 OFFCURVE",
"333 28 OFFCURVE",
"252 28 CURVE SMOOTH",
"131 28 OFFCURVE",
"60 107 OFFCURVE",
"60 243 CURVE SMOOTH",
"60 406 OFFCURVE",
"159 524 OFFCURVE",
"295 524 CURVE SMOOTH",
"388 524 OFFCURVE",
"438 487 OFFCURVE",
"453 405 CURVE SMOOTH",
"458 381 OFFCURVE",
"465 378 OFFCURVE",
"476 378 CURVE SMOOTH",
"484 378 OFFCURVE",
"492 381 OFFCURVE",
"500 387 CURVE",
"493 502 OFFCURVE",
"425 560 OFFCURVE",
"300 560 CURVE SMOOTH",
"132 560 OFFCURVE",
"17 429 OFFCURVE",
"17 237 CURVE SMOOTH",
"17 83 OFFCURVE",
"105 -10 OFFCURVE",
"252 -10 CURVE SMOOTH"
);
}
);
width = 547;
}
);
note = c;
unicode = 0063;
},
{
color = 4;
glyphname = d;
lastChange = "2018-07-18 10:11:34 +0000";
layers = (
{
anchors = (
{
name = bottom;
position = "{299, 0}";
},
{
name = center;
position = "{299, 275}";
},
{
name = top;
position = "{299, 750}";
},
{
name = topright;
position = "{578, 550}";
}
);
layerId = "5A4BD32C-A1D1-4EB1-A794-47BD06E3B809";
paths = (
{
closed = 1;
nodes = (
"356 -10 OFFCURVE",
"406 15 OFFCURVE",
"456 82 CURVE",
"454 155 LINE",
"408 80 OFFCURVE",
"354 46 OFFCURVE",
"278 46 CURVE SMOOTH",
"169 46 OFFCURVE",
"110 126 OFFCURVE",
"110 273 CURVE SMOOTH",
"110 424 OFFCURVE",
"174 506 OFFCURVE",
"292 506 CURVE SMOOTH",
"355 506 OFFCURVE",
"428 471 OFFCURVE",
"451 431 CURVE",
"455 498 LINE",
"428 531 OFFCURVE",
"351 560 OFFCURVE",
"292 560 CURVE SMOOTH",
"133 560 OFFCURVE",
"40 454 OFFCURVE",
"40 273 CURVE SMOOTH",
"40 97 OFFCURVE",
"128 -10 OFFCURVE",
"273 -10 CURVE SMOOTH"
);
},
{
closed = 1;
nodes = (
"488 -4 OFFCURVE",
"504 0 OFFCURVE",
"521 8 CURVE",
"513 37 OFFCURVE",
"507 85 OFFCURVE",
"507 128 CURVE SMOOTH",
"507 791 LINE",
"439 791 LINE",
"439 124 LINE SMOOTH",
"439 36 OFFCURVE",
"450 -4 OFFCURVE",
"475 -4 CURVE SMOOTH"
);
}
);
width = 598;
},
{
anchors = (
{
name = bottom;
position = "{299, 0}";
},
{
name = center;
position = "{299, 275}";
},
{
name = top;
position = "{299, 750}";
},
{
name = topright;
position = "{578, 550}";
}
);
layerId = "FD6510A9-FDB4-489D-9A3E-85E488E95339";
paths = (
{
closed = 1;
nodes = (
"322 -10 OFFCURVE",
"375 22 OFFCURVE",
"406 83 CURVE",
"404 196 LINE",
"374 121 OFFCURVE",
"334 86 OFFCURVE",
"278 86 CURVE SMOOTH",
"211 86 OFFCURVE",
"180 145 OFFCURVE",
"180 273 CURVE SMOOTH",
"180 396 OFFCURVE",
"223 466 OFFCURVE",
"298 466 CURVE SMOOTH",
"342 466 OFFCURVE",
"380 450 OFFCURVE",
"401 423 CURVE",
"405 523 LINE",
"376 546 OFFCURVE",
"329 560 OFFCURVE",
"282 560 CURVE SMOOTH",
"129 560 OFFCURVE",
"30 448 OFFCURVE",
"30 273 CURVE SMOOTH",
"30 94 OFFCURVE",
"112 -10 OFFCURVE",
"253 -10 CURVE SMOOTH"
);
},
{
closed = 1;
nodes = (
"488 -7 OFFCURVE",
"533 6 OFFCURVE",
"570 27 CURVE",
"544 61 OFFCURVE",
"537 99 OFFCURVE",
"537 207 CURVE SMOOTH",
"537 791 LINE",
"389 791 LINE",
"389 146 LINE SMOOTH",
"389 38 OFFCURVE",
"407 -7 OFFCURVE",
"451 -7 CURVE SMOOTH"
);
}
);
width = 598;
},
{
anchors = (
{
name = bottom;
position = "{299, 0}";
},
{
name = center;
position = "{299, 275}";
},
{
name = top;
position = "{299, 750}";
},
{
name = topright;
position = "{578, 550}";
}
);
layerId = "EB12C417-147C-44D3-ABF9-73FB32C0B9E2";
paths = (
{
closed = 1;
nodes = (
"371 -10 OFFCURVE",
"449 29 OFFCURVE",
"486 91 CURVE",
"484 136 LINE",
"442 68 OFFCURVE",
"370 28 OFFCURVE",
"288 28 CURVE SMOOTH",
"167 28 OFFCURVE",
"92 122 OFFCURVE",
"92 273 CURVE SMOOTH",
"92 426 OFFCURVE",
"170 524 OFFCURVE",
"292 524 CURVE SMOOTH",
"361 524 OFFCURVE",
"420 501 OFFCURVE",
"481 449 CURVE",
"485 488 LINE",
"440 532 OFFCURVE",
"365 560 OFFCURVE",
"292 560 CURVE SMOOTH",
"141 560 OFFCURVE",
"50 452 OFFCURVE",
"50 273 CURVE SMOOTH",
"50 97 OFFCURVE",
"138 -10 OFFCURVE",
"283 -10 CURVE SMOOTH"
);
},
{
closed = 1;
nodes = (
"505 -4 OFFCURVE",
"516 1 OFFCURVE",
"521 8 CURVE",
"511 31 OFFCURVE",
"507 61 OFFCURVE",
"507 128 CURVE SMOOTH",
"507 791 LINE",
"465 791 LINE",
"465 84 LINE SMOOTH",
"465 27 OFFCURVE",
"476 -4 OFFCURVE",
"496 -4 CURVE SMOOTH"
);
}
);
width = 598;
},
{
anchors = (
{
name = bottom;
position = "{242, 0}";
},
{
name = center;
position = "{280, 275}";
},
{
name = top;
position = "{347, 750}";
},
{
name = topright;
position = "{598, 550}";
}
);
layerId = "CF2C6045-422A-4B78-B702-649D3D8A1FBA";
paths = (
{
closed = 1;
nodes = (
"263 -10 OFFCURVE",
"321 20 OFFCURVE",
"360 81 CURVE",
"374 194 LINE",
"333 115 OFFCURVE",
"294 86 OFFCURVE",
"233 86 CURVE SMOOTH",
"180 86 OFFCURVE",
"155 122 OFFCURVE",
"155 199 CURVE SMOOTH",
"155 357 OFFCURVE",
"217 466 OFFCURVE",
"306 466 CURVE SMOOTH",
"350 466 OFFCURVE",
"386 450 OFFCURVE",
"403 423 CURVE",
"421 523 LINE",
"395 546 OFFCURVE",
"350 560 OFFCURVE",
"303 560 CURVE SMOOTH",
"128 560 OFFCURVE",
"6 415 OFFCURVE",
"6 202 CURVE SMOOTH",
"6 67 OFFCURVE",
"74 -10 OFFCURVE",
"194 -10 CURVE SMOOTH"
);
},
{
closed = 1;
nodes = (
"430 -7 OFFCURVE",
"476 6 OFFCURVE",
"516 27 CURVE",
"504 46 OFFCURVE",
"499 67 OFFCURVE",
"499 98 CURVE SMOOTH",
"499 126 OFFCURVE",
"502 160 OFFCURVE",
"509 207 CURVE SMOOTH",
"591 791 LINE",
"443 791 LINE",
"352 146 LINE SMOOTH",
"348 118 OFFCURVE",
"346 93 OFFCURVE",
"346 72 CURVE SMOOTH",
"346 18 OFFCURVE",
"361 -7 OFFCURVE",
"393 -7 CURVE SMOOTH"
);
}
);
width = 598;
},
{
anchors = (
{
name = bottom;
position = "{242, 0}";
},
{
name = center;
position = "{280, 275}";
},
{
name = top;
position = "{347, 750}";
},
{
name = topright;
position = "{598, 550}";
}
);
layerId = "821A3B53-E0A3-4F70-87DD-68DD21D0650F";
paths = (
{
closed = 1;
nodes = (
"295 -10 OFFCURVE",
"357 19 OFFCURVE",
"417 86 CURVE",
"419 159 LINE",
"363 83 OFFCURVE",
"298 46 OFFCURVE",
"221 46 CURVE SMOOTH",
"132 46 OFFCURVE",
"86 102 OFFCURVE",
"86 212 CURVE SMOOTH",
"86 390 OFFCURVE",
"173 506 OFFCURVE",
"306 506 CURVE SMOOTH",
"369 506 OFFCURVE",
"437 471 OFFCURVE",
"454 431 CURVE",
"468 498 LINE",
"445 531 OFFCURVE",
"372 560 OFFCURVE",
"313 560 CURVE SMOOTH",
"134 560 OFFCURVE",
"16 420 OFFCURVE",
"16 207 CURVE SMOOTH",
"16 71 OFFCURVE",
"90 -10 OFFCURVE",
"214 -10 CURVE SMOOTH"
);
},
{
closed = 1;
nodes = (
"431 -4 OFFCURVE",
"448 0 OFFCURVE",
"465 8 CURVE",
"462 30 OFFCURVE",
"462 40 OFFCURVE",
"462 52 CURVE SMOOTH",
"462 73 OFFCURVE",
"464 99 OFFCURVE",
"468 128 CURVE SMOOTH",
"561 791 LINE",
"493 791 LINE",
"399 124 LINE SMOOTH",
"395 99 OFFCURVE",
"393 73 OFFCURVE",
"393 50 CURVE SMOOTH",
"393 14 OFFCURVE",
"401 -4 OFFCURVE",
"417 -4 CURVE SMOOTH"
);
}
);
width = 598;
},
{
anchors = (
{
name = bottom;
position = "{242, 0}";
},
{
name = center;
position = "{280, 275}";
},
{
name = top;
position = "{347, 750}";
},
{
name = topright;
position = "{598, 550}";
}
);
layerId = "3E05E8D4-50BE-428E-AA2A-790990B7EE87";
paths = (
{
closed = 1;
nodes = (
"313 -10 OFFCURVE",
"396 29 OFFCURVE",
"441 92 CURVE",
"446 139 LINE",
"394 68 OFFCURVE",
"315 28 OFFCURVE",
"231 28 CURVE SMOOTH",
"130 28 OFFCURVE",
"69 102 OFFCURVE",
"69 226 CURVE SMOOTH",
"69 403 OFFCURVE",
"166 524 OFFCURVE",
"308 524 CURVE SMOOTH",
"380 524 OFFCURVE",
"431 503 OFFCURVE",
"487 449 CURVE",
"496 488 LINE",
"457 533 OFFCURVE",
"387 560 OFFCURVE",
"311 560 CURVE SMOOTH",
"136 560 OFFCURVE",
"26 430 OFFCURVE",
"26 225 CURVE SMOOTH",
"26 80 OFFCURVE",
"102 -10 OFFCURVE",
"226 -10 CURVE SMOOTH"
);
},
{
closed = 1;
nodes = (
"447 -4 OFFCURVE",
"459 1 OFFCURVE",
"465 8 CURVE",
"461 22 OFFCURVE",
"460 29 OFFCURVE",
"460 43 CURVE SMOOTH",
"460 62 OFFCURVE",
"462 88 OFFCURVE",
"468 128 CURVE SMOOTH",
"561 791 LINE",
"519 791 LINE",
"420 84 LINE SMOOTH",
"417 62 OFFCURVE",
"416 51 OFFCURVE",
"416 41 CURVE SMOOTH",
"416 11 OFFCURVE",
"423 -4 OFFCURVE",
"438 -4 CURVE SMOOTH"
);
}
);
width = 598;
}
);
note = d;
unicode = 0064;
},
{
color = 4;
glyphname = e;
lastChange = "2018-07-18 10:11:34 +0000";
layers = (
{
anchors = (
{
name = bottom;
position = "{290, 0}";
},
{
name = ogonek;
position = "{391, 10}";
},
{
name = top;
position = "{286, 550}";
}
);
layerId = "5A4BD32C-A1D1-4EB1-A794-47BD06E3B809";
paths = (
{
closed = 1;
nodes = (
"396 -10 OFFCURVE",
"480 44 OFFCURVE",
"509 130 CURVE",
"474 154 OFFCURVE",
"455 155 OFFCURVE",
"444 136 CURVE SMOOTH",
"410 75 OFFCURVE",
"362 48 OFFCURVE",
"290 48 CURVE SMOOTH",
"182 48 OFFCURVE",
"120 133 OFFCURVE",
"120 279 CURVE SMOOTH",
"120 424 OFFCURVE",
"181 502 OFFCURVE",
"294 502 CURVE SMOOTH",
"398 502 OFFCURVE",
"450 442 OFFCURVE",
"450 322 CURVE",
"102 322 LINE",
"102 268 LINE",
"518 268 LINE",
"520 291 OFFCURVE",
"520 302 OFFCURVE",
"520 314 CURVE SMOOTH",
"520 469 OFFCURVE",
"437 560 OFFCURVE",
"297 560 CURVE SMOOTH",
"143 560 OFFCURVE",
"50 453 OFFCURVE",
"50 276 CURVE SMOOTH",
"50 99 OFFCURVE",
"142 -10 OFFCURVE",
"290 -10 CURVE SMOOTH"
);
}
);
width = 560;
},
{
anchors = (
{
name = bottom;
position = "{300, 0}";
},
{
name = ogonek;
position = "{401, 10}";
},
{
name = top;
position = "{296, 550}";
}
);
layerId = "FD6510A9-FDB4-489D-9A3E-85E488E95339";
paths = (
{
closed = 1;
nodes = (
"419 -10 OFFCURVE",
"496 37 OFFCURVE",
"539 130 CURVE",
"485 171 OFFCURVE",
"439 185 OFFCURVE",
"424 166 CURVE SMOOTH",
"372 100 OFFCURVE",
"355 88 OFFCURVE",
"310 88 CURVE SMOOTH",
"235 88 OFFCURVE",
"190 159 OFFCURVE",
"190 279 CURVE SMOOTH",
"190 402 OFFCURVE",
"230 466 OFFCURVE",
"306 466 CURVE SMOOTH",
"369 466 OFFCURVE",
"400 422 OFFCURVE",
"400 332 CURVE",
"112 332 LINE",
"112 248 LINE",
"545 248 LINE",
"550 297 OFFCURVE",
"550 294 OFFCURVE",
"550 311 CURVE SMOOTH",
"550 470 OFFCURVE",
"463 560 OFFCURVE",
"309 560 CURVE SMOOTH",
"142 560 OFFCURVE",
"40 452 OFFCURVE",
"40 276 CURVE SMOOTH",
"40 98 OFFCURVE",
"142 -10 OFFCURVE",
"310 -10 CURVE SMOOTH"
);
}
);
width = 580;
},
{
anchors = (
{
name = bottom;
position = "{290, 0}";
},
{
name = ogonek;
position = "{391, 10}";
},
{
name = top;
position = "{286, 550}";
}
);
layerId = "EB12C417-147C-44D3-ABF9-73FB32C0B9E2";
paths = (
{
closed = 1;
nodes = (
"397 -10 OFFCURVE",
"471 38 OFFCURVE",
"509 130 CURVE",
"485 144 OFFCURVE",
"474 141 OFFCURVE",
"459 118 CURVE SMOOTH",
"418 55 OFFCURVE",
"368 28 OFFCURVE",
"290 28 CURVE SMOOTH",
"169 28 OFFCURVE",
"92 126 OFFCURVE",
"92 279 CURVE SMOOTH",
"92 429 OFFCURVE",
"167 522 OFFCURVE",
"288 522 CURVE SMOOTH",
"410 522 OFFCURVE",
"478 444 OFFCURVE",
"478 306 CURVE",
"72 306 LINE",
"72 268 LINE",
"518 268 LINE",
"519 281 OFFCURVE",
"520 293 OFFCURVE",
"520 300 CURVE SMOOTH",
"520 463 OFFCURVE",
"434 560 OFFCURVE",
"291 560 CURVE SMOOTH",
"139 560 OFFCURVE",
"50 455 OFFCURVE",
"50 276 CURVE SMOOTH",
"50 100 OFFCURVE",
"143 -10 OFFCURVE",
"290 -10 CURVE SMOOTH"
);
}
);
width = 560;
},
{
anchors = (
{
name = bottom;
position = "{243, 0}";
},
{
name = ogonek;
position = "{345, 10}";
},
{
name = top;
position = "{316, 550}";
}
);
layerId = "CF2C6045-422A-4B78-B702-649D3D8A1FBA";
paths = (
{
closed = 1;
nodes = (
"369 -10 OFFCURVE",
"448 32 OFFCURVE",
"500 123 CURVE",
"469 150 OFFCURVE",
"435 168 OFFCURVE",
"412 168 CURVE SMOOTH",
"404 168 OFFCURVE",
"396 164 OFFCURVE",
"390 157 CURVE SMOOTH",
"346 105 OFFCURVE",
"315 88 OFFCURVE",
"265 88 CURVE SMOOTH",
"203 88 OFFCURVE",
"167 139 OFFCURVE",
"167 227 CURVE SMOOTH",
"167 375 OFFCURVE",
"223 466 OFFCURVE",
"314 466 CURVE SMOOTH",
"366 466 OFFCURVE",
"392 435 OFFCURVE",
"392 374 CURVE SMOOTH",
"392 361 OFFCURVE",
"391 347 OFFCURVE",
"389 332 CURVE",
"101 332 LINE",
"90 248 LINE",
"524 248 LINE",
"530 284 OFFCURVE",
"534 319 OFFCURVE",
"534 346 CURVE SMOOTH",
"534 494 OFFCURVE",
"468 560 OFFCURVE",
"319 560 CURVE SMOOTH",
"132 560 OFFCURVE",
"17 432 OFFCURVE",
"17 224 CURVE SMOOTH",
"17 84 OFFCURVE",
"112 -10 OFFCURVE",
"252 -10 CURVE SMOOTH"
);
}
);
width = 580;
},
{
anchors = (
{
name = bottom;
position = "{233, 0}";
},
{
name = ogonek;
position = "{335, 10}";
},
{
name = top;
position = "{306, 550}";
}
);
layerId = "821A3B53-E0A3-4F70-87DD-68DD21D0650F";
paths = (
{
closed = 1;
nodes = (
"357 -10 OFFCURVE",
"440 38 OFFCURVE",
"480 126 CURVE",
"461 140 OFFCURVE",
"448 146 OFFCURVE",
"438 146 CURVE SMOOTH",
"429 146 OFFCURVE",
"422 142 OFFCURVE",
"416 132 CURVE SMOOTH",
"380 72 OFFCURVE",
"331 48 OFFCURVE",
"249 48 CURVE SMOOTH",
"153 48 OFFCURVE",
"97 111 OFFCURVE",
"97 222 CURVE SMOOTH",
"97 405 OFFCURVE",
"170 506 OFFCURVE",
"301 506 CURVE SMOOTH",
"393 506 OFFCURVE",
"441 459 OFFCURVE",
"441 369 CURVE SMOOTH",
"441 354 OFFCURVE",
"440 335 OFFCURVE",
"438 322 CURVE",
"90 322 LINE",
"82 268 LINE",
"498 268 LINE",
"502 293 OFFCURVE",
"506 336 OFFCURVE",
"506 365 CURVE SMOOTH",
"506 490 OFFCURVE",
"435 560 OFFCURVE",
"306 560 CURVE SMOOTH",
"130 560 OFFCURVE",
"26 434 OFFCURVE",
"26 219 CURVE SMOOTH",
"26 77 OFFCURVE",
"110 -10 OFFCURVE",
"246 -10 CURVE SMOOTH"
);
}
);
width = 560;
},
{
anchors = (
{
name = bottom;
position = "{233, 0}";
},
{
name = ogonek;
position = "{335, 10}";
},
{
name = top;
position = "{306, 550}";
}
);
layerId = "3E05E8D4-50BE-428E-AA2A-790990B7EE87";
paths = (
{
closed = 1;
nodes = (
"347 -10 OFFCURVE",
"420 34 OFFCURVE",
"465 124 CURVE",
"458 131 OFFCURVE",
"447 135 OFFCURVE",
"438 135 CURVE SMOOTH",
"426 135 OFFCURVE",
"417 129 OFFCURVE",
"410 115 CURVE SMOOTH",
"381 58 OFFCURVE",
"321 28 OFFCURVE",
"244 28 CURVE SMOOTH",
"136 28 OFFCURVE",
"70 102 OFFCURVE",
"70 225 CURVE SMOOTH",
"70 400 OFFCURVE",
"166 522 OFFCURVE",
"302 522 CURVE SMOOTH",
"408 522 OFFCURVE",
"463 466 OFFCURVE",
"463 358 CURVE SMOOTH",
"463 343 OFFCURVE",
"461 323 OFFCURVE",
"458 306 CURVE",
"58 306 LINE",
"52 268 LINE",
"499 268 LINE",
"505 311 OFFCURVE",
"507 339 OFFCURVE",
"507 359 CURVE SMOOTH",
"507 490 OFFCURVE",
"437 560 OFFCURVE",
"305 560 CURVE SMOOTH",
"140 560 OFFCURVE",
"26 423 OFFCURVE",
"26 223 CURVE SMOOTH",
"26 77 OFFCURVE",
"107 -10 OFFCURVE",
"240 -10 CURVE SMOOTH"
);
}
);
width = 560;
}
);
note = e;
unicode = 0065;
},
{
color = 4;
glyphname = f;
lastChange = "2018-07-18 10:11:34 +0000";
layers = (
{
layerId = "5A4BD32C-A1D1-4EB1-A794-47BD06E3B809";
paths = (
{
closed = 1;
nodes = (
"183 0 LINE",
"183 623 LINE SMOOTH",
"183 689 OFFCURVE",
"213 724 OFFCURVE",
"269 724 CURVE SMOOTH",
"294 724 OFFCURVE",
"320 718 OFFCURVE",
"338 709 CURVE",
"344 709 OFFCURVE",
"350 724 OFFCURVE",
"350 739 CURVE SMOOTH",
"350 767 OFFCURVE",
"317 782 OFFCURVE",
"256 782 CURVE SMOOTH",
"170 782 OFFCURVE",
"115 720 OFFCURVE",
"115 624 CURVE SMOOTH",
"115 0 LINE"
);
},
{
closed = 1;
nodes = (
"307 498 LINE",
"307 550 LINE",
"12 550 LINE",
"12 498 LINE"
);
}
);
width = 335;
},
{
layerId = "FD6510A9-FDB4-489D-9A3E-85E488E95339";
paths = (
{
closed = 1;
nodes = (
"233 0 LINE",
"233 613 LINE SMOOTH",
"233 665 OFFCURVE",
"253 694 OFFCURVE",
"289 694 CURVE SMOOTH",
"318 694 OFFCURVE",
"345 689 OFFCURVE",
"368 679 CURVE",
"377 690 OFFCURVE",
"383 708 OFFCURVE",
"383 725 CURVE SMOOTH",
"383 765 OFFCURVE",
"333 792 OFFCURVE",
"257 792 CURVE SMOOTH",
"147 792 OFFCURVE",
"85 728 OFFCURVE",
"85 614 CURVE SMOOTH",
"85 0 LINE"
);
},
{
closed = 1;
nodes = (
"337 458 LINE",
"337 550 LINE",
"2 550 LINE",
"2 458 LINE"
);
}
);
width = 365;
},
{
layerId = "EB12C417-147C-44D3-ABF9-73FB32C0B9E2";
paths = (
{
closed = 1;
nodes = (
"157 0 LINE",
"157 623 LINE SMOOTH",
"157 702 OFFCURVE",
"193 746 OFFCURVE",
"259 746 CURVE SMOOTH",
"298 746 OFFCURVE",
"319 742 OFFCURVE",
"337 729 CURVE",
"344 729 OFFCURVE",
"350 735 OFFCURVE",
"350 743 CURVE SMOOTH",
"350 767 OFFCURVE",
"316 782 OFFCURVE",
"261 782 CURVE SMOOTH",
"171 782 OFFCURVE",
"115 722 OFFCURVE",
"115 624 CURVE SMOOTH",
"115 0 LINE"
);
},
{
closed = 1;
nodes = (
"307 514 LINE",
"307 550 LINE",
"12 550 LINE",
"12 514 LINE"
);
}
);
width = 335;
},
{
layerId = "CF2C6045-422A-4B78-B702-649D3D8A1FBA";
paths = (
{
closed = 1;
nodes = (
"176 0 LINE",
"262 613 LINE SMOOTH",
"270 665 OFFCURVE",
"293 694 OFFCURVE",
"329 694 CURVE SMOOTH",
"358 694 OFFCURVE",
"384 689 OFFCURVE",
"406 679 CURVE",
"418 688 OFFCURVE",
"428 706 OFFCURVE",
"428 725 CURVE SMOOTH",
"428 765 OFFCURVE",
"386 792 OFFCURVE",
"311 792 CURVE SMOOTH",
"201 792 OFFCURVE",
"130 728 OFFCURVE",
"114 614 CURVE SMOOTH",
"28 0 LINE"
);
},
{
closed = 1;
nodes = (
"344 458 LINE",
"357 550 LINE",
"22 550 LINE",
"9 458 LINE"
);
}
);
width = 365;
},
{
layerId = "821A3B53-E0A3-4F70-87DD-68DD21D0650F";
paths = (
{
closed = 1;
nodes = (
"126 0 LINE",
"213 623 LINE SMOOTH",
"223 689 OFFCURVE",
"257 724 OFFCURVE",
"313 724 CURVE SMOOTH",
"339 724 OFFCURVE",
"364 718 OFFCURVE",
"380 709 CURVE",
"386 709 OFFCURVE",
"397 723 OFFCURVE",
"397 739 CURVE SMOOTH",
"397 767 OFFCURVE",
"370 782 OFFCURVE",
"309 782 CURVE SMOOTH",
"223 782 OFFCURVE",
"159 720 OFFCURVE",
"145 624 CURVE SMOOTH",
"58 0 LINE"
);
},
{
closed = 1;
nodes = (
"320 498 LINE",
"327 550 LINE",
"32 550 LINE",
"25 498 LINE"
);
}
);
width = 335;
},
{
layerId = "3E05E8D4-50BE-428E-AA2A-790990B7EE87";
paths = (
{
closed = 1;
nodes = (
"100 0 LINE",
"187 623 LINE SMOOTH",
"198 702 OFFCURVE",
"241 746 OFFCURVE",
"307 746 CURVE SMOOTH",
"346 746 OFFCURVE",
"365 742 OFFCURVE",
"382 729 CURVE",
"389 729 OFFCURVE",
"396 735 OFFCURVE",
"397 743 CURVE SMOOTH",
"400 767 OFFCURVE",
"368 782 OFFCURVE",
"314 782 CURVE SMOOTH",
"227 782 OFFCURVE",
"159 724 OFFCURVE",
"145 624 CURVE SMOOTH",
"58 0 LINE"
);
},
{
closed = 1;
nodes = (
"322 514 LINE",
"327 550 LINE",
"32 550 LINE",
"27 514 LINE"
);
}
);
width = 335;
},
{
associatedMasterId = "EB12C417-147C-44D3-ABF9-73FB32C0B9E2";
layerId = "F1FC1ABB-373D-41F6-B4B5-1D9126857A90";
paths = (
{
closed = 1;
nodes = (
"157 0 LINE",
"157 623 LINE SMOOTH",
"157 704 OFFCURVE",
"195 746 OFFCURVE",
"259 746 CURVE SMOOTH",
"297 746 OFFCURVE",
"318 742 OFFCURVE",
"337 729 CURVE",
"345 729 OFFCURVE",
"350 736 OFFCURVE",
"350 743 CURVE SMOOTH",
"350 765 OFFCURVE",
"320 782 OFFCURVE",
"261 782 CURVE SMOOTH",
"185 782 OFFCURVE",
"115 737 OFFCURVE",
"115 624 CURVE SMOOTH",
"115 0 LINE"
);
},
{
closed = 1;
nodes = (
"307 514 LINE",
"307 550 LINE",
"12 550 LINE",
"12 514 LINE"
);
}
);
width = 335;
}
);
note = f;
unicode = 0066;
},
{
color = 4;
glyphname = g;
lastChange = "2018-07-18 10:11:34 +0000";
layers = (
{
anchors = (
{
name = bottom;
position = "{293, -189}";
},
{
name = top;
position = "{293, 550}";
}
);
layerId = "5A4BD32C-A1D1-4EB1-A794-47BD06E3B809";
paths = (
{
closed = 1;
nodes = (
"454 -202 OFFCURVE",
"546 -146 OFFCURVE",
"546 -46 CURVE SMOOTH",
"546 47 OFFCURVE",
"460 100 OFFCURVE",
"309 100 CURVE SMOOTH",
"201 100 OFFCURVE",
"148 115 OFFCURVE",
"148 145 CURVE SMOOTH",
"148 172 OFFCURVE",
"188 184 OFFCURVE",
"279 184 CURVE",
"192 217 LINE",
"131 213 OFFCURVE",
"88 181 OFFCURVE",
"88 141 CURVE SMOOTH",
"88 101 OFFCURVE",
"114 70 OFFCURVE",
"154 60 CURVE",
"154 57 LINE",
"89 37 OFFCURVE",
"50 -7 OFFCURVE",
"50 -60 CURVE SMOOTH",
"50 -153 OFFCURVE",
"133 -202 OFFCURVE",
"289 -202 CURVE SMOOTH"
);
},
{
closed = 1;
nodes = (
"180 -146 OFFCURVE",
"121 -113 OFFCURVE",
"121 -52 CURVE SMOOTH",
"121 7 OFFCURVE",
"180 38 OFFCURVE",
"293 38 CURVE SMOOTH",
"422 38 OFFCURVE",
"475 12 OFFCURVE",
"475 -52 CURVE SMOOTH",
"475 -114 OFFCURVE",
"412 -146 OFFCURVE",
"289 -146 CURVE SMOOTH"
);
},
{
closed = 1;
nodes = (
"427 184 OFFCURVE",
"500 248 OFFCURVE",
"500 376 CURVE SMOOTH",
"500 488 OFFCURVE",
"421 560 OFFCURVE",
"298 560 CURVE SMOOTH",
"148 560 OFFCURVE",
"72 494 OFFCURVE",
"72 364 CURVE SMOOTH",
"72 259 OFFCURVE",
"158 184 OFFCURVE",
"279 184 CURVE SMOOTH"
);
},
{
closed = 1;
nodes = (
"190 240 OFFCURVE",
"142 285 OFFCURVE",
"142 372 CURVE SMOOTH",
"142 464 OFFCURVE",
"186 506 OFFCURVE",
"285 506 CURVE SMOOTH",
"386 506 OFFCURVE",
"429 466 OFFCURVE",
"429 372 CURVE SMOOTH",
"429 278 OFFCURVE",
"388 240 OFFCURVE",
"285 240 CURVE SMOOTH"
);
},
{
closed = 1;
nodes = (
"463 505 OFFCURVE",
"498 515 OFFCURVE",
"563 515 CURVE",
"570 560 OFFCURVE",
"560 579 OFFCURVE",
"530 579 CURVE SMOOTH",
"489 579 OFFCURVE",
"440 554 OFFCURVE",
"406 516 CURVE",
"445 481 LINE"
);
}
);
width = 585;
},
{
anchors = (
{
name = bottom;
position = "{293, -189}";
},
{
name = top;
position = "{293, 550}";
}
);
layerId = "FD6510A9-FDB4-489D-9A3E-85E488E95339";
paths = (
{
closed = 1;
nodes = (
"453 -207 OFFCURVE",
"556 -139 OFFCURVE",
"556 -31 CURVE SMOOTH",
"556 69 OFFCURVE",
"468 125 OFFCURVE",
"309 125 CURVE SMOOTH",
"214 125 OFFCURVE",
"198 129 OFFCURVE",
"198 153 CURVE SMOOTH",
"198 177 OFFCURVE",
"217 184 OFFCURVE",
"279 184 CURVE",
"197 217 LINE",
"127 212 OFFCURVE",
"78 178 OFFCURVE",
"78 133 CURVE SMOOTH",
"78 94 OFFCURVE",
"110 65 OFFCURVE",
"164 55 CURVE",
"164 52 LINE",
"74 43 OFFCURVE",
"30 8 OFFCURVE",
"30 -55 CURVE SMOOTH",
"30 -152 OFFCURVE",
"123 -207 OFFCURVE",
"289 -207 CURVE SMOOTH"
);
},
{
closed = 1;
nodes = (
"213 -111 OFFCURVE",
"181 -89 OFFCURVE",
"181 -37 CURVE SMOOTH",
"181 10 OFFCURVE",
"218 33 OFFCURVE",
"293 33 CURVE SMOOTH",
"375 33 OFFCURVE",
"415 10 OFFCURVE",
"415 -37 CURVE SMOOTH",
"415 -85 OFFCURVE",
"370 -111 OFFCURVE",
"289 -111 CURVE SMOOTH"
);
},
{
closed = 1;
nodes = (
"434 184 OFFCURVE",
"520 253 OFFCURVE",
"520 376 CURVE SMOOTH",
"520 483 OFFCURVE",
"428 560 OFFCURVE",
"298 560 CURVE SMOOTH",
"142 560 OFFCURVE",
"52 489 OFFCURVE",
"52 364 CURVE SMOOTH",
"52 264 OFFCURVE",
"153 184 OFFCURVE",
"279 184 CURVE SMOOTH"
);
},
{
closed = 1;
nodes = (
"228 280 OFFCURVE",
"202 309 OFFCURVE",
"202 372 CURVE SMOOTH",
"202 435 OFFCURVE",
"229 466 OFFCURVE",
"285 466 CURVE SMOOTH",
"342 466 OFFCURVE",
"369 436 OFFCURVE",
"369 372 CURVE SMOOTH",
"369 309 OFFCURVE",
"342 280 OFFCURVE",
"285 280 CURVE SMOOTH"
);
},
{
closed = 1;
nodes = (
"483 485 OFFCURVE",
"519 495 OFFCURVE",
"585 495 CURVE",
"585 579 OFFCURVE",
"568 609 OFFCURVE",
"520 609 CURVE SMOOTH",
"478 609 OFFCURVE",
"428 575 OFFCURVE",
"396 526 CURVE",
"465 461 LINE"
);
}
);
width = 585;
},
{
anchors = (
{
name = bottom;
position = "{293, -190}";
},
{
name = top;
position = "{293, 550}";
}
);
layerId = "EB12C417-147C-44D3-ABF9-73FB32C0B9E2";
paths = (
{
closed = 1;
nodes = (
"471 -202 OFFCURVE",
"546 -156 OFFCURVE",
"546 -46 CURVE SMOOTH",
"546 38 OFFCURVE",
"462 82 OFFCURVE",
"299 82 CURVE SMOOTH",
"160 82 OFFCURVE",
"130 91 OFFCURVE",
"130 135 CURVE SMOOTH",
"130 171 OFFCURVE",
"170 184 OFFCURVE",
"279 184 CURVE",
"202 207 LINE",
"129 207 OFFCURVE",
"92 182 OFFCURVE",
"92 133 CURVE SMOOTH",
"92 98 OFFCURVE",
"116 72 OFFCURVE",
"155 64 CURVE",
"155 61 LINE",
"84 43 OFFCURVE",
"50 5 OFFCURVE",
"50 -60 CURVE SMOOTH",
"50 -150 OFFCURVE",
"138 -202 OFFCURVE",
"289 -202 CURVE SMOOTH"
);
},
{
closed = 1;
nodes = (
"149 -164 OFFCURVE",
"93 -132 OFFCURVE",
"93 -52 CURVE SMOOTH",
"93 18 OFFCURVE",
"150 46 OFFCURVE",
"293 46 CURVE SMOOTH",
"444 46 OFFCURVE",
"503 18 OFFCURVE",
"503 -52 CURVE SMOOTH",
"503 -133 OFFCURVE",
"444 -164 OFFCURVE",
"289 -164 CURVE SMOOTH"
);
},
{
closed = 1;
nodes = (
"427 184 OFFCURVE",
"500 248 OFFCURVE",
"500 376 CURVE SMOOTH",
"500 488 OFFCURVE",
"421 560 OFFCURVE",
"298 560 CURVE SMOOTH",
"148 560 OFFCURVE",
"72 494 OFFCURVE",
"72 364 CURVE SMOOTH",
"72 259 OFFCURVE",
"158 184 OFFCURVE",
"279 184 CURVE SMOOTH"
);
},
{
closed = 1;
nodes = (
"176 222 OFFCURVE",
"114 277 OFFCURVE",
"114 372 CURVE SMOOTH",
"114 472 OFFCURVE",
"173 524 OFFCURVE",
"285 524 CURVE SMOOTH",
"400 524 OFFCURVE",
"457 473 OFFCURVE",
"457 372 CURVE SMOOTH",
"457 270 OFFCURVE",
"402 222 OFFCURVE",
"285 222 CURVE SMOOTH"
);
},
{
closed = 1;
nodes = (
"457 529 OFFCURVE",
"502 545 OFFCURVE",
"563 545 CURVE",
"563 572 OFFCURVE",
"556 579 OFFCURVE",
"530 579 CURVE SMOOTH",
"490 579 OFFCURVE",
"441 555 OFFCURVE",
"406 516 CURVE",
"435 501 LINE"
);
}
);
width = 585;
},
{
anchors = (
{
name = bottom;
position = "{207, -187}";
},
{
name = top;
position = "{313, 550}";
}
);
layerId = "CF2C6045-422A-4B78-B702-649D3D8A1FBA";
paths = (
{
closed = 1;
nodes = (
"391 -207 OFFCURVE",
"496 -137 OFFCURVE",
"496 -19 CURVE SMOOTH",
"496 75 OFFCURVE",
"417 125 OFFCURVE",
"269 125 CURVE SMOOTH",
"175 125 OFFCURVE",
"159 129 OFFCURVE",
"162 153 CURVE SMOOTH",
"166 176 OFFCURVE",
"192 184 OFFCURVE",
"258 184 CURVE",
"170 217 LINE",
"95 212 OFFCURVE",
"38 172 OFFCURVE",
"38 124 CURVE SMOOTH",
"38 89 OFFCURVE",
"66 64 OFFCURVE",
"114 55 CURVE",
"114 52 LINE",
"14 42 OFFCURVE",
"-36 1 OFFCURVE",
"-36 -71 CURVE SMOOTH",
"-36 -158 OFFCURVE",
"54 -207 OFFCURVE",
"213 -207 CURVE SMOOTH"
);
},
{
closed = 1;
nodes = (
"148 -111 OFFCURVE",
"118 -94 OFFCURVE",
"118 -53 CURVE SMOOTH",
"118 5 OFFCURVE",
"158 33 OFFCURVE",
"240 33 CURVE SMOOTH",
"317 33 OFFCURVE",
"354 13 OFFCURVE",
"354 -27 CURVE SMOOTH",
"354 -80 OFFCURVE",
"303 -111 OFFCURVE",
"216 -111 CURVE SMOOTH"
);
},
{
closed = 1;
nodes = (
"429 184 OFFCURVE",
"518 255 OFFCURVE",
"518 391 CURVE SMOOTH",
"518 488 OFFCURVE",
"427 560 OFFCURVE",
"303 560 CURVE SMOOTH",
"139 560 OFFCURVE",
"44 480 OFFCURVE",
"44 343 CURVE SMOOTH",
"44 246 OFFCURVE",
"127 184 OFFCURVE",
"258 184 CURVE SMOOTH"
);
},
{
closed = 1;
nodes = (
"218 280 OFFCURVE",
"195 301 OFFCURVE",
"195 348 CURVE SMOOTH",
"195 423 OFFCURVE",
"231 466 OFFCURVE",
"293 466 CURVE SMOOTH",
"342 466 OFFCURVE",
"366 444 OFFCURVE",
"366 398 CURVE SMOOTH",
"366 321 OFFCURVE",
"332 280 OFFCURVE",
"267 280 CURVE SMOOTH"
);
},
{
closed = 1;
nodes = (
"494 485 OFFCURVE",
"532 495 OFFCURVE",
"597 495 CURVE",
"600 512 OFFCURVE",
"601 528 OFFCURVE",
"601 544 CURVE SMOOTH",
"601 590 OFFCURVE",
"586 609 OFFCURVE",
"548 609 CURVE SMOOTH",
"506 609 OFFCURVE",
"452 575 OFFCURVE",
"413 526 CURVE",
"472 461 LINE"
);
}
);
width = 585;
},
{
anchors = (
{
name = bottom;
position = "{209, -191}";
},
{
name = top;
position = "{313, 550}";
}
);
layerId = "821A3B53-E0A3-4F70-87DD-68DD21D0650F";
paths = (
{
closed = 1;
nodes = (
"384 -202 OFFCURVE",
"483 -139 OFFCURVE",
"483 -28 CURVE SMOOTH",
"483 54 OFFCURVE",
"405 100 OFFCURVE",
"266 100 CURVE SMOOTH",
"161 100 OFFCURVE",
"111 113 OFFCURVE",
"111 141 CURVE SMOOTH",
"111 170 OFFCURVE",
"157 184 OFFCURVE",
"253 184 CURVE",
"165 217 LINE",
"96 212 OFFCURVE",
"50 176 OFFCURVE",
"50 128 CURVE SMOOTH",
"50 94 OFFCURVE",
"71 69 OFFCURVE",
"105 60 CURVE",
"105 57 LINE",
"32 45 OFFCURVE",
"-17 -6 OFFCURVE",
"-17 -70 CURVE SMOOTH",
"-17 -155 OFFCURVE",
"64 -202 OFFCURVE",
"210 -202 CURVE SMOOTH"
);
},
{
closed = 1;
nodes = (
"106 -146 OFFCURVE",
"55 -120 OFFCURVE",
"55 -64 CURVE SMOOTH",
"55 2 OFFCURVE",
"120 38 OFFCURVE",
"241 38 CURVE SMOOTH",
"361 38 OFFCURVE",
"411 16 OFFCURVE",
"411 -37 CURVE SMOOTH",
"411 -109 OFFCURVE",
"344 -146 OFFCURVE",
"213 -146 CURVE SMOOTH"
);
},
{
closed = 1;
nodes = (
"417 184 OFFCURVE",
"498 257 OFFCURVE",
"498 403 CURVE SMOOTH",
"498 496 OFFCURVE",
"419 560 OFFCURVE",
"305 560 CURVE SMOOTH",
"147 560 OFFCURVE",
"64 487 OFFCURVE",
"64 347 CURVE SMOOTH",
"64 254 OFFCURVE",
"145 184 OFFCURVE",
"253 184 CURVE SMOOTH"
);
},
{
closed = 1;
nodes = (
"178 240 OFFCURVE",
"135 277 OFFCURVE",
"135 350 CURVE SMOOTH",
"135 456 OFFCURVE",
"188 506 OFFCURVE",
"298 506 CURVE SMOOTH",
"386 506 OFFCURVE",
"427 473 OFFCURVE",
"427 403 CURVE SMOOTH",
"427 291 OFFCURVE",
"375 240 OFFCURVE",
"261 240 CURVE SMOOTH"
);
},
{
closed = 1;
nodes = (
"476 505 OFFCURVE",
"514 515 OFFCURVE",
"578 515 CURVE",
"583 529 OFFCURVE",
"585 541 OFFCURVE",
"585 550 CURVE SMOOTH",
"585 569 OFFCURVE",
"575 579 OFFCURVE",
"554 579 CURVE SMOOTH",
"513 579 OFFCURVE",
"461 554 OFFCURVE",
"421 516 CURVE",
"455 481 LINE"
);
}
);
width = 585;
},
{
anchors = (
{
name = bottom;
position = "{207, -193}";
},
{
name = top;
position = "{313, 550}";
}
);
layerId = "3E05E8D4-50BE-428E-AA2A-790990B7EE87";
paths = (
{
closed = 1;
nodes = (
"393 -202 OFFCURVE",
"483 -149 OFFCURVE",
"483 -40 CURVE SMOOTH",
"483 39 OFFCURVE",
"403 82 OFFCURVE",
"253 82 CURVE SMOOTH",
"123 82 OFFCURVE",
"91 90 OFFCURVE",
"91 124 CURVE SMOOTH",
"91 167 OFFCURVE",
"136 184 OFFCURVE",
"253 184 CURVE",
"174 207 LINE",
"96 207 OFFCURVE",
"52 177 OFFCURVE",
"52 124 CURVE SMOOTH",
"52 95 OFFCURVE",
"75 69 OFFCURVE",
"107 64 CURVE",
"106 61 LINE",
"29 49 OFFCURVE",
"-17 1 OFFCURVE",
"-17 -66 CURVE SMOOTH",
"-17 -151 OFFCURVE",
"68 -202 OFFCURVE",
"208 -202 CURVE SMOOTH"
);
},
{
closed = 1;
nodes = (
"91 -164 OFFCURVE",
"27 -128 OFFCURVE",
"27 -62 CURVE SMOOTH",
"27 14 OFFCURVE",
"91 46 OFFCURVE",
"242 46 CURVE SMOOTH",
"376 46 OFFCURVE",
"439 17 OFFCURVE",
"439 -44 CURVE SMOOTH",
"439 -126 OFFCURVE",
"368 -164 OFFCURVE",
"211 -164 CURVE SMOOTH"
);
},
{
closed = 1;
nodes = (
"416 184 OFFCURVE",
"498 257 OFFCURVE",
"498 402 CURVE SMOOTH",
"498 499 OFFCURVE",
"424 560 OFFCURVE",
"306 560 CURVE SMOOTH",
"148 560 OFFCURVE",
"64 486 OFFCURVE",
"64 345 CURVE SMOOTH",
"64 247 OFFCURVE",
"138 184 OFFCURVE",
"253 184 CURVE SMOOTH"
);
},
{
closed = 1;
nodes = (
"162 222 OFFCURVE",
"107 268 OFFCURVE",
"107 347 CURVE SMOOTH",
"107 459 OFFCURVE",
"178 524 OFFCURVE",
"301 524 CURVE SMOOTH",
"401 524 OFFCURVE",
"454 481 OFFCURVE",
"454 400 CURVE SMOOTH",
"454 283 OFFCURVE",
"387 222 OFFCURVE",
"258 222 CURVE SMOOTH"
);
},
{
closed = 1;
nodes = (
"474 529 OFFCURVE",
"520 545 OFFCURVE",
"581 545 CURVE",
"582 549 OFFCURVE",
"583 553 OFFCURVE",
"583 559 CURVE SMOOTH",
"583 574 OFFCURVE",
"575 579 OFFCURVE",
"554 579 CURVE SMOOTH",
"513 579 OFFCURVE",
"461 554 OFFCURVE",
"421 516 CURVE",
"448 501 LINE"
);
}
);
width = 585;
}
);
note = g;
unicode = 0067;
},
{
color = 4;
glyphname = h;
lastChange = "2018-07-18 10:11:34 +0000";
layers = (
{
anchors = (
{
name = bottom;
position = "{315, 0}";
},
{
name = center;
position = "{315, 275}";
},
{
name = top;
position = "{125, 710}";
}
);
layerId = "5A4BD32C-A1D1-4EB1-A794-47BD06E3B809";
paths = (
{
closed = 1;
nodes = (
"539 0 LINE",
"539 376 LINE SMOOTH",
"539 489 OFFCURVE",
"467 560 OFFCURVE",
"353 560 CURVE SMOOTH",
"280 560 OFFCURVE",
"205 532 OFFCURVE",
"144 483 CURVE",
"144 415 LINE",
"198 468 OFFCURVE",
"280 504 OFFCURVE",
"347 504 CURVE SMOOTH",
"427 504 OFFCURVE",
"471 456 OFFCURVE",
"471 369 CURVE SMOOTH",
"471 0 LINE"
);
},
{
closed = 1;
nodes = (
"159 0 LINE",
"159 791 LINE",
"91 791 LINE",
"91 0 LINE"
);
}
);
width = 630;
},
{
anchors = (
{
name = bottom;
position = "{315, 0}";
},
{
name = center;
position = "{315, 275}";
},
{
name = top;
position = "{125, 750}";
}
);
layerId = "FD6510A9-FDB4-489D-9A3E-85E488E95339";
paths = (
{
closed = 1;
nodes = (
"549 0 LINE",
"549 396 LINE SMOOTH",
"549 497 OFFCURVE",
"489 560 OFFCURVE",
"393 560 CURVE SMOOTH",
"306 560 OFFCURVE",
"211 512 OFFCURVE",
"164 443 CURVE",
"164 365 LINE",
"224 424 OFFCURVE",
"283 454 OFFCURVE",
"337 454 CURVE SMOOTH",
"382 454 OFFCURVE",
"401 432 OFFCURVE",
"401 379 CURVE SMOOTH",
"401 0 LINE"
);
},
{
closed = 1;
nodes = (
"199 0 LINE",
"199 791 LINE",
"51 791 LINE",
"51 0 LINE"
);
}
);
width = 630;
},
{
anchors = (
{
name = bottom;
position = "{315, 0}";
},
{
name = center;
position = "{315, 275}";
},
{
name = top;
position = "{125, 710}";
}
);
layerId = "EB12C417-147C-44D3-ABF9-73FB32C0B9E2";
paths = (
{
closed = 1;
nodes = (
"539 0 LINE",
"539 376 LINE SMOOTH",
"539 487 OFFCURVE",
"463 560 OFFCURVE",
"347 560 CURVE SMOOTH",
"270 560 OFFCURVE",
"199 536 OFFCURVE",
"124 483 CURVE",
"124 440 LINE",
"188 490 OFFCURVE",
"273 522 OFFCURVE",
"341 522 CURVE SMOOTH",
"442 522 OFFCURVE",
"497 469 OFFCURVE",
"497 369 CURVE SMOOTH",
"497 0 LINE"
);
},
{
closed = 1;
nodes = (
"133 0 LINE",
"133 791 LINE",
"91 791 LINE",
"91 0 LINE"
);
}
);
width = 630;
},
{
anchors = (
{
name = bottom;
position = "{258, 0}";
},
{
name = center;
position = "{296, 275}";
},
{
name = top;
position = "{173, 750}";
}
);
layerId = "CF2C6045-422A-4B78-B702-649D3D8A1FBA";
paths = (
{
closed = 1;
nodes = (
"492 0 LINE",
"547 396 LINE SMOOTH",
"561 497 OFFCURVE",
"510 560 OFFCURVE",
"414 560 CURVE SMOOTH",
"327 560 OFFCURVE",
"227 512 OFFCURVE",
"169 443 CURVE",
"158 365 LINE",
"226 424 OFFCURVE",
"290 454 OFFCURVE",
"344 454 CURVE SMOOTH",
"389 454 OFFCURVE",
"404 432 OFFCURVE",
"397 379 CURVE SMOOTH",
"344 0 LINE"
);
},
{
closed = 1;
nodes = (
"142 0 LINE",
"253 791 LINE",
"105 791 LINE",
"-6 0 LINE"
);
}
);
width = 630;
},
{
anchors = (
{
name = bottom;
position = "{258, 0}";
},
{
name = center;
position = "{296, 275}";
},
{
name = top;
position = "{167, 710}";
}
);
layerId = "821A3B53-E0A3-4F70-87DD-68DD21D0650F";
paths = (
{
closed = 1;
nodes = (
"482 0 LINE",
"535 376 LINE SMOOTH",
"550 489 OFFCURVE",
"488 560 OFFCURVE",
"374 560 CURVE SMOOTH",
"301 560 OFFCURVE",
"222 532 OFFCURVE",
"155 483 CURVE",
"145 415 LINE",
"207 468 OFFCURVE",
"294 504 OFFCURVE",
"361 504 CURVE SMOOTH",
"441 504 OFFCURVE",
"478 456 OFFCURVE",
"466 369 CURVE SMOOTH",
"414 0 LINE"
);
},
{
closed = 1;
nodes = (
"102 0 LINE",
"213 791 LINE",
"145 791 LINE",
"34 0 LINE"
);
}
);
width = 630;
},
{
anchors = (
{
name = bottom;
position = "{258, 0}";
},
{
name = center;
position = "{296, 275}";
},
{
name = top;
position = "{167, 710}";
}
);
layerId = "3E05E8D4-50BE-428E-AA2A-790990B7EE87";
paths = (
{
closed = 1;
nodes = (
"482 0 LINE",
"535 376 LINE SMOOTH",
"550 487 OFFCURVE",
"484 560 OFFCURVE",
"368 560 CURVE SMOOTH",
"291 560 OFFCURVE",
"216 535 OFFCURVE",
"135 483 CURVE",
"129 440 LINE",
"200 490 OFFCURVE",
"289 522 OFFCURVE",
"357 522 CURVE SMOOTH",
"458 522 OFFCURVE",
"505 469 OFFCURVE",
"492 369 CURVE SMOOTH",
"440 0 LINE"
);
},
{
closed = 1;
nodes = (
"76 0 LINE",
"187 791 LINE",
"145 791 LINE",
"34 0 LINE"
);
}
);
width = 630;
},
{
anchors = (
{
name = bottom;
position = "{315, 0}";
},
{
name = center;
position = "{315, 275}";
},
{
name = top;
position = "{125, 710}";
}
);
associatedMasterId = "EB12C417-147C-44D3-ABF9-73FB32C0B9E2";
layerId = "F1FC1ABB-373D-41F6-B4B5-1D9126857A90";
paths = (
{
closed = 1;
nodes = (
"539 0 LINE",
"539 376 LINE SMOOTH",
"539 487 OFFCURVE",
"463 560 OFFCURVE",
"347 560 CURVE SMOOTH",
"241 560 OFFCURVE",
"171 516 OFFCURVE",
"124 483 CURVE",
"124 440 LINE",
"173 478 OFFCURVE",
"257 522 OFFCURVE",
"341 522 CURVE SMOOTH",
"443 522 OFFCURVE",
"497 468 OFFCURVE",
"497 369 CURVE SMOOTH",
"497 0 LINE"
);
},
{
closed = 1;
nodes = (
"133 0 LINE",
"133 791 LINE",
"91 791 LINE",
"91 0 LINE"
);
}
);
width = 630;
}
);
note = h;
unicode = 0068;
},
{
color = 4;
glyphname = k;
lastChange = "2018-07-18 10:11:34 +0000";
layers = (
{
layerId = "5A4BD32C-A1D1-4EB1-A794-47BD06E3B809";
paths = (
{
closed = 1;
nodes = (
"481 -4 OFFCURVE",
"505 0 OFFCURVE",
"529 0 CURVE",
"361 259 LINE SMOOTH",
"340 292 OFFCURVE",
"299 310 OFFCURVE",
"255 312 CURVE",
"252 295 LINE",
"292 300 OFFCURVE",
"305 318 OFFCURVE",
"317 332 CURVE SMOOTH",
"495 550 LINE",
"411 550 LINE",
"261 357 LINE SMOOTH",
"245 336 OFFCURVE",
"227 326 OFFCURVE",
"198 325 CURVE SMOOTH",
"144 324 LINE",
"144 261 LINE",
"205 264 LINE SMOOTH",
"256 266 OFFCURVE",
"291 251 OFFCURVE",
"310 220 CURVE SMOOTH",
"439 12 LINE SMOOTH",
"445 2 OFFCURVE",
"454 -4 OFFCURVE",
"468 -4 CURVE SMOOTH"
);
},
{
closed = 1;
nodes = (
"159 0 LINE",
"159 791 LINE",
"91 791 LINE",
"91 0 LINE"
);
}
);
width = 547;
},
{
layerId = "FD6510A9-FDB4-489D-9A3E-85E488E95339";
paths = (
{
closed = 1;
nodes = (
"523 -5 OFFCURVE",
"559 0 OFFCURVE",
"608 0 CURVE",
"481 219 LINE SMOOTH",
"456 261 OFFCURVE",
"433 281 OFFCURVE",
"353 289 CURVE",
"360 265 LINE",
"425 282 OFFCURVE",
"442 311 OFFCURVE",
"465 353 CURVE SMOOTH",
"575 550 LINE",
"411 550 LINE",
"331 386 LINE SMOOTH",
"308 339 OFFCURVE",
"290 327 OFFCURVE",
"241 325 CURVE SMOOTH",
"203 323 LINE",
"203 221 LINE",
"245 224 LINE SMOOTH",
"311 228 OFFCURVE",
"331 209 OFFCURVE",
"349 176 CURVE SMOOTH",
"427 35 LINE SMOOTH",
"442 9 OFFCURVE",
"461 -5 OFFCURVE",
"498 -5 CURVE SMOOTH"
);
},
{
closed = 1;
nodes = (
"219 0 LINE",
"219 791 LINE",
"71 791 LINE",
"71 0 LINE"
);
}
);
width = 617;
},
{
layerId = "EB12C417-147C-44D3-ABF9-73FB32C0B9E2";
paths = (
{
closed = 1;
nodes = (
"500 -2 OFFCURVE",
"512 0 OFFCURVE",
"525 0 CURVE",
"384 229 LINE SMOOTH",
"355 276 OFFCURVE",
"318 296 OFFCURVE",
"257 301 CURVE",
"259 285 LINE",
"288 292 OFFCURVE",
"307 310 OFFCURVE",
"325 333 CURVE SMOOTH",
"495 550 LINE",
"446 550 LINE",
"290 350 LINE SMOOTH",
"260 312 OFFCURVE",
"247 306 OFFCURVE",
"198 305 CURVE SMOOTH",
"125 303 LINE",
"125 269 LINE",
"205 271 LINE SMOOTH",
"280 271 OFFCURVE",
"313 263 OFFCURVE",
"346 210 CURVE SMOOTH",
"471 9 LINE SMOOTH",
"476 2 OFFCURVE",
"482 -2 OFFCURVE",
"491 -2 CURVE SMOOTH"
);
},
{
closed = 1;
nodes = (
"133 0 LINE",
"133 791 LINE",
"91 791 LINE",
"91 0 LINE"
);
}
);
width = 547;
},
{
layerId = "CF2C6045-422A-4B78-B702-649D3D8A1FBA";
paths = (
{
closed = 1;
nodes = (
"463 -5 OFFCURVE",
"502 0 OFFCURVE",
"551 0 CURVE",
"454 219 LINE SMOOTH",
"435 261 OFFCURVE",
"415 281 OFFCURVE",
"336 289 CURVE",
"340 265 LINE",
"407 282 OFFCURVE",
"428 311 OFFCURVE",
"457 353 CURVE SMOOTH",
"595 550 LINE",
"431 550 LINE",
"328 386 LINE SMOOTH",
"298 339 OFFCURVE",
"279 327 OFFCURVE",
"229 325 CURVE SMOOTH",
"191 323 LINE",
"177 221 LINE",
"219 224 LINE SMOOTH",
"286 228 OFFCURVE",
"303 209 OFFCURVE",
"316 176 CURVE SMOOTH",
"375 35 LINE SMOOTH",
"386 9 OFFCURVE",
"401 -5 OFFCURVE",
"440 -5 CURVE SMOOTH"
);
},
{
closed = 1;
nodes = (
"162 0 LINE",
"273 791 LINE",
"125 791 LINE",
"14 0 LINE"
);
}
);
width = 617;
},
{
layerId = "821A3B53-E0A3-4F70-87DD-68DD21D0650F";
paths = (
{
closed = 1;
nodes = (
"423 -4 OFFCURVE",
"448 0 OFFCURVE",
"472 0 CURVE",
"340 259 LINE SMOOTH",
"324 292 OFFCURVE",
"285 310 OFFCURVE",
"242 312 CURVE",
"236 295 LINE",
"277 300 OFFCURVE",
"292 318 OFFCURVE",
"306 332 CURVE SMOOTH",
"515 550 LINE",
"431 550 LINE",
"254 357 LINE SMOOTH",
"235 336 OFFCURVE",
"216 326 OFFCURVE",
"186 325 CURVE SMOOTH",
"132 324 LINE",
"123 261 LINE",
"185 264 LINE SMOOTH",
"236 266 OFFCURVE",
"269 251 OFFCURVE",
"284 220 CURVE SMOOTH",
"383 12 LINE SMOOTH",
"388 2 OFFCURVE",
"396 -4 OFFCURVE",
"410 -4 CURVE SMOOTH"
);
},
{
closed = 1;
nodes = (
"102 0 LINE",
"213 791 LINE",
"145 791 LINE",
"34 0 LINE"
);
}
);
width = 547;
},
{
layerId = "3E05E8D4-50BE-428E-AA2A-790990B7EE87";
paths = (
{
closed = 1;
nodes = (
"442 -2 OFFCURVE",
"455 0 OFFCURVE",
"468 0 CURVE",
"359 229 LINE SMOOTH",
"336 276 OFFCURVE",
"302 296 OFFCURVE",
"242 301 CURVE",
"242 285 LINE",
"272 292 OFFCURVE",
"293 310 OFFCURVE",
"315 333 CURVE SMOOTH",
"515 550 LINE",
"466 550 LINE",
"282 350 LINE SMOOTH",
"247 312 OFFCURVE",
"233 306 OFFCURVE",
"184 305 CURVE SMOOTH",
"110 303 LINE",
"106 269 LINE",
"186 271 LINE SMOOTH",
"261 271 OFFCURVE",
"293 263 OFFCURVE",
"318 210 CURVE SMOOTH",
"415 9 LINE SMOOTH",
"419 2 OFFCURVE",
"424 -2 OFFCURVE",
"433 -2 CURVE SMOOTH"
);
},
{
closed = 1;
nodes = (
"76 0 LINE",
"187 791 LINE",
"145 791 LINE",
"34 0 LINE"
);
}
);
width = 547;
},
{
associatedMasterId = "EB12C417-147C-44D3-ABF9-73FB32C0B9E2";
layerId = "F1FC1ABB-373D-41F6-B4B5-1D9126857A90";
paths = (
{
closed = 1;
nodes = (
"500 -2 OFFCURVE",
"512 0 OFFCURVE",
"525 0 CURVE",
"384 229 LINE SMOOTH",
"355 276 OFFCURVE",
"318 296 OFFCURVE",
"257 301 CURVE",
"259 285 LINE",
"288 292 OFFCURVE",
"307 310 OFFCURVE",
"325 333 CURVE SMOOTH",
"495 550 LINE",
"446 550 LINE",
"290 350 LINE SMOOTH",
"260 312 OFFCURVE",
"247 306 OFFCURVE",
"198 305 CURVE SMOOTH",
"125 303 LINE",
"125 269 LINE",
"205 271 LINE SMOOTH",
"280 271 OFFCURVE",
"313 263 OFFCURVE",
"346 210 CURVE SMOOTH",
"471 9 LINE SMOOTH",
"476 2 OFFCURVE",
"482 -2 OFFCURVE",
"491 -2 CURVE SMOOTH"
);
},
{
closed = 1;
nodes = (
"133 0 LINE",
"133 791 LINE",
"91 791 LINE",
"91 0 LINE"
);
}
);
width = 547;
}
);
note = k;
unicode = 006B;
},
{
color = 4;
glyphname = l;
lastChange = "2018-07-18 10:11:34 +0000";
layers = (
{
anchors = (
{
name = bottom;
position = "{134, 0}";
},
{
name = center;
position = "{134, 275}";
},
{
name = top;
position = "{134, 750}";
},
{
name = topright;
position = "{248, 550}";
}
);
layerId = "5A4BD32C-A1D1-4EB1-A794-47BD06E3B809";
paths = (
{
closed = 1;
nodes = (
"168 0 LINE",
"168 791 LINE",
"100 791 LINE",
"100 0 LINE"
);
}
);
width = 268;
},
{
anchors = (
{
name = bottom;
position = "{134, 0}";
},
{
name = center;
position = "{134, 275}";
},
{
name = top;
position = "{134, 750}";
},
{
name = topright;
position = "{248, 550}";
}
);
layerId = "FD6510A9-FDB4-489D-9A3E-85E488E95339";
paths = (
{
closed = 1;
nodes = (
"208 0 LINE",
"208 791 LINE",
"60 791 LINE",
"60 0 LINE"
);
}
);
width = 268;
},
{
anchors = (
{
name = bottom;
position = "{134, 0}";
},
{
name = center;
position = "{134, 275}";
},
{
name = top;
position = "{134, 750}";
},
{
name = topright;
position = "{247, 550}";
}
);
layerId = "EB12C417-147C-44D3-ABF9-73FB32C0B9E2";
paths = (
{
closed = 1;
nodes = (
"156 0 LINE",
"156 791 LINE",
"114 791 LINE",
"114 0 LINE"
);
}
);
width = 270;
},
{
anchors = (
{
name = bottom;
position = "{77, 0}";
},
{
name = center;
position = "{115, 275}";
},
{
name = top;
position = "{182, 750}";
},
{
name = topright;
position = "{268, 550}";
}
);
layerId = "CF2C6045-422A-4B78-B702-649D3D8A1FBA";
paths = (
{
closed = 1;
nodes = (
"151 0 LINE",
"262 791 LINE",
"114 791 LINE",
"3 0 LINE"
);
}
);
width = 268;
},
{
anchors = (
{
name = bottom;
position = "{77, 0}";
},
{
name = center;
position = "{115, 275}";
},
{
name = top;
position = "{182, 750}";
},
{
name = topright;
position = "{268, 550}";
}
);
layerId = "821A3B53-E0A3-4F70-87DD-68DD21D0650F";
paths = (
{
closed = 1;
nodes = (
"111 0 LINE",
"222 791 LINE",
"154 791 LINE",
"43 0 LINE"
);
}
);
width = 268;
},
{
anchors = (
{
name = bottom;
position = "{77, 0}";
},
{
name = center;
position = "{115, 275}";
},
{
name = top;
position = "{182, 750}";
},
{
name = topright;
position = "{267, 550}";
}
);
layerId = "3E05E8D4-50BE-428E-AA2A-790990B7EE87";
paths = (
{
closed = 1;
nodes = (
"99 0 LINE",
"210 791 LINE",
"168 791 LINE",
"57 0 LINE"
);
}
);
width = 270;
},
{
anchors = (
{
name = bottom;
position = "{134, 0}";
},
{
name = center;
position = "{134, 275}";
},
{
name = top;
position = "{134, 750}";
},
{
name = topright;
position = "{247, 550}";
}
);
associatedMasterId = "EB12C417-147C-44D3-ABF9-73FB32C0B9E2";
layerId = "F1FC1ABB-373D-41F6-B4B5-1D9126857A90";
paths = (
{
closed = 1;
nodes = (
"156 0 LINE",
"156 791 LINE",
"114 791 LINE",
"114 0 LINE"
);
}
);
width = 270;
}
);
note = l;
unicode = 006C;
},
{
color = 4;
glyphname = m;
lastChange = "2018-07-18 10:11:34 +0000";
layers = (
{
anchors = (
{
name = bottom;
position = "{456, 0}";
},
{
name = top;
position = "{456, 550}";
}
);
layerId = "5A4BD32C-A1D1-4EB1-A794-47BD06E3B809";
paths = (
{
closed = 1;
nodes = (
"821 0 LINE",
"821 395 LINE SMOOTH",
"821 493 OFFCURVE",
"756 560 OFFCURVE",
"661 560 CURVE SMOOTH",
"578 560 OFFCURVE",
"519 532 OFFCURVE",
"457 465 CURVE",
"471 407 LINE",
"523 472 OFFCURVE",
"583 506 OFFCURVE",
"647 506 CURVE SMOOTH",
"718 506 OFFCURVE",
"752 469 OFFCURVE",
"752 392 CURVE SMOOTH",
"752 0 LINE"
);
},
{
closed = 1;
nodes = (
"160 0 LINE",
"160 496 LINE SMOOTH",
"160 534 OFFCURVE",
"150 554 OFFCURVE",
"131 554 CURVE SMOOTH",
"119 554 OFFCURVE",
"99 548 OFFCURVE",
"80 539 CURVE",
"88 520 OFFCURVE",
"92 451 OFFCURVE",
"92 363 CURVE SMOOTH",
"92 0 LINE"
);
},
{
closed = 1;
nodes = (
"491 0 LINE",
"491 404 LINE SMOOTH",
"491 493 OFFCURVE",
"423 560 OFFCURVE",
"331 560 CURVE SMOOTH",
"252 560 OFFCURVE",
"196 533 OFFCURVE",
"137 468 CURVE",
"142 406 LINE",
"201 476 OFFCURVE",
"255 506 OFFCURVE",
"319 506 CURVE SMOOTH",
"382 506 OFFCURVE",
"423 465 OFFCURVE",
"423 402 CURVE SMOOTH",
"423 0 LINE"
);
}
);
width = 912;
},
{
anchors = (
{
name = bottom;
position = "{456, 0}";
},
{
name = top;
position = "{456, 550}";
}
);
layerId = "FD6510A9-FDB4-489D-9A3E-85E488E95339";
paths = (
{
closed = 1;
nodes = (
"841 0 LINE",
"841 385 LINE SMOOTH",
"841 494 OFFCURVE",
"777 560 OFFCURVE",
"671 560 CURVE SMOOTH",
"593 560 OFFCURVE",
"534 528 OFFCURVE",
"497 465 CURVE",
"511 387 LINE",
"541 439 OFFCURVE",
"580 466 OFFCURVE",
"627 466 CURVE SMOOTH",
"678 466 OFFCURVE",
"692 448 OFFCURVE",
"692 382 CURVE SMOOTH",
"692 0 LINE"
);
},
{
closed = 1;
nodes = (
"220 0 LINE",
"220 455 LINE SMOOTH",
"220 527 OFFCURVE",
"204 554 OFFCURVE",
"161 554 CURVE SMOOTH",
"129 554 OFFCURVE",
"86 543 OFFCURVE",
"60 528 CURVE",
"68 506 OFFCURVE",
"72 451 OFFCURVE",
"72 353 CURVE SMOOTH",
"72 0 LINE"
);
},
{
closed = 1;
nodes = (
"531 0 LINE",
"531 404 LINE SMOOTH",
"531 501 OFFCURVE",
"475 560 OFFCURVE",
"381 560 CURVE SMOOTH",
"304 560 OFFCURVE",
"248 528 OFFCURVE",
"187 448 CURVE",
"192 366 LINE",
"242 435 OFFCURVE",
"285 466 OFFCURVE",
"329 466 CURVE SMOOTH",
"370 466 OFFCURVE",
"383 448 OFFCURVE",
"383 392 CURVE SMOOTH",
"383 0 LINE"
);
}
);
width = 912;
},
{
anchors = (
{
name = bottom;
position = "{456, 0}";
},
{
name = top;
position = "{456, 550}";
}
);
layerId = "EB12C417-147C-44D3-ABF9-73FB32C0B9E2";
paths = (
{
closed = 1;
nodes = (
"821 0 LINE",
"821 395 LINE SMOOTH",
"821 498 OFFCURVE",
"754 560 OFFCURVE",
"641 560 CURVE SMOOTH",
"563 560 OFFCURVE",
"485 523 OFFCURVE",
"437 465 CURVE",
"451 427 LINE",
"500 488 OFFCURVE",
"569 524 OFFCURVE",
"637 524 CURVE SMOOTH",
"729 524 OFFCURVE",
"779 478 OFFCURVE",
"779 392 CURVE SMOOTH",
"779 0 LINE"
);
},
{
closed = 1;
nodes = (
"132 0 LINE",
"132 486 LINE SMOOTH",
"132 532 OFFCURVE",
"125 554 OFFCURVE",
"109 554 CURVE SMOOTH",
"98 554 OFFCURVE",
"88 549 OFFCURVE",
"78 539 CURVE",
"89 529 OFFCURVE",
"90 521 OFFCURVE",
"90 413 CURVE SMOOTH",
"90 0 LINE"
);
},
{
closed = 1;
nodes = (
"473 0 LINE",
"473 394 LINE SMOOTH",
"473 498 OFFCURVE",
"416 560 OFFCURVE",
"321 560 CURVE SMOOTH",
"247 560 OFFCURVE",
"175 528 OFFCURVE",
"117 468 CURVE",
"122 426 LINE",
"174 487 OFFCURVE",
"248 524 OFFCURVE",
"319 524 CURVE SMOOTH",
"395 524 OFFCURVE",
"431 482 OFFCURVE",
"431 392 CURVE SMOOTH",
"431 0 LINE"
);
}
);
width = 912;
},
{
anchors = (
{
name = bottom;
position = "{399, 0}";
},
{
name = top;
position = "{476, 550}";
}
);
layerId = "CF2C6045-422A-4B78-B702-649D3D8A1FBA";
paths = (
{
closed = 1;
nodes = (
"784 0 LINE",
"838 385 LINE SMOOTH",
"853 494 OFFCURVE",
"798 560 OFFCURVE",
"692 560 CURVE SMOOTH",
"613 560 OFFCURVE",
"550 528 OFFCURVE",
"505 465 CURVE",
"508 387 LINE",
"546 439 OFFCURVE",
"589 466 OFFCURVE",
"635 466 CURVE SMOOTH",
"686 466 OFFCURVE",
"697 448 OFFCURVE",
"688 382 CURVE SMOOTH",
"635 0 LINE"
);
},
{
closed = 1;
nodes = (
"163 0 LINE",
"227 455 LINE SMOOTH",
"238 527 OFFCURVE",
"225 554 OFFCURVE",
"182 554 CURVE SMOOTH",
"150 554 OFFCURVE",
"106 543 OFFCURVE",
"77 528 CURVE",
"83 507 OFFCURVE",
"79 453 OFFCURVE",
"64 353 CURVE SMOOTH",
"15 0 LINE"
);
},
{
closed = 1;
nodes = (
"474 0 LINE",
"530 404 LINE SMOOTH",
"544 501 OFFCURVE",
"496 560 OFFCURVE",
"402 560 CURVE SMOOTH",
"325 560 OFFCURVE",
"266 528 OFFCURVE",
"194 448 CURVE",
"186 366 LINE",
"246 435 OFFCURVE",
"293 466 OFFCURVE",
"337 466 CURVE SMOOTH",
"378 466 OFFCURVE",
"388 448 OFFCURVE",
"381 392 CURVE SMOOTH",
"326 0 LINE"
);
}
);
width = 912;
},
{
anchors = (
{
name = bottom;
position = "{399, 0}";
},
{
name = top;
position = "{476, 550}";
}
);
layerId = "821A3B53-E0A3-4F70-87DD-68DD21D0650F";
paths = (
{
closed = 1;
nodes = (
"764 0 LINE",
"819 395 LINE SMOOTH",
"833 493 OFFCURVE",
"777 560 OFFCURVE",
"682 560 CURVE SMOOTH",
"599 560 OFFCURVE",
"536 532 OFFCURVE",
"465 465 CURVE",
"471 407 LINE",
"532 472 OFFCURVE",
"597 506 OFFCURVE",
"661 506 CURVE SMOOTH",
"731 506 OFFCURVE",
"761 468 OFFCURVE",
"750 392 CURVE SMOOTH",
"695 0 LINE"
);
},
{
closed = 1;
nodes = (
"103 0 LINE",
"173 496 LINE SMOOTH",
"178 534 OFFCURVE",
"171 554 OFFCURVE",
"152 554 CURVE SMOOTH",
"140 554 OFFCURVE",
"119 548 OFFCURVE",
"99 539 CURVE",
"103 520 OFFCURVE",
"98 448 OFFCURVE",
"86 363 CURVE SMOOTH",
"35 0 LINE"
);
},
{
closed = 1;
nodes = (
"434 0 LINE",
"490 404 LINE SMOOTH",
"502 494 OFFCURVE",
"443 560 OFFCURVE",
"352 560 CURVE SMOOTH",
"273 560 OFFCURVE",
"214 534 OFFCURVE",
"145 468 CURVE",
"142 406 LINE",
"210 475 OFFCURVE",
"269 506 OFFCURVE",
"333 506 CURVE SMOOTH",
"395 506 OFFCURVE",
"431 465 OFFCURVE",
"422 402 CURVE SMOOTH",
"366 0 LINE"
);
}
);
width = 912;
},
{
anchors = (
{
name = bottom;
position = "{399, 0}";
},
{
name = top;
position = "{476, 550}";
}
);
layerId = "3E05E8D4-50BE-428E-AA2A-790990B7EE87";
paths = (
{
closed = 1;
nodes = (
"764 0 LINE",
"819 395 LINE SMOOTH",
"833 498 OFFCURVE",
"775 560 OFFCURVE",
"662 560 CURVE SMOOTH",
"585 560 OFFCURVE",
"501 524 OFFCURVE",
"445 465 CURVE",
"454 427 LINE",
"511 488 OFFCURVE",
"585 524 OFFCURVE",
"653 524 CURVE SMOOTH",
"745 524 OFFCURVE",
"789 478 OFFCURVE",
"777 392 CURVE SMOOTH",
"722 0 LINE"
);
},
{
closed = 1;
nodes = (
"75 0 LINE",
"143 486 LINE SMOOTH",
"149 532 OFFCURVE",
"147 554 OFFCURVE",
"130 554 CURVE SMOOTH",
"119 554 OFFCURVE",
"108 549 OFFCURVE",
"97 539 CURVE",
"107 528 OFFCURVE",
"105 510 OFFCURVE",
"91 413 CURVE SMOOTH",
"33 0 LINE"
);
},
{
closed = 1;
nodes = (
"416 0 LINE",
"471 394 LINE SMOOTH",
"486 501 OFFCURVE",
"435 560 OFFCURVE",
"342 560 CURVE SMOOTH",
"268 560 OFFCURVE",
"192 528 OFFCURVE",
"125 468 CURVE",
"125 426 LINE",
"185 487 OFFCURVE",
"264 524 OFFCURVE",
"335 524 CURVE SMOOTH",
"414 524 OFFCURVE",
"441 477 OFFCURVE",
"429 392 CURVE SMOOTH",
"374 0 LINE"
);
}
);
width = 912;
},
{
anchors = (
{
name = bottom;
position = "{456, 0}";
},
{
name = top;
position = "{456, 550}";
}
);
associatedMasterId = "EB12C417-147C-44D3-ABF9-73FB32C0B9E2";
layerId = "F1FC1ABB-373D-41F6-B4B5-1D9126857A90";
paths = (
{
closed = 1;
nodes = (
"821 0 LINE",
"821 395 LINE SMOOTH",
"821 517 OFFCURVE",
"733 560 OFFCURVE",
"641 560 CURVE SMOOTH",
"559 560 OFFCURVE",
"482 520 OFFCURVE",
"437 465 CURVE",
"451 427 LINE",
"502 491 OFFCURVE",
"572 524 OFFCURVE",
"637 524 CURVE SMOOTH",
"720 524 OFFCURVE",
"779 486 OFFCURVE",
"779 392 CURVE SMOOTH",
"779 0 LINE"
);
},
{
closed = 1;
nodes = (
"132 0 LINE",
"132 481 LINE SMOOTH",
"132 523 OFFCURVE",
"126 549 OFFCURVE",
"109 549 CURVE SMOOTH",
"97 549 OFFCURVE",
"87 543 OFFCURVE",
"78 534 CURVE",
"90 523 OFFCURVE",
"90 508 OFFCURVE",
"90 413 CURVE SMOOTH",
"90 0 LINE"
);
},
{
closed = 1;
nodes = (
"473 0 LINE",
"473 394 LINE SMOOTH",
"473 513 OFFCURVE",
"403 560 OFFCURVE",
"321 560 CURVE SMOOTH",
"234 560 OFFCURVE",
"165 517 OFFCURVE",
"117 468 CURVE",
"122 426 LINE",
"172 485 OFFCURVE",
"245 524 OFFCURVE",
"319 524 CURVE SMOOTH",
"392 524 OFFCURVE",
"431 485 OFFCURVE",
"431 392 CURVE SMOOTH",
"431 0 LINE"
);
}
);
width = 912;
}
);
note = m;
unicode = 006D;
},
{
color = 4;
glyphname = n;
lastChange = "2018-07-18 10:11:34 +0000";
layers = (
{
anchors = (
{
name = bottom;
position = "{305, 0}";
},
{
name = top;
position = "{305, 550}";
}
);
layerId = "5A4BD32C-A1D1-4EB1-A794-47BD06E3B809";
paths = (
{
closed = 1;
nodes = (
"494 -5 OFFCURVE",
"513 -1 OFFCURVE",
"529 7 CURVE",
"521 30 OFFCURVE",
"520 48 OFFCURVE",
"520 128 CURVE SMOOTH",
"520 372 LINE SMOOTH",
"520 499 OFFCURVE",
"464 560 OFFCURVE",
"349 560 CURVE SMOOTH",
"272 560 OFFCURVE",
"206 532 OFFCURVE",
"139 470 CURVE",
"139 398 LINE",
"207 470 OFFCURVE",
"274 506 OFFCURVE",
"342 506 CURVE SMOOTH",
"419 506 OFFCURVE",
"452 466 OFFCURVE",
"452 373 CURVE SMOOTH",
"452 102 LINE SMOOTH",
"452 17 OFFCURVE",
"457 -5 OFFCURVE",
"477 -5 CURVE SMOOTH"
);
},
{
closed = 1;
nodes = (
"158 0 LINE",
"158 496 LINE SMOOTH",
"158 534 OFFCURVE",
"148 554 OFFCURVE",
"129 554 CURVE SMOOTH",
"117 554 OFFCURVE",
"97 548 OFFCURVE",
"78 539 CURVE",
"86 520 OFFCURVE",
"90 451 OFFCURVE",
"90 363 CURVE SMOOTH",
"90 0 LINE"
);
}
);
width = 610;
},
{
anchors = (
{
name = bottom;
position = "{305, 0}";
},
{
name = top;
position = "{305, 550}";
}
);
layerId = "FD6510A9-FDB4-489D-9A3E-85E488E95339";
paths = (
{
closed = 1;
nodes = (
"480 -5 OFFCURVE",
"519 2 OFFCURVE",
"559 17 CURVE",
"544 45 OFFCURVE",
"540 71 OFFCURVE",
"540 138 CURVE SMOOTH",
"540 372 LINE SMOOTH",
"540 499 OFFCURVE",
"484 560 OFFCURVE",
"369 560 CURVE SMOOTH",
"306 560 OFFCURVE",
"260 534 OFFCURVE",
"159 440 CURVE",
"159 358 LINE",
"219 423 OFFCURVE",
"275 456 OFFCURVE",
"322 456 CURVE SMOOTH",
"374 456 OFFCURVE",
"392 432 OFFCURVE",
"392 363 CURVE SMOOTH",
"392 102 LINE SMOOTH",
"392 24 OFFCURVE",
"404 -5 OFFCURVE",
"437 -5 CURVE SMOOTH"
);
},
{
closed = 1;
nodes = (
"208 0 LINE",
"208 496 LINE SMOOTH",
"208 537 OFFCURVE",
"197 554 OFFCURVE",
"169 554 CURVE SMOOTH",
"139 554 OFFCURVE",
"96 546 OFFCURVE",
"48 531 CURVE",
"57 501 OFFCURVE",
"60 458 OFFCURVE",
"60 370 CURVE SMOOTH",
"60 0 LINE"
);
}
);
width = 610;
},
{
anchors = (
{
name = bottom;
position = "{305, 0}";
},
{
name = top;
position = "{305, 550}";
}
);
layerId = "EB12C417-147C-44D3-ABF9-73FB32C0B9E2";
paths = (
{
closed = 1;
nodes = (
"523 -5 OFFCURVE",
"536 1 OFFCURVE",
"540 7 CURVE",
"524 29 OFFCURVE",
"520 49 OFFCURVE",
"520 108 CURVE SMOOTH",
"520 372 LINE SMOOTH",
"520 499 OFFCURVE",
"464 560 OFFCURVE",
"349 560 CURVE SMOOTH",
"271 560 OFFCURVE",
"185 523 OFFCURVE",
"119 462 CURVE",
"119 418 LINE",
"181 484 OFFCURVE",
"268 526 OFFCURVE",
"342 526 CURVE SMOOTH",
"436 526 OFFCURVE",
"478 478 OFFCURVE",
"478 373 CURVE SMOOTH",
"478 102 LINE SMOOTH",
"478 28 OFFCURVE",
"489 -5 OFFCURVE",
"514 -5 CURVE SMOOTH"
);
},
{
closed = 1;
nodes = (
"132 0 LINE",
"132 486 LINE SMOOTH",
"132 535 OFFCURVE",
"126 554 OFFCURVE",
"109 554 CURVE SMOOTH",
"98 554 OFFCURVE",
"88 549 OFFCURVE",
"78 539 CURVE",
"89 529 OFFCURVE",
"90 521 OFFCURVE",
"90 413 CURVE SMOOTH",
"90 0 LINE"
);
}
);
width = 610;
},
{
anchors = (
{
name = bottom;
position = "{248, 0}";
},
{
name = top;
position = "{325, 550}";
}
);
layerId = "CF2C6045-422A-4B78-B702-649D3D8A1FBA";
paths = (
{
closed = 1;
nodes = (
"421 -5 OFFCURVE",
"461 2 OFFCURVE",
"504 17 CURVE",
"493 44 OFFCURVE",
"492 70 OFFCURVE",
"502 138 CURVE SMOOTH",
"535 372 LINE SMOOTH",
"553 498 OFFCURVE",
"505 560 OFFCURVE",
"390 560 CURVE SMOOTH",
"327 560 OFFCURVE",
"279 534 OFFCURVE",
"164 440 CURVE",
"152 358 LINE",
"221 423 OFFCURVE",
"282 456 OFFCURVE",
"329 456 CURVE SMOOTH",
"381 456 OFFCURVE",
"396 432 OFFCURVE",
"386 363 CURVE SMOOTH",
"349 102 LINE SMOOTH",
"338 25 OFFCURVE",
"346 -5 OFFCURVE",
"379 -5 CURVE SMOOTH"
);
},
{
closed = 1;
nodes = (
"151 0 LINE",
"220 496 LINE SMOOTH",
"226 537 OFFCURVE",
"217 554 OFFCURVE",
"190 554 CURVE SMOOTH",
"160 554 OFFCURVE",
"117 546 OFFCURVE",
"65 531 CURVE",
"70 503 OFFCURVE",
"68 471 OFFCURVE",
"55 370 CURVE SMOOTH",
"3 0 LINE"
);
}
);
width = 610;
},
{
anchors = (
{
name = bottom;
position = "{248, 0}";
},
{
name = top;
position = "{325, 550}";
}
);
layerId = "821A3B53-E0A3-4F70-87DD-68DD21D0650F";
paths = (
{
closed = 1;
nodes = (
"436 -5 OFFCURVE",
"456 -1 OFFCURVE",
"473 7 CURVE",
"468 30 OFFCURVE",
"469 48 OFFCURVE",
"481 128 CURVE SMOOTH",
"515 372 LINE SMOOTH",
"533 498 OFFCURVE",
"485 560 OFFCURVE",
"370 560 CURVE SMOOTH",
"293 560 OFFCURVE",
"224 532 OFFCURVE",
"148 470 CURVE",
"138 398 LINE",
"216 470 OFFCURVE",
"288 506 OFFCURVE",
"356 506 CURVE SMOOTH",
"433 506 OFFCURVE",
"460 466 OFFCURVE",
"447 373 CURVE SMOOTH",
"409 102 LINE SMOOTH",
"397 18 OFFCURVE",
"399 -5 OFFCURVE",
"419 -5 CURVE SMOOTH"
);
},
{
closed = 1;
nodes = (
"101 0 LINE",
"171 496 LINE SMOOTH",
"176 534 OFFCURVE",
"169 554 OFFCURVE",
"150 554 CURVE SMOOTH",
"138 554 OFFCURVE",
"117 548 OFFCURVE",
"97 539 CURVE",
"101 519 OFFCURVE",
"96 448 OFFCURVE",
"84 363 CURVE SMOOTH",
"33 0 LINE"
);
}
);
width = 610;
},
{
anchors = (
{
name = bottom;
position = "{248, 0}";
},
{
name = top;
position = "{325, 550}";
}
);
layerId = "3E05E8D4-50BE-428E-AA2A-790990B7EE87";
paths = (
{
closed = 1;
nodes = (
"465 -5 OFFCURVE",
"479 1 OFFCURVE",
"484 7 CURVE",
"470 29 OFFCURVE",
"470 52 OFFCURVE",
"478 108 CURVE SMOOTH",
"515 372 LINE SMOOTH",
"533 498 OFFCURVE",
"483 560 OFFCURVE",
"370 560 CURVE SMOOTH",
"293 560 OFFCURVE",
"202 524 OFFCURVE",
"127 462 CURVE",
"120 418 LINE",
"192 484 OFFCURVE",
"285 526 OFFCURVE",
"359 526 CURVE SMOOTH",
"453 526 OFFCURVE",
"488 479 OFFCURVE",
"473 373 CURVE SMOOTH",
"435 102 LINE SMOOTH",
"425 29 OFFCURVE",
"430 -5 OFFCURVE",
"456 -5 CURVE SMOOTH"
);
},
{
closed = 1;
nodes = (
"75 0 LINE",
"143 486 LINE SMOOTH",
"150 535 OFFCURVE",
"145 554 OFFCURVE",
"130 554 CURVE SMOOTH",
"119 554 OFFCURVE",
"108 549 OFFCURVE",
"97 539 CURVE",
"107 528 OFFCURVE",
"105 510 OFFCURVE",
"91 413 CURVE SMOOTH",
"33 0 LINE"
);
}
);
width = 610;
},
{
anchors = (
{
name = bottom;
position = "{305, 0}";
},
{
name = top;
position = "{305, 550}";
}
);
associatedMasterId = "EB12C417-147C-44D3-ABF9-73FB32C0B9E2";
layerId = "F1FC1ABB-373D-41F6-B4B5-1D9126857A90";
paths = (
{
closed = 1;
nodes = (
"522 -5 OFFCURVE",
"535 0 OFFCURVE",
"540 7 CURVE",
"526 26 OFFCURVE",
"520 42 OFFCURVE",
"520 108 CURVE SMOOTH",
"520 372 LINE SMOOTH",
"520 499 OFFCURVE",
"464 560 OFFCURVE",
"349 560 CURVE SMOOTH",
"257 560 OFFCURVE",
"173 512 OFFCURVE",
"119 462 CURVE",
"119 418 LINE",
"182 485 OFFCURVE",
"269 526 OFFCURVE",
"342 526 CURVE SMOOTH",
"429 526 OFFCURVE",
"478 486 OFFCURVE",
"478 373 CURVE SMOOTH",
"478 102 LINE SMOOTH",
"478 28 OFFCURVE",
"489 -5 OFFCURVE",
"514 -5 CURVE SMOOTH"
);
},
{
closed = 1;
nodes = (
"132 0 LINE",
"132 481 LINE SMOOTH",
"132 523 OFFCURVE",
"128 549 OFFCURVE",
"109 549 CURVE SMOOTH",
"97 549 OFFCURVE",
"87 543 OFFCURVE",
"78 534 CURVE",
"90 523 OFFCURVE",
"90 508 OFFCURVE",
"90 413 CURVE SMOOTH",
"90 0 LINE"
);
}
);
width = 610;
}
);
note = n;
unicode = 006E;
},
{
color = 4;
glyphname = o;
lastChange = "2018-07-18 10:11:34 +0000";
layers = (
{
anchors = (
{
name = bottom;
position = "{274, 0}";
},
{
name = center;
position = "{274, 275}";
},
{
name = ogonek;
position = "{359, 10}";
},
{
name = top;
position = "{274, 550}";
},
{
name = topright;
position = "{413, 474}";
}
);
layerId = "5A4BD32C-A1D1-4EB1-A794-47BD06E3B809";
paths = (
{
closed = 1;
nodes = (
"429 -10 OFFCURVE",
"508 86 OFFCURVE",
"508 276 CURVE SMOOTH",
"508 465 OFFCURVE",
"430 560 OFFCURVE",
"274 560 CURVE SMOOTH",
"118 560 OFFCURVE",
"40 465 OFFCURVE",
"40 276 CURVE SMOOTH",
"40 86 OFFCURVE",
"119 -10 OFFCURVE",
"274 -10 CURVE SMOOTH"
);
},
{
closed = 1;
nodes = (
"161 46 OFFCURVE",
"110 117 OFFCURVE",
"110 276 CURVE SMOOTH",
"110 434 OFFCURVE",
"161 504 OFFCURVE",
"274 504 CURVE SMOOTH",
"387 504 OFFCURVE",
"438 433 OFFCURVE",
"438 276 CURVE SMOOTH",
"438 118 OFFCURVE",
"387 46 OFFCURVE",
"274 46 CURVE SMOOTH"
);
}
);
width = 548;
},
{
anchors = (
{
name = bottom;
position = "{284, 0}";
},
{
name = center;
position = "{284, 275}";
},
{
name = ogonek;
position = "{369, 10}";
},
{
name = top;
position = "{284, 550}";
},
{
name = topright;
position = "{423, 474}";
}
);
layerId = "FD6510A9-FDB4-489D-9A3E-85E488E95339";
paths = (
{
closed = 1;
nodes = (
"445 -10 OFFCURVE",
"538 94 OFFCURVE",
"538 276 CURVE SMOOTH",
"538 457 OFFCURVE",
"446 560 OFFCURVE",
"284 560 CURVE SMOOTH",
"122 560 OFFCURVE",
"30 457 OFFCURVE",
"30 276 CURVE SMOOTH",
"30 94 OFFCURVE",
"123 -10 OFFCURVE",
"284 -10 CURVE SMOOTH"
);
},
{
closed = 1;
nodes = (
"211 86 OFFCURVE",
"180 142 OFFCURVE",
"180 276 CURVE SMOOTH",
"180 409 OFFCURVE",
"210 464 OFFCURVE",
"284 464 CURVE SMOOTH",
"357 464 OFFCURVE",
"388 408 OFFCURVE",
"388 276 CURVE SMOOTH",
"388 143 OFFCURVE",
"357 86 OFFCURVE",
"284 86 CURVE SMOOTH"
);
}
);
width = 568;
},
{
anchors = (
{
name = bottom;
position = "{274, 0}";
},
{
name = center;
position = "{274, 275}";
},
{
name = ogonek;
position = "{359, 10}";
},
{
name = top;
position = "{274, 550}";
},
{
name = topright;
position = "{413, 474}";
}
);
layerId = "EB12C417-147C-44D3-ABF9-73FB32C0B9E2";
paths = (
{
closed = 1;
nodes = (
"429 -10 OFFCURVE",
"508 86 OFFCURVE",
"508 276 CURVE SMOOTH",
"508 465 OFFCURVE",
"430 560 OFFCURVE",
"274 560 CURVE SMOOTH",
"118 560 OFFCURVE",
"40 465 OFFCURVE",
"40 276 CURVE SMOOTH",
"40 86 OFFCURVE",
"119 -10 OFFCURVE",
"274 -10 CURVE SMOOTH"
);
},
{
closed = 1;
nodes = (
"144 28 OFFCURVE",
"82 108 OFFCURVE",
"82 276 CURVE SMOOTH",
"82 444 OFFCURVE",
"144 523 OFFCURVE",
"274 523 CURVE SMOOTH",
"404 523 OFFCURVE",
"466 443 OFFCURVE",
"466 276 CURVE SMOOTH",
"466 108 OFFCURVE",
"404 28 OFFCURVE",
"274 28 CURVE SMOOTH"
);
}
);
width = 548;
},
{
anchors = (
{
name = bottom;
position = "{227, 0}";
},
{
name = center;
position = "{265, 275}";
},
{
name = ogonek;
position = "{313, 10}";
},
{
name = top;
position = "{304, 550}";
},
{
name = topright;
position = "{432, 474}";
}
);
layerId = "CF2C6045-422A-4B78-B702-649D3D8A1FBA";
paths = (
{
closed = 1;
nodes = (
"409 -10 OFFCURVE",
"524 129 OFFCURVE",
"524 340 CURVE SMOOTH",
"524 481 OFFCURVE",
"441 560 OFFCURVE",
"295 560 CURVE SMOOTH",
"120 560 OFFCURVE",
"6 424 OFFCURVE",
"6 214 CURVE SMOOTH",
"6 71 OFFCURVE",
"88 -10 OFFCURVE",
"235 -10 CURVE SMOOTH"
);
},
{
closed = 1;
nodes = (
"182 86 OFFCURVE",
"155 125 OFFCURVE",
"155 205 CURVE SMOOTH",
"155 366 OFFCURVE",
"207 464 OFFCURVE",
"292 464 CURVE SMOOTH",
"347 464 OFFCURVE",
"375 425 OFFCURVE",
"375 346 CURVE SMOOTH",
"375 186 OFFCURVE",
"323 86 OFFCURVE",
"239 86 CURVE SMOOTH"
);
}
);
width = 568;
},
{
anchors = (
{
name = bottom;
position = "{217, 0}";
},
{
name = center;
position = "{255, 275}";
},
{
name = ogonek;
position = "{303, 10}";
},
{
name = top;
position = "{294, 550}";
},
{
name = topright;
position = "{422, 474}";
}
);
layerId = "821A3B53-E0A3-4F70-87DD-68DD21D0650F";
paths = (
{
closed = 1;
nodes = (
"390 -10 OFFCURVE",
"495 126 OFFCURVE",
"495 353 CURVE SMOOTH",
"495 491 OFFCURVE",
"428 560 OFFCURVE",
"295 560 CURVE SMOOTH",
"120 560 OFFCURVE",
"15 425 OFFCURVE",
"15 200 CURVE SMOOTH",
"15 60 OFFCURVE",
"82 -10 OFFCURVE",
"215 -10 CURVE SMOOTH"
);
},
{
closed = 1;
nodes = (
"129 46 OFFCURVE",
"85 96 OFFCURVE",
"85 202 CURVE SMOOTH",
"85 394 OFFCURVE",
"160 504 OFFCURVE",
"288 504 CURVE SMOOTH",
"380 504 OFFCURVE",
"425 455 OFFCURVE",
"425 350 CURVE SMOOTH",
"425 157 OFFCURVE",
"351 46 OFFCURVE",
"223 46 CURVE SMOOTH"
);
}
);
width = 548;
},
{
anchors = (
{
name = bottom;
position = "{217, 0}";
},
{
name = center;
position = "{255, 275}";
},
{
name = ogonek;
position = "{303, 10}";
},
{
name = top;
position = "{294, 550}";
},
{
name = topright;
position = "{422, 474}";
}
);
layerId = "3E05E8D4-50BE-428E-AA2A-790990B7EE87";
paths = (
{
closed = 1;
nodes = (
"390 -10 OFFCURVE",
"495 126 OFFCURVE",
"495 353 CURVE SMOOTH",
"495 491 OFFCURVE",
"428 560 OFFCURVE",
"295 560 CURVE SMOOTH",
"120 560 OFFCURVE",
"15 425 OFFCURVE",
"15 200 CURVE SMOOTH",
"15 60 OFFCURVE",
"82 -10 OFFCURVE",
"215 -10 CURVE SMOOTH"
);
},
{
closed = 1;
nodes = (
"110 28 OFFCURVE",
"57 84 OFFCURVE",
"57 202 CURVE SMOOTH",
"57 405 OFFCURVE",
"143 523 OFFCURVE",
"290 523 CURVE SMOOTH",
"400 523 OFFCURVE",
"453 466 OFFCURVE",
"453 348 CURVE SMOOTH",
"453 147 OFFCURVE",
"366 28 OFFCURVE",
"220 28 CURVE SMOOTH"
);
}
);
width = 548;
}
);
note = o;
unicode = 006F;
},
{
color = 4;
glyphname = p;
lastChange = "2018-07-18 10:11:34 +0000";
layers = (
{
layerId = "5A4BD32C-A1D1-4EB1-A794-47BD06E3B809";
paths = (
{
closed = 1;
nodes = (
"461 -10 OFFCURVE",
"558 100 OFFCURVE",
"558 276 CURVE SMOOTH",
"558 459 OFFCURVE",
"477 560 OFFCURVE",
"328 560 CURVE SMOOTH",
"251 560 OFFCURVE",
"179 524 OFFCURVE",
"134 462 CURVE",
"136 393 LINE",
"186 464 OFFCURVE",
"255 504 OFFCURVE",
"328 504 CURVE SMOOTH",
"434 504 OFFCURVE",
"486 428 OFFCURVE",
"486 276 CURVE SMOOTH",
"486 130 OFFCURVE",
"420 46 OFFCURVE",
"305 46 CURVE SMOOTH",
"235 46 OFFCURVE",
"167 65 OFFCURVE",
"129 96 CURVE",
"129 34 LINE",
"166 8 OFFCURVE",
"237 -10 OFFCURVE",
"305 -10 CURVE SMOOTH"
);
},
{
closed = 1;
nodes = (
"160 -220 LINE",
"160 496 LINE SMOOTH",
"160 534 OFFCURVE",
"150 554 OFFCURVE",
"131 554 CURVE SMOOTH",
"119 554 OFFCURVE",
"99 548 OFFCURVE",
"80 539 CURVE",
"88 520 OFFCURVE",
"92 451 OFFCURVE",
"92 363 CURVE SMOOTH",
"92 -220 LINE"
);
}
);
width = 598;
},
{
layerId = "FD6510A9-FDB4-489D-9A3E-85E488E95339";
paths = (
{
closed = 1;
nodes = (
"467 -10 OFFCURVE",
"570 109 OFFCURVE",
"570 286 CURVE SMOOTH",
"570 466 OFFCURVE",
"495 560 OFFCURVE",
"353 560 CURVE SMOOTH",
"288 560 OFFCURVE",
"238 537 OFFCURVE",
"195 488 CURVE",
"199 391 LINE",
"211 431 OFFCURVE",
"267 466 OFFCURVE",
"320 466 CURVE SMOOTH",
"389 466 OFFCURVE",
"420 410 OFFCURVE",
"420 286 CURVE SMOOTH",
"420 155 OFFCURVE",
"376 86 OFFCURVE",
"293 86 CURVE SMOOTH",
"255 86 OFFCURVE",
"213 99 OFFCURVE",
"183 119 CURVE",
"183 16 LINE",
"242 -3 OFFCURVE",
"276 -10 OFFCURVE",
"314 -10 CURVE SMOOTH"
);
},
{
closed = 1;
nodes = (
"211 -228 LINE",
"211 401 LINE SMOOTH",
"211 509 OFFCURVE",
"193 554 OFFCURVE",
"149 554 CURVE SMOOTH",
"112 554 OFFCURVE",
"67 541 OFFCURVE",
"30 520 CURVE",
"56 486 OFFCURVE",
"63 448 OFFCURVE",
"63 340 CURVE SMOOTH",
"63 -228 LINE"
);
}
);
width = 598;
},
{
layerId = "EB12C417-147C-44D3-ABF9-73FB32C0B9E2";
paths = (
{
closed = 1;
nodes = (
"464 -10 OFFCURVE",
"558 98 OFFCURVE",
"558 276 CURVE SMOOTH",
"558 462 OFFCURVE",
"475 560 OFFCURVE",
"318 560 CURVE SMOOTH",
"238 560 OFFCURVE",
"158 521 OFFCURVE",
"114 462 CURVE",
"116 413 LINE",
"163 480 OFFCURVE",
"243 524 OFFCURVE",
"318 524 CURVE SMOOTH",
"445 524 OFFCURVE",
"516 435 OFFCURVE",
"516 276 CURVE SMOOTH",
"516 123 OFFCURVE",
"436 26 OFFCURVE",
"310 26 CURVE SMOOTH",
"239 26 OFFCURVE",
"167 49 OFFCURVE",
"109 91 CURVE",
"109 49 LINE",
"170 10 OFFCURVE",
"239 -10 OFFCURVE",
"310 -10 CURVE SMOOTH"
);
},
{
closed = 1;
nodes = (
"134 -220 LINE",
"134 494 LINE SMOOTH",
"134 535 OFFCURVE",
"126 554 OFFCURVE",
"108 554 CURVE SMOOTH",
"99 554 OFFCURVE",
"86 549 OFFCURVE",
"80 543 CURVE",
"91 524 OFFCURVE",
"92 511 OFFCURVE",
"92 413 CURVE SMOOTH",
"92 -220 LINE"
);
}
);
width = 598;
},
{
layerId = "CF2C6045-422A-4B78-B702-649D3D8A1FBA";
paths = (
{
closed = 1;
nodes = (
"445 -10 OFFCURVE",
"556 122 OFFCURVE",
"556 333 CURVE SMOOTH",
"556 476 OFFCURVE",
"487 560 OFFCURVE",
"369 560 CURVE SMOOTH",
"300 560 OFFCURVE",
"246 535 OFFCURVE",
"202 484 CURVE",
"197 391 LINE",
"229 437 OFFCURVE",
"276 466 OFFCURVE",
"320 466 CURVE SMOOTH",
"375 466 OFFCURVE",
"408 416 OFFCURVE",
"408 332 CURVE SMOOTH",
"408 182 OFFCURVE",
"345 86 OFFCURVE",
"247 86 CURVE SMOOTH",
"209 86 OFFCURVE",
"173 98 OFFCURVE",
"143 121 CURVE",
"129 18 LINE",
"164 1 OFFCURVE",
"217 -10 OFFCURVE",
"268 -10 CURVE SMOOTH"
);
},
{
closed = 1;
nodes = (
"122 -228 LINE",
"211 407 LINE SMOOTH",
"215 438 OFFCURVE",
"217 456 OFFCURVE",
"217 475 CURVE SMOOTH",
"217 529 OFFCURVE",
"202 554 OFFCURVE",
"170 554 CURVE SMOOTH",
"133 554 OFFCURVE",
"87 541 OFFCURVE",
"47 520 CURVE",
"59 501 OFFCURVE",
"64 480 OFFCURVE",
"64 450 CURVE SMOOTH",
"64 424 OFFCURVE",
"61 396 OFFCURVE",
"54 346 CURVE SMOOTH",
"-26 -228 LINE"
);
}
);
width = 598;
},
{
layerId = "821A3B53-E0A3-4F70-87DD-68DD21D0650F";
paths = (
{
closed = 1;
nodes = (
"430 -10 OFFCURVE",
"545 127 OFFCURVE",
"545 338 CURVE SMOOTH",
"545 479 OFFCURVE",
"472 560 OFFCURVE",
"344 560 CURVE SMOOTH",
"265 560 OFFCURVE",
"194 527 OFFCURVE",
"142 466 CURVE",
"134 393 LINE",
"195 466 OFFCURVE",
"265 504 OFFCURVE",
"337 504 CURVE SMOOTH",
"427 504 OFFCURVE",
"473 447 OFFCURVE",
"473 336 CURVE SMOOTH",
"473 157 OFFCURVE",
"390 46 OFFCURVE",
"255 46 CURVE SMOOTH",
"183 46 OFFCURVE",
"117 65 OFFCURVE",
"85 96 CURVE",
"76 34 LINE",
"106 8 OFFCURVE",
"180 -10 OFFCURVE",
"252 -10 CURVE SMOOTH"
);
},
{
closed = 1;
nodes = (
"72 -220 LINE",
"172 496 LINE SMOOTH",
"174 508 OFFCURVE",
"174 514 OFFCURVE",
"174 518 CURVE SMOOTH",
"174 542 OFFCURVE",
"166 554 OFFCURVE",
"151 554 CURVE SMOOTH",
"139 554 OFFCURVE",
"118 548 OFFCURVE",
"98 539 CURVE",
"99 531 OFFCURVE",
"100 522 OFFCURVE",
"100 514 CURVE SMOOTH",
"100 485 OFFCURVE",
"94 422 OFFCURVE",
"86 363 CURVE SMOOTH",
"4 -220 LINE"
);
}
);
width = 598;
},
{
layerId = "3E05E8D4-50BE-428E-AA2A-790990B7EE87";
paths = (
{
closed = 1;
nodes = (
"433 -10 OFFCURVE",
"545 119 OFFCURVE",
"545 329 CURVE SMOOTH",
"545 482 OFFCURVE",
"474 560 OFFCURVE",
"334 560 CURVE SMOOTH",
"255 560 OFFCURVE",
"174 523 OFFCURVE",
"122 464 CURVE",
"117 413 LINE",
"174 481 OFFCURVE",
"259 524 OFFCURVE",
"334 524 CURVE SMOOTH",
"443 524 OFFCURVE",
"502 456 OFFCURVE",
"502 329 CURVE SMOOTH",
"502 146 OFFCURVE",
"404 26 OFFCURVE",
"258 26 CURVE SMOOTH",
"180 26 OFFCURVE",
"102 52 OFFCURVE",
"64 91 CURVE",
"58 49 LINE",
"95 14 OFFCURVE",
"176 -10 OFFCURVE",
"253 -10 CURVE SMOOTH"
);
},
{
closed = 1;
nodes = (
"46 -220 LINE",
"146 494 LINE SMOOTH",
"149 512 OFFCURVE",
"148 516 OFFCURVE",
"148 520 CURVE SMOOTH",
"148 543 OFFCURVE",
"142 554 OFFCURVE",
"128 554 CURVE SMOOTH",
"119 554 OFFCURVE",
"105 549 OFFCURVE",
"99 543 CURVE",
"103 536 OFFCURVE",
"104 528 OFFCURVE",
"104 514 CURVE SMOOTH",
"104 495 OFFCURVE",
"102 479 OFFCURVE",
"93 413 CURVE SMOOTH",
"4 -220 LINE"
);
}
);
width = 598;
}
);
note = p;
unicode = 0070;
},
{
color = 4;
glyphname = q;
lastChange = "2018-07-18 10:11:34 +0000";
layers = (
{
layerId = "5A4BD32C-A1D1-4EB1-A794-47BD06E3B809";
paths = (
{
closed = 1;
nodes = (
"351 -10 OFFCURVE",
"385 0 OFFCURVE",
"457 42 CURVE",
"457 105 LINE",
"409 61 OFFCURVE",
"361 42 OFFCURVE",
"292 42 CURVE SMOOTH",
"170 42 OFFCURVE",
"111 119 OFFCURVE",
"111 278 CURVE SMOOTH",
"111 426 OFFCURVE",
"171 507 OFFCURVE",
"281 507 CURVE SMOOTH",
"354 507 OFFCURVE",
"413 473 OFFCURVE",
"458 404 CURVE",
"467 478 LINE",
"407 539 OFFCURVE",
"359 560 OFFCURVE",
"276 560 CURVE SMOOTH",
"129 560 OFFCURVE",
"40 453 OFFCURVE",
"40 278 CURVE SMOOTH",
"40 98 OFFCURVE",
"128 -10 OFFCURVE",
"275 -10 CURVE SMOOTH"
);
},
{
closed = 1;
nodes = (
"507 -220 LINE",
"507 362 LINE SMOOTH",
"507 427 OFFCURVE",
"516 514 OFFCURVE",
"526 539 CURVE",
"509 550 OFFCURVE",
"500 554 OFFCURVE",
"480 554 CURVE SMOOTH",
"453 554 OFFCURVE",
"439 509 OFFCURVE",
"439 430 CURVE SMOOTH",
"439 -220 LINE"
);
}
);
width = 608;
},
{
layerId = "FD6510A9-FDB4-489D-9A3E-85E488E95339";
paths = (
{
closed = 1;
nodes = (
"321 -10 OFFCURVE",
"384 22 OFFCURVE",
"416 73 CURVE",
"414 186 LINE",
"385 123 OFFCURVE",
"336 86 OFFCURVE",
"278 86 CURVE SMOOTH",
"211 86 OFFCURVE",
"180 145 OFFCURVE",
"180 273 CURVE SMOOTH",
"180 401 OFFCURVE",
"216 466 OFFCURVE",
"288 466 CURVE SMOOTH",
"339 466 OFFCURVE",
"379 439 OFFCURVE",
"401 391 CURVE",
"405 488 LINE",
"384 535 OFFCURVE",
"331 560 OFFCURVE",
"252 560 CURVE SMOOTH",
"117 560 OFFCURVE",
"30 447 OFFCURVE",
"30 273 CURVE SMOOTH",
"30 94 OFFCURVE",
"112 -10 OFFCURVE",
"253 -10 CURVE SMOOTH"
);
},
{
closed = 1;
nodes = (
"537 -228 LINE",
"537 340 LINE SMOOTH",
"537 448 OFFCURVE",
"544 486 OFFCURVE",
"570 520 CURVE",
"533 541 OFFCURVE",
"488 554 OFFCURVE",
"451 554 CURVE SMOOTH",
"407 554 OFFCURVE",
"389 509 OFFCURVE",
"389 401 CURVE SMOOTH",
"389 -228 LINE"
);
}
);
width = 608;
},
{
layerId = "EB12C417-147C-44D3-ABF9-73FB32C0B9E2";
paths = (
{
closed = 1;
nodes = (
"373 -10 OFFCURVE",
"450 18 OFFCURVE",
"487 61 CURVE",
"487 104 LINE",
"439 52 OFFCURVE",
"379 28 OFFCURVE",
"295 28 CURVE SMOOTH",
"170 28 OFFCURVE",
"92 123 OFFCURVE",
"92 278 CURVE SMOOTH",
"92 429 OFFCURVE",
"170 522 OFFCURVE",
"295 522 CURVE SMOOTH",
"377 522 OFFCURVE",
"445 489 OFFCURVE",
"488 429 CURVE",
"497 474 LINE",
"435 535 OFFCURVE",
"376 560 OFFCURVE",
"295 560 CURVE SMOOTH",
"146 560 OFFCURVE",
"50 450 OFFCURVE",
"50 278 CURVE SMOOTH",
"50 102 OFFCURVE",
"145 -10 OFFCURVE",
"295 -10 CURVE SMOOTH"
);
},
{
closed = 1;
nodes = (
"507 -220 LINE",
"507 424 LINE SMOOTH",
"507 479 OFFCURVE",
"513 516 OFFCURVE",
"526 543 CURVE",
"516 550 OFFCURVE",
"505 554 OFFCURVE",
"497 554 CURVE SMOOTH",
"475 554 OFFCURVE",
"465 518 OFFCURVE",
"465 436 CURVE SMOOTH",
"465 -220 LINE"
);
}
);
width = 608;
},
{
layerId = "CF2C6045-422A-4B78-B702-649D3D8A1FBA";
paths = (
{
closed = 1;
nodes = (
"273 -10 OFFCURVE",
"341 20 OFFCURVE",
"381 71 CURVE",
"383 184 LINE",
"344 120 OFFCURVE",
"290 86 OFFCURVE",
"233 86 CURVE SMOOTH",
"183 86 OFFCURVE",
"155 132 OFFCURVE",
"155 210 CURVE SMOOTH",
"155 363 OFFCURVE",
"212 466 OFFCURVE",
"296 466 CURVE SMOOTH",
"346 466 OFFCURVE",
"383 440 OFFCURVE",
"399 391 CURVE",
"416 488 LINE",
"399 534 OFFCURVE",
"347 560 OFFCURVE",
"273 560 CURVE SMOOTH",
"112 560 OFFCURVE",
"6 424 OFFCURVE",
"6 217 CURVE SMOOTH",
"6 78 OFFCURVE",
"83 -10 OFFCURVE",
"206 -10 CURVE SMOOTH"
);
},
{
closed = 1;
nodes = (
"448 -228 LINE",
"527 340 LINE SMOOTH",
"542 448 OFFCURVE",
"555 486 OFFCURVE",
"586 520 CURVE",
"552 541 OFFCURVE",
"508 554 OFFCURVE",
"471 554 CURVE SMOOTH",
"428 554 OFFCURVE",
"403 509 OFFCURVE",
"388 401 CURVE SMOOTH",
"300 -228 LINE"
);
}
);
width = 608;
},
{
layerId = "821A3B53-E0A3-4F70-87DD-68DD21D0650F";
paths = (
{
closed = 1;
nodes = (
"306 -10 OFFCURVE",
"356 6 OFFCURVE",
"408 46 CURVE",
"415 109 LINE",
"371 66 OFFCURVE",
"313 42 OFFCURVE",
"251 42 CURVE SMOOTH",
"150 42 OFFCURVE",
"88 112 OFFCURVE",
"88 227 CURVE SMOOTH",
"88 400 OFFCURVE",
"167 507 OFFCURVE",
"292 507 CURVE SMOOTH",
"367 507 OFFCURVE",
"427 471 OFFCURVE",
"459 406 CURVE",
"479 480 LINE",
"438 534 OFFCURVE",
"378 560 OFFCURVE",
"294 560 CURVE SMOOTH",
"126 560 OFFCURVE",
"17 430 OFFCURVE",
"17 225 CURVE SMOOTH",
"17 82 OFFCURVE",
"104 -10 OFFCURVE",
"238 -10 CURVE SMOOTH"
);
},
{
closed = 1;
nodes = (
"419 -220 LINE",
"501 362 LINE SMOOTH",
"511 430 OFFCURVE",
"532 515 OFFCURVE",
"545 539 CURVE",
"532 549 OFFCURVE",
"519 554 OFFCURVE",
"499 554 CURVE SMOOTH",
"473 554 OFFCURVE",
"453 509 OFFCURVE",
"442 430 CURVE SMOOTH",
"351 -220 LINE"
);
}
);
width = 608;
},
{
layerId = "3E05E8D4-50BE-428E-AA2A-790990B7EE87";
paths = (
{
closed = 1;
nodes = (
"331 -10 OFFCURVE",
"400 16 OFFCURVE",
"442 60 CURVE",
"444 105 LINE",
"388 49 OFFCURVE",
"337 28 OFFCURVE",
"259 28 CURVE SMOOTH",
"143 28 OFFCURVE",
"69 109 OFFCURVE",
"69 237 CURVE SMOOTH",
"69 406 OFFCURVE",
"166 522 OFFCURVE",
"308 522 CURVE SMOOTH",
"389 522 OFFCURVE",
"456 488 OFFCURVE",
"491 429 CURVE",
"506 474 LINE",
"458 532 OFFCURVE",
"394 560 OFFCURVE",
"311 560 CURVE SMOOTH",
"138 560 OFFCURVE",
"27 432 OFFCURVE",
"27 234 CURVE SMOOTH",
"27 83 OFFCURVE",
"114 -10 OFFCURVE",
"255 -10 CURVE SMOOTH"
);
},
{
closed = 1;
nodes = (
"419 -220 LINE",
"509 424 LINE SMOOTH",
"517 478 OFFCURVE",
"525 514 OFFCURVE",
"544 543 CURVE",
"536 550 OFFCURVE",
"525 554 OFFCURVE",
"517 554 CURVE SMOOTH",
"496 554 OFFCURVE",
"480 522 OFFCURVE",
"468 436 CURVE SMOOTH",
"377 -220 LINE"
);
}
);
width = 608;
}
);
note = q;
unicode = 0071;
},
